<svg viewBox="0 0 209 117" fill="none" xmlns="http://www.w3.org/2000/svg">
<path d="M104.182 109.405C131.227 109.405 155.91 103.948 173.979 94.9382C191.805 86.0492 204.365 73.0268 204.365 57.446C204.365 41.8653 191.805 28.8428 173.979 19.9539C155.91 10.9441 131.227 5.48657 104.182 5.48657C77.1376 5.48657 52.4554 10.9441 34.3863 19.9539C16.5595 28.8428 4 41.8653 4 57.446C4 73.0268 16.5595 86.0492 34.3863 94.9382C52.4554 103.948 77.1376 109.405 104.182 109.405Z" fill="white" stroke="black" stroke-width="8"/>
<path d="M191.436 54.405C191.589 55.419 192.416 57.8565 192.416 58.89C192.416 83.6589 148.057 103.74 93.338 103.74C71.8878 103.74 50.4611 97.4805 34.244 92.235C50.8139 101.755 76.8819 110.955 104.216 110.955C154.118 110.955 194.572 90.8739 194.572 66.105C194.572 62.5638 193 57.7083 191.436 54.405Z" fill="black"/>
<path d="M102.648 107.25C79.0731 107.25 56.5919 102.675 39.8613 94.5868C55.459 98.9275 73.2636 101.205 91.77 101.205C118.316 101.205 143.283 96.5212 162.071 88.0153C180.672 79.5952 191.064 68.3983 191.424 56.4214C192.083 58.5898 192.416 60.7855 192.416 62.9851C192.416 87.3913 152.146 107.25 102.648 107.25Z" fill="#F4B400"/>
<path d="M191.616 59.9898C191.757 60.9843 191.828 61.9866 191.828 62.985C191.828 68.7531 189.535 74.373 185.007 79.6848C180.558 84.903 174.168 89.6025 166.015 93.6507C149.108 102.043 126.603 106.665 102.648 106.665C82.0758 106.665 62.3504 103.174 46.5802 96.8994C60.5002 100.113 75.8783 101.79 91.77 101.79C118.399 101.79 143.451 97.0866 162.314 88.5495C179.292 80.8626 189.511 70.8474 191.616 59.9898ZM190.613 52.6968C190.766 53.7108 190.848 54.7365 190.848 55.77C190.848 80.5389 146.489 100.62 91.77 100.62C70.3198 100.62 50.465 97.5351 34.2479 92.2896C50.8178 101.809 75.3138 107.835 102.648 107.835C152.55 107.835 193.004 87.7539 193.004 62.985C193.004 59.4438 192.173 56.0001 190.613 52.6968Z" fill="black"/>
<path d="M25.3731 76.1551C18.419 70.5079 15.036 62.2477 15.036 50.8948C15.036 38.758 24.5106 27.3739 41.7194 18.8329C58.8381 10.3348 81.5898 5.65479 105.784 5.65479C121.029 5.65479 149.476 8.72408 161.029 14.2738L163.412 15.4204L160.797 15.0109C159.406 14.7925 157.787 14.5351 155.995 14.2465C145.078 12.4915 126.803 9.55479 117.074 9.55479C90.9546 9.55479 66.5801 14.2153 48.4462 22.6822C30.6925 30.9697 20.2888 42.1783 19.152 54.2488C18.5954 60.169 21.3786 66.019 24.6047 72.7894C25.0555 73.7371 25.5142 74.7043 25.9767 75.691L26.6941 77.2315L25.3731 76.159V76.1551Z" fill="#F4B400"/>
<path d="M105.784 6.04489C121.597 6.04489 149.492 9.16489 160.86 14.6249C150.731 13.0415 128.391 9.16489 117.074 9.16489C62.3544 9.16489 21.112 29.2499 18.76 54.2099C18.1132 61.07 21.8098 67.7 25.62 75.8549C17.2352 69.0494 15.428 59.4554 15.428 50.8949C15.428 26.126 55.8824 6.04489 105.784 6.04489ZM105.784 5.26489C81.531 5.26489 58.7166 9.96049 41.5431 18.482C33.1504 22.6472 26.5491 27.5105 21.9313 32.9315C17.098 38.606 14.644 44.6471 14.644 50.8949C14.644 62.3726 18.074 70.7342 25.1261 76.4594L27.7721 78.6083L26.3335 75.5273C25.8709 74.5367 25.4123 73.5695 24.9615 72.6218C21.7628 65.9021 18.9952 60.0989 19.544 54.284C20.6691 42.3578 30.9944 31.2584 48.6148 23.0333C66.7016 14.5937 91.0135 9.94489 117.078 9.94489C126.78 9.94489 145.031 12.8777 155.94 14.6288C157.732 14.9174 159.351 15.1787 160.742 15.3932L165.972 16.2083L161.205 13.919C154.565 10.7288 143.345 8.67349 135.106 7.51129C125.114 6.10339 114.153 5.26099 105.792 5.26099L105.784 5.26489Z" fill="black"/>
<path d="M21.5236 57.135C19.4342 32.4519 65.8823 12.285 120.602 12.285C131.919 12.285 156.219 15.3816 166.348 16.965C154.98 11.505 125.125 9.16504 109.312 9.16504C59.4104 9.16504 18.76 29.4411 18.76 54.21C18.76 62.7705 20.328 70.98 27.776 78.78C23.9658 70.6251 22.1038 63.999 21.5236 57.135Z" fill="black"/>
<path d="M137.113 70.1609C140.194 69.8996 142.922 69.0104 145.302 67.5011C147.677 65.9918 149.539 63.839 150.884 61.0466C152.228 58.2542 152.899 54.8222 152.899 50.7467C152.899 45.1619 151.711 40.907 149.335 37.982C146.956 35.057 143.44 33.5945 138.787 33.5945C138.457 33.5945 138.112 33.6023 137.752 33.6179C137.391 33.6335 137.03 33.6608 136.67 33.692L126.881 34.5305V70.9994L137.109 70.1609H137.113Z" fill="#6CA707"/>
<path d="M65.9763 36.1218L65.8274 23.907L67.8776 24.4179L67.8697 36.1218H65.9763Z" fill="black"/>
<path d="M70.504 72.3958C72.9304 72.1696 74.9688 71.53 76.627 70.4887C78.2812 69.4435 79.5356 68.098 80.3902 66.4522C81.2408 64.8064 81.6681 63.0202 81.6681 61.0936C81.6681 59.167 81.3663 57.685 80.7587 56.4448C80.1511 55.2046 79.3475 54.2686 78.3479 53.6329C77.3483 52.9972 76.2585 52.6306 75.0786 52.5331L75.0276 52.3381C76.5016 51.6868 77.6501 50.7079 78.4694 49.4014C79.2887 48.0988 79.7003 46.4491 79.7003 44.4601C79.7003 42.046 78.9045 40.057 77.3169 38.4931C75.7254 36.9253 73.5537 36.1453 70.8019 36.1453H70.1864C69.9748 36.1453 69.767 36.1609 69.571 36.1921L58.6538 37.171V73.4254L70.504 72.3958Z" fill="#6CA707"/>
<path d="M58.1129 73.9831V36.8005L69.4731 35.7748C69.7004 35.7436 69.916 35.7241 70.112 35.7241H70.751C73.1775 35.7241 75.749 36.3754 78.4734 37.6819C80.4412 38.6296 82.0288 39.8581 83.244 41.3752C84.4553 42.8923 85.0629 44.7604 85.0629 46.9756C85.0629 48.8671 84.718 50.4583 84.032 51.7453C83.342 53.0323 82.4248 54.019 81.2801 54.7054C82.7893 55.033 84.1221 55.9222 85.2864 57.373C86.4506 58.8238 87.0308 60.9025 87.0308 63.6091C87.0308 65.6332 86.5878 67.4896 85.7019 69.1861C84.816 70.8826 83.5145 72.2749 81.7936 73.3708C80.0728 74.4628 77.9481 75.1219 75.4236 75.352L63.0325 76.4284L58.1168 73.9831H58.1129ZM70.457 72.466C72.8835 72.2398 74.9219 71.6002 76.58 70.5589C78.2343 69.5137 79.4887 68.1682 80.3432 66.5224C81.1939 64.8766 81.6212 63.0904 81.6212 61.1638C81.6212 59.2372 81.3193 57.7552 80.7117 56.515C80.1041 55.2748 79.3005 54.3388 78.3009 53.7031C77.3013 53.0674 76.2116 52.7008 75.0316 52.6033L74.9807 52.4083C76.4546 51.757 77.6032 50.7781 78.4224 49.4716C79.2417 48.169 79.6533 46.5193 79.6533 44.5303C79.6533 42.1162 78.8576 40.1272 77.27 38.5633C75.6784 36.9955 73.5068 36.2155 70.7549 36.2155H70.1395C69.9278 36.2155 69.72 36.2311 69.524 36.2623L58.6068 37.2412V73.4956L70.457 72.466ZM66.0313 43.5007L68.2461 43.3057C68.4108 43.2745 68.5754 43.2589 68.7361 43.2589H69.1791C70.3276 43.2589 71.1626 43.5124 71.6879 44.0155C72.2132 44.5225 72.4758 45.2947 72.4758 46.3399C72.4758 48.6877 71.0489 49.9942 68.1991 50.2555L66.0352 50.4505V43.5046L66.0313 43.5007ZM66.0313 57.3457L69.328 57.0532C69.4574 57.0532 69.575 57.0454 69.673 57.0298C69.771 57.0142 69.8847 57.0064 70.018 57.0064C71.2645 57.0064 72.2798 57.334 73.0677 57.9853C73.8556 58.6366 74.2476 59.5999 74.2476 60.8713C74.2476 63.808 72.7894 65.3914 69.869 65.6176L66.0313 65.9608V57.3496V57.3457ZM70.457 49.1245C71.4723 48.637 71.9819 47.7049 71.9819 46.336V46.0435C71.9819 45.946 71.9662 45.8485 71.9309 45.751L70.457 45.8992V49.1284V49.1245ZM71.4409 64.7791C72.9815 64.1278 73.7537 62.8213 73.7537 60.8635C73.7537 60.6997 73.7459 60.5554 73.7302 60.4228C73.7145 60.2941 73.6871 60.1615 73.6557 60.0328L71.4409 60.2278V64.7791Z" fill="black"/>
<path d="M112.785 72.0993L112.244 73.7607L103.836 74.4939L99.657 72.4386V74.3457L91.8876 75.0321L86.9719 72.5868V35.4042L96.6112 34.5228L101.527 36.9681L105.463 51.5463L109.986 34.3239L119.575 33.54L124.49 35.9853V73.2186L116.329 73.8543L112.789 72.0915L112.785 72.0993ZM110.374 34.8192L104.13 58.7925C104.032 59.1825 103.934 59.6349 103.836 60.138C103.738 60.645 103.624 61.2885 103.491 62.0724L103.295 62.1231C103.197 61.3392 103.107 60.6879 103.024 60.1653C102.942 59.6427 102.852 59.202 102.754 58.8432L96.2153 35.0649L87.4619 35.8488V72.0525L94.2474 71.5143V55.8597C94.2474 55.1733 94.2318 54.4479 94.1965 53.6835C94.1651 52.9152 94.1142 52.0143 94.0475 50.9691L94.1455 50.9223C94.2122 51.3786 94.3023 51.9402 94.416 52.611C94.5297 53.2818 94.663 53.9175 94.808 54.5181C94.957 55.1226 95.0628 55.5867 95.1294 55.9143L99.2611 71.5689L106.882 70.8825L110.915 55.8636C111.111 55.1148 111.292 54.3231 111.456 53.4924C111.621 52.6617 111.801 51.6594 111.997 50.4816L112.095 50.5323C112.029 51.7062 111.982 52.6851 111.946 53.469C111.915 54.2529 111.895 54.9549 111.895 55.5711V70.9332L119.077 70.3443V34.0899L110.374 34.8231V34.8192Z" fill="black"/>
<path d="M126.391 71.4791V34.2965L136.619 33.4151C137.046 33.3839 137.458 33.3566 137.85 33.341C138.242 33.3254 138.602 33.3176 138.932 33.3176C140.735 33.3176 142.35 33.5282 143.777 33.9533C145.204 34.3784 146.768 34.9985 148.473 35.8136C150.766 36.8588 152.636 38.138 154.078 39.6551C155.521 41.1722 156.587 43.0325 157.277 45.2321C157.967 47.4317 158.308 50.1188 158.308 53.2817C158.308 57.4235 157.61 60.914 156.219 63.7532C154.827 66.5924 152.914 68.7686 150.488 70.2857C148.061 71.8028 145.258 72.7076 142.079 73.0001L131.311 73.9283L126.395 71.483L126.391 71.4791ZM137.113 70.1102C140.194 69.8489 142.922 68.9675 145.302 67.4699C147.677 65.9684 149.539 63.8351 150.884 61.0622C152.228 58.2893 152.899 54.8807 152.899 50.8364C152.899 45.2906 151.711 41.0669 149.335 38.1653C146.956 35.2637 143.44 33.809 138.787 33.809C138.457 33.809 138.112 33.8168 137.752 33.8324C137.391 33.848 137.03 33.8753 136.67 33.9065L126.881 34.7372V70.9409L137.109 70.1102H137.113ZM134.31 41.2931L135.737 41.1956C136.097 41.1644 136.435 41.1371 136.744 41.1215C137.054 41.1059 137.375 41.0981 137.705 41.0981C139.41 41.0981 140.809 41.4062 141.911 42.0263C143.008 42.6464 143.828 43.7072 144.369 45.2087C144.91 46.7102 145.18 48.8123 145.18 51.5189C145.18 55.3682 144.376 58.1801 142.769 59.9585C141.162 61.7369 138.983 62.7392 136.231 62.9693L134.31 63.1175V41.297V41.2931ZM139.719 61.5965C141.393 60.8789 142.64 59.7128 143.459 58.0982C144.278 56.4836 144.69 54.2918 144.69 51.5189C144.69 48.0635 144.2 45.5831 143.216 44.0816C143.087 44.0504 142.953 44.0309 142.824 44.0309H142.432C142.134 44.0309 141.848 44.0387 141.57 44.0543C141.291 44.0699 141.005 44.0933 140.711 44.1284L139.727 44.1791V61.5965H139.719Z" fill="black"/>
<path d="M61.7114 24.8508L65.4393 24.3516L65.5805 35.7669L62.076 36.0828L61.7114 24.8508Z" fill="#6CA707"/>
<path d="M65.0551 24.8001L65.1845 35.412L62.4562 35.6577L62.1151 25.1901L65.0512 24.7962M65.8235 23.907L61.3076 24.5115L61.6957 36.5079L65.9763 36.1218L65.8274 23.907H65.8235Z" fill="black"/>
<path d="M75.0472 36.6521V22.6355L77.0974 23.1932L77.0896 37.1591L75.0472 36.6521Z" fill="black"/>
<path d="M71.3311 35.4431L70.9352 23.63L74.6631 23.084L74.8042 36.1256L71.3311 35.4431Z" fill="#6CA707"/>
<path d="M74.2751 23.5364L74.4044 35.6498L71.7114 35.1194L71.339 23.9654L74.2751 23.5364ZM75.0512 22.6355L70.5354 23.2985L70.9548 35.7668L75.2041 36.6053L75.0552 22.6355H75.0512Z" fill="black"/>
<path d="M134.377 33.965L134.224 21.7502L136.274 22.2572L136.266 33.965H134.377Z" fill="black"/>
<path d="M130.112 22.694L133.839 22.1948L133.981 33.6062L130.476 33.926L130.112 22.694Z" fill="#6CA707"/>
<path d="M133.451 22.6394L133.581 33.2513L130.852 33.497L130.511 23.0294L133.447 22.6355M134.22 21.7463L129.704 22.3508L130.092 34.3472L134.373 33.9611L134.224 21.7463H134.22Z" fill="black"/>
<path d="M143.447 34.4917V20.4751L145.498 21.0328L145.49 35.0026L143.447 34.4917Z" fill="black"/>
<path d="M139.731 33.2827L139.331 21.4735L143.059 20.9275L143.2 33.9691L139.731 33.2827Z" fill="#6CA707"/>
<path d="M142.671 21.376L142.801 33.4894L140.108 32.959L139.735 21.805L142.671 21.376ZM143.447 20.4751L138.932 21.1381L139.351 33.6064L143.6 34.4449L143.451 20.4751H143.447Z" fill="black"/>
<path d="M66.4899 75.4104L66.337 86.6034L68.3872 85.839L68.3794 75.4104H66.4899Z" fill="black"/>
<path d="M62.5895 75.4024L66.1959 75.2854L65.9529 86.2483L62.2289 86.5915L62.5895 75.4024Z" fill="#6CA707"/>
<path d="M65.7921 75.6872L65.5687 85.8935L62.6326 86.1626L62.9697 75.7808L65.7921 75.6911M66.5957 74.8838L62.2132 75.0242L61.8251 87.0206L66.3409 86.6072L66.5957 74.8838Z" fill="black"/>
<path d="M76.482 74.8994L76.3291 86.0963L78.3793 85.3319L78.3714 74.8994H76.482Z" fill="black"/>
<path d="M72.5817 74.8526L76.1842 74.3145L75.9451 85.7375L72.2211 86.0808L72.5817 74.8526Z" fill="#6CA707"/>
<path d="M75.7843 74.7708L75.5609 85.3827L72.6248 85.6518L72.9658 75.1881L75.7843 74.7708ZM76.5879 73.8621L72.2053 74.5134L71.8173 86.5098L76.3331 86.0964L76.5879 73.8621Z" fill="black"/>
<path d="M134.377 72.6062L134.224 83.8031L136.274 83.0387L136.266 72.6062H134.377Z" fill="black"/>
<path d="M130.476 72.5984L134.079 72.4814L133.839 83.4443L130.115 83.7875L130.476 72.5984Z" fill="#6CA707"/>
<path d="M133.679 72.8832L133.455 83.0895L130.519 83.3586L130.856 72.9768L133.679 72.8871M134.482 72.0798L130.1 72.2202L129.712 84.2166L134.228 83.8032L134.482 72.0798Z" fill="black"/>
<path d="M144.365 72.0955L144.216 83.2924L146.266 82.528L146.258 72.0955H144.365Z" fill="black"/>
<path d="M140.468 72.0487L144.071 71.5105L143.832 82.9336L140.104 83.2768L140.468 72.0487Z" fill="#6CA707"/>
<path d="M143.667 71.9668L143.443 82.5787L140.507 82.8478L140.848 72.3841L143.667 71.9668ZM144.47 71.0581L140.088 71.7094L139.7 83.7058L144.216 83.2924L144.47 71.0581Z" fill="black"/>
<path d="M70.4727 49.1555C71.4879 48.668 71.9975 47.7359 71.9975 46.367V46.0745C71.9975 45.977 71.9819 45.8795 71.9466 45.782L70.4727 45.9302V49.1594V49.1555Z" fill="white"/>
<path d="M71.4565 64.8142C72.9971 64.1629 73.7693 62.8564 73.7693 60.8986C73.7693 60.7348 73.7615 60.5905 73.7458 60.4579C73.7301 60.3292 73.7027 60.1966 73.6713 60.0679L71.4565 60.2629V64.8142Z" fill="white"/>
<path d="M110.374 34.7139L104.106 58.7808C104.008 59.1747 103.91 59.6232 103.808 60.1302C103.71 60.6372 103.593 61.2846 103.463 62.0685L103.267 62.1192C103.169 61.3314 103.079 60.6801 102.997 60.1536C102.915 59.631 102.824 59.1864 102.726 58.8276L96.1603 34.9557L87.3717 35.7435V72.0876L94.5218 71.565L94.267 55.7622C94.267 55.0758 94.2983 54.4908 94.267 53.7225C94.2356 52.9542 94.3336 52.4784 94.267 51.4293L94.0122 50.9184C94.0788 51.3786 94.2435 51.8934 94.3611 52.5642C94.4747 53.235 94.608 53.8746 94.757 54.4791C94.9059 55.0836 95.0118 55.5516 95.0784 55.8792L99.2258 71.5962L106.878 70.9098L110.927 55.8324C111.123 55.0797 111.303 54.2841 111.472 53.4495C111.637 52.6149 111.817 51.6087 112.017 50.427L112.115 50.4777C112.048 51.6555 112.001 52.6383 111.966 53.4261C111.934 54.21 111.915 54.9159 111.915 55.536V70.9566L119.124 70.3677V33.9729L110.386 34.71L110.374 34.7139Z" fill="#F4B400"/>
<path d="M139.719 61.5849C141.393 60.8634 142.64 59.6895 143.459 58.0632C144.278 56.4369 144.69 54.2295 144.69 51.4332C144.69 47.9505 144.2 45.4545 143.216 43.9413C143.087 43.9101 142.953 43.8906 142.824 43.8906H142.432C142.134 43.8906 141.848 43.8984 141.57 43.914C141.291 43.9296 141.005 43.9569 140.711 43.9881L139.727 44.0388V61.581L139.719 61.5849Z" fill="white"/>
</svg>
