<?xml version="1.0" encoding="UTF-8"?>
<svg id="perogiHatLogo" xmlns="http://www.w3.org/2000/svg" xmlns:xlink="http://www.w3.org/1999/xlink" viewBox="0 0 300 300">
  <defs>
    <filter id="drop-shadow-1" x="10" y="138" width="288" height="97" filterUnits="userSpaceOnUse">
      <feOffset dx="4" dy="4"/>
      <feGaussianBlur result="blur" stdDeviation="3"/>
      <feFlood flood-color="#355103" flood-opacity="1"/>
      <feComposite in2="blur" operator="in"/>
      <feComposite in="SourceGraphic"/>
    </filter>
  </defs>
  <line x1="57.97" y1="127.6" x2="151.34" y2="63.42" fill="none" stroke="#fff" stroke-miterlimit="10" stroke-width="6"/>
  <line x1="147.04" y1="63.13" x2="239.65" y2="132.45" fill="none" stroke="#fff" stroke-miterlimit="10" stroke-width="6"/>
  <line x1="100.55" y1="223.03" x2="76.67" y2="114.75" fill="none" stroke="#fff" stroke-miterlimit="10" stroke-width="6"/>
  <line x1="191.26" y1="226.4" x2="223.2" y2="116.8" fill="none" stroke="#fff" stroke-miterlimit="10" stroke-width="6"/>
  <g filter="url(#drop-shadow-1)">
    <path d="M25.34,157.12h9.85v9.85c0,2.18-.7,3.81-2.1,4.91-1.4,1.1-2.89,1.65-4.46,1.65h-6.59c-1.8,0-3.34-.64-4.63-1.93-1.29-1.29-1.93-2.83-1.93-4.63v-16.44c0-1.77.63-3.3,1.9-4.6s2.82-1.96,4.66-1.96h6.59c4.13,0,6.31,2.19,6.56,6.56h-3.29c-.26-2.18-1.34-3.26-3.26-3.26h-3.29c-.9,0-1.68.32-2.33.96s-.97,1.41-.97,2.3v16.44c0,.9.32,1.67.97,2.31.65.64,1.42.96,2.33.96,2.09-.1,3.19-1.19,3.29-3.26v-6.59h-3.29v-3.26Z" fill="#70e005" stroke="#000" stroke-miterlimit="10" stroke-width=".5"/>
    <path d="M61.46,150.52v23h-6.56v-3.29c-.26,2.2-1.36,3.29-3.29,3.29h-3.29c-1.8,0-3.34-.64-4.63-1.93-1.29-1.29-1.93-2.83-1.93-4.63v-16.44h6.56v16.44c0,.88.32,1.65.96,2.29.64.65,1.42.97,2.33.97s1.69-.32,2.33-.97c.64-.65.96-1.41.96-2.29v-16.44h6.56Z" fill="#70e005" stroke="#000" stroke-miterlimit="10" stroke-width=".5"/>
    <path d="M74.58,173.53h-6.56v-23h6.56v6.59c.26-2.2.93-3.84,2.03-4.94s2.62-1.65,4.56-1.65h3.26v6.59h-6.56c-.9,0-1.68.32-2.33.96s-.97,1.41-.97,2.3v13.15Z" fill="#70e005" stroke="#000" stroke-miterlimit="10" stroke-width=".5"/>
    <path d="M87.73,173.53v-29.56h6.56v14.78l9.85-8.22h6.59l-13.77,11.52,13.77,11.49h-6.59l-9.85-8.22v8.22h-6.56Z" fill="#70e005" stroke="#000" stroke-miterlimit="10" stroke-width=".5"/>
    <path d="M113.99,147.26v-3.29h6.56v3.29h-6.56ZM113.99,173.53v-23h6.56v23h-6.56Z" fill="#70e005" stroke="#000" stroke-miterlimit="10" stroke-width=".5"/>
    <path d="M127.14,173.53v-23h6.56v3.3c.13-1.11.47-1.93,1.02-2.48.55-.54,1.31-.82,2.27-.82h3.29c1.8,0,3.34.65,4.63,1.95,1.29,1.3,1.93,2.85,1.93,4.64v16.41h-6.56v-16.41c0-.9-.33-1.68-.98-2.33-.65-.65-1.42-.97-2.32-.97s-1.68.32-2.33.97-.97,1.42-.97,2.33v16.41h-6.56Z" fill="#70e005" stroke="#000" stroke-miterlimit="10" stroke-width=".5"/>
    <path d="M179.45,150.52h-3.26c-.29-2.2-1.32-3.29-3.11-3.29-1.15,0-2.02.28-2.6.83-.58.55-.88,1.38-.88,2.48,0,.82.32,1.59.97,2.31l6.96,7.82c1.28,1.44,1.92,2.98,1.92,4.63v1.66c0,1.78-.64,3.31-1.92,4.61-1.28,1.3-2.83,1.95-4.63,1.95h-3.29c-2.18,0-3.81-.55-4.91-1.65s-1.65-2.74-1.65-4.91h3.29c-.02.23-.03.41-.03.54,0,.89.34,1.57,1.03,2.03s1.44.69,2.26.69c1.17,0,2.01-.28,2.52-.85.51-.56.77-1.39.77-2.46,0-.83-.32-1.6-.97-2.31l-6.96-7.79c-1.28-1.43-1.92-2.97-1.92-4.63v-1.66c0-1.79.64-3.33,1.92-4.62s2.83-1.94,4.63-1.94h3.29c4.11,0,6.29,2.19,6.56,6.56Z" fill="#70e005" stroke="#000" stroke-miterlimit="10" stroke-width=".5"/>
    <path d="M186.04,173.53v-29.56h6.56v9.85c.13-1.11.47-1.93,1.02-2.48.55-.54,1.31-.82,2.27-.82h3.29c1.8,0,3.34.65,4.63,1.95,1.29,1.3,1.93,2.85,1.93,4.64v16.41h-6.56v-16.41c0-.9-.33-1.68-.98-2.33-.65-.65-1.42-.97-2.32-.97s-1.68.32-2.33.97-.97,1.42-.97,2.33v16.41h-6.56Z" fill="#70e005" stroke="#000" stroke-miterlimit="10" stroke-width=".5"/>
    <path d="M225.45,160.38v-3.26c0-.9-.33-1.68-.98-2.33-.65-.65-1.42-.97-2.32-.97h-3.29c-1.94,0-3.03,1.1-3.26,3.29h-3.29c.5-4.39,2.69-6.59,6.56-6.59h6.59c1.8,0,3.34.65,4.63,1.95,1.29,1.3,1.93,2.85,1.93,4.64v16.41h-6.56v-3.29c-.26,2.2-1.36,3.29-3.29,3.29h-3.29c-1.8,0-3.34-.64-4.63-1.93-1.29-1.29-1.93-2.83-1.93-4.63v-.03c0-1.8.65-3.34,1.94-4.63,1.29-1.29,2.83-1.93,4.62-1.93h6.59ZM225.45,163.67h-3.29c-.9,0-1.68.32-2.33.96s-.97,1.41-.97,2.3v.03c0,.88.32,1.65.96,2.29.64.65,1.42.97,2.33.97s1.69-.32,2.33-.97c.64-.65.96-1.41.96-2.29v-3.29Z" fill="#70e005" stroke="#000" stroke-miterlimit="10" stroke-width=".5"/>
    <path d="M238.57,173.53v-29.56h6.56v14.78l9.85-8.22h6.59l-13.77,11.52,13.77,11.49h-6.59l-9.85-8.22v8.22h-6.56Z" fill="#70e005" stroke="#000" stroke-miterlimit="10" stroke-width=".5"/>
    <path d="M284.55,163.67h-13.15v3.29c0,.88.32,1.65.96,2.29.64.65,1.42.97,2.33.97h3.29c2.18,0,3.26-1.09,3.26-3.26h3.29c-.51,4.37-2.7,6.56-6.56,6.56h-6.59c-1.8,0-3.34-.64-4.63-1.93-1.29-1.29-1.93-2.83-1.93-4.63v-9.85c0-1.82.65-3.37,1.94-4.66,1.29-1.29,2.83-1.93,4.62-1.93h6.59c1.8,0,3.34.65,4.63,1.95,1.29,1.3,1.93,2.85,1.93,4.64v6.56ZM271.4,160.38h6.59v-3.26c0-.9-.33-1.68-.98-2.33-.65-.65-1.42-.97-2.32-.97s-1.68.32-2.33.97-.97,1.42-.97,2.33v3.26Z" fill="#70e005" stroke="#000" stroke-miterlimit="10" stroke-width=".5"/>
    <path d="M117.17,220.83v-29.56h6.56v13.15h6.59v-13.15h6.56v29.56h-6.56v-13.15h-6.59v13.15h-6.56Z" fill="#70e005" stroke="#000" stroke-miterlimit="10" stroke-width=".5"/>
    <path d="M163.15,197.83v23h-6.56v-3.29c-.26,2.2-1.36,3.29-3.29,3.29h-3.29c-1.8,0-3.34-.64-4.63-1.93-1.29-1.29-1.93-2.83-1.93-4.63v-16.44h6.56v16.44c0,.88.32,1.65.96,2.29.64.65,1.42.97,2.33.97s1.69-.32,2.33-.97c.64-.65.96-1.41.96-2.29v-16.44h6.56Z" fill="#70e005" stroke="#000" stroke-miterlimit="10" stroke-width=".5"/>
    <path d="M173,191.27h6.56v6.56h3.29v3.29h-3.29v13.15c0,1.06.35,1.87,1.05,2.43s1.34.84,1.94.84h.31v3.29h-3.29c-1.81,0-3.35-.64-4.63-1.93-1.28-1.29-1.92-2.83-1.92-4.63v-13.15h-3.29v-3.29h3.29v-6.56Z" fill="#70e005" stroke="#000" stroke-miterlimit="10" stroke-width=".5"/>
  </g>
  <g>
    <path d="M154.85,100.49c5.17,5.6,6.53,5.96,10.02,10.68,3.02,4.08,5.81,7.86,4.58,9.89-1.38,2.29-7.44,1.63-11.83-.34-4.64-2.09-5.08-4.59-11.2-11.31-8.58-9.41-13.25-10.57-13.6-15.99-.2-3.07,1.04-6.88,3.43-7.74,1.37-.49,3.07.01,6.66,2.67,5.26,3.89,7.03,6.81,11.94,12.13Z" fill="#70e005" stroke="#000" stroke-miterlimit="10" stroke-width=".5"/>
    <path d="M134.7,93.54c.67.71,1.92.61,2.81-.23" fill="none" stroke="#006837" stroke-miterlimit="10" stroke-width=".25"/>
    <path d="M142.63,102c.67.71,1.92.61,2.81-.23" fill="none" stroke="#006837" stroke-miterlimit="10" stroke-width=".25"/>
    <path d="M142.89,95.27c.92-.31,1.36-1.49.97-2.65" fill="none" stroke="#006837" stroke-miterlimit="10" stroke-width=".25"/>
    <path d="M151.77,110.12c.67.71,1.92.61,2.81-.23" fill="none" stroke="#006837" stroke-miterlimit="10" stroke-width=".25"/>
    <path d="M159.03,110.25c.91-.34,1.3-1.54.88-2.68" fill="none" stroke="#006837" stroke-miterlimit="10" stroke-width=".25"/>
    <path d="M157.81,118.84c.67.71,1.92.61,2.81-.23" fill="none" stroke="#006837" stroke-miterlimit="10" stroke-width=".25"/>
    <path d="M164.72,117.87c.52-.22.61-1.18.2-2.15" fill="none" stroke="#006837" stroke-miterlimit="10" stroke-width=".25"/>
  </g>
</svg>