<?xml version="1.0" encoding="UTF-8"?>
<svg id="perogiHatLogo" xmlns="http://www.w3.org/2000/svg" xmlns:xlink="http://www.w3.org/1999/xlink" viewBox="0 0 400 300">
  <defs>
    <filter id="drop-shadow-1" x="210.98" y="47" width="164" height="135" filterUnits="userSpaceOnUse">
      <feOffset dx="7" dy="2"/>
      <feGaussianBlur result="blur" stdDeviation="5"/>
      <feFlood flood-color="#918600" flood-opacity="1"/>
      <feComposite in2="blur" operator="in"/>
      <feComposite in="SourceGraphic"/>
    </filter>
  </defs>
  <rect x="29.57" y="42.64" width="340.86" height="214.71" fill="#fcffc2" stroke="#000" stroke-miterlimit="10"/>
  <g>
    <path d="M156.25,123.25c18.15,0,35.82,6.72,51.1,19.44,14.41,11.99,25.8,28.57,33.11,48.13-27.18-10.07-55.31-15.18-83.69-15.18h-.75c-28.53.09-56.79,5.34-84.08,15.6,14.91-40.37,46.76-66.89,82.1-67.96.73-.02,1.47-.03,2.2-.03h0M156.24,121.25c-.75,0-1.51.01-2.26.03-37.3,1.12-70.87,29.96-85.36,73.38,20.41-8.08,50.52-16.91,87.41-17.02.25,0,.49,0,.74,0,36.7,0,66.68,8.65,87.03,16.58-14.95-44.23-49.64-72.98-87.55-72.97h0Z"/>
    <g>
      <path d="M60.05,206.87v5.65c0,.95.07,1.64.2,2.07s.38.82.75,1.18c.68.6,1.66.98,2.94,1.14v.5h-10.9v-.5c1.18-.19,2.04-.64,2.58-1.33.42-.51.62-1.53.62-3.06v-12.09c0-.97-.05-1.68-.16-2.11-.11-.44-.31-.81-.61-1.12-.52-.57-1.33-.95-2.43-1.15v-.5c.16.01.3.02.41.02l1.44.08c.58.03,1.25.05,2.02.05,1.21,0,2.31-.05,3.3-.14l2.3-.19c.74-.06,1.46-.1,2.13-.1,2.55,0,4.55.5,6,1.51,1.45,1.01,2.17,2.4,2.17,4.17,0,1.05-.27,2.01-.82,2.9-.55.89-1.29,1.57-2.23,2.05-1.32.65-3.32.98-5.99.98h-3.73ZM55.34,216.59h4.79l-.64-.46c-.37-.27-.61-.48-.71-.64s-.16-.4-.16-.72c0-.17,0-.29,0-.34,0-.06,0-.12,0-.18v-15.52c0-.06,0-.13,0-.19,0-.06,0-.18,0-.34,0-.3.05-.53.14-.69s.3-.36.62-.59l.11-.08.92-.69-.59.03c-1,.06-1.89.1-2.69.1-.49,0-1.17-.02-2.02-.05l.87.61c.36.24.6.44.71.62.11.18.16.42.16.75.01.18.02.36.02.53v15.52c0,.17,0,.35-.02.53,0,.33-.05.57-.15.73-.1.16-.34.37-.72.63l-.64.46ZM60.05,206.18h2.69c1.74,0,3.06-.27,3.97-.82.68-.41,1.21-.99,1.58-1.76s.57-1.64.57-2.61c0-1.55-.48-2.78-1.43-3.7-.95-.92-2.22-1.38-3.81-1.38-.78,0-1.43.12-1.96.35-.53.24-.92.58-1.17,1.03-.3.51-.44,1.33-.44,2.45v6.44ZM66.45,206.14c1.55-.41,2.74-1.06,3.55-1.96.81-.9,1.22-2,1.22-3.29,0-.81-.19-1.55-.57-2.21s-.92-1.21-1.62-1.65c-.7-.44-1.54-.75-2.53-.93,1.98,1.01,2.97,2.64,2.97,4.87,0,1.22-.25,2.25-.75,3.11-.5.85-1.26,1.54-2.26,2.07Z" stroke="#000" stroke-miterlimit="10" stroke-width=".25"/>
      <path d="M77.71,209.95v.35c0,1.27.19,2.38.57,3.34.38.96.93,1.7,1.63,2.22.71.52,1.53.79,2.49.79.5,0,1.01-.08,1.52-.25.51-.17,1.01-.4,1.51-.71s1.06-.75,1.68-1.31l.33.43c-1.13,1.07-2.2,1.83-3.21,2.29-1.01.46-2.14.69-3.39.69s-2.47-.28-3.5-.83c-1.03-.55-1.84-1.34-2.4-2.35-.57-1.01-.85-2.16-.85-3.43,0-1.33.31-2.56.94-3.67.63-1.11,1.49-1.98,2.58-2.61,1.09-.63,2.31-.94,3.65-.94,1.15,0,2.2.23,3.16.69s1.7,1.1,2.24,1.94c.57.85.89,1.98.95,3.38h-9.9ZM81.55,217.3c-.78-.1-1.4-.24-1.87-.43-.47-.19-.93-.49-1.38-.9-.67-.6-1.19-1.39-1.56-2.36-.37-.98-.56-2.04-.56-3.2,0-.8.08-1.54.24-2.21s.4-1.28.74-1.81c.33-.53.79-1.04,1.35-1.52-1.25.66-2.21,1.54-2.87,2.63-.67,1.09-1,2.31-1,3.65,0,1.15.27,2.2.8,3.15.54.95,1.28,1.68,2.24,2.22.96.53,2.02.8,3.18.8.26,0,.49,0,.69-.02ZM77.71,209.39h6.55c-.01-1.44-.16-2.48-.44-3.11-.25-.58-.61-1.02-1.08-1.34-.47-.32-1-.47-1.58-.47-2.1,0-3.25,1.64-3.45,4.92ZM86.25,209.39c-.03-.79-.18-1.51-.44-2.15-.26-.64-.63-1.18-1.09-1.63-.46-.44-1.01-.76-1.65-.95.63.49,1.09,1.07,1.37,1.75s.42,1.52.42,2.53c0,.17,0,.32-.02.45h1.41Z" stroke="#000" stroke-miterlimit="10" stroke-width=".25"/>
      <path d="M94.55,207.15c.63-1.2,1.21-2.03,1.71-2.51.51-.47,1.1-.71,1.76-.71.83,0,1.53.32,2.08.96s.84,1.44.84,2.39c0,.61-.13,1.08-.39,1.41-.26.33-.62.5-1.09.5-.4,0-.73-.13-.98-.4-.25-.27-.38-.61-.38-1.02,0-.19.03-.41.08-.64l.15-.61c.09-.37.13-.71.13-.99s-.08-.52-.24-.68c-.16-.17-.37-.25-.63-.25-.31,0-.61.11-.9.34s-.61.6-.94,1.11-.74,1.21-1.21,2.12v6.18c0,.89.16,1.52.48,1.89.32.37.92.62,1.78.75v.43h-7.55v-.43c.74-.13,1.25-.38,1.53-.74.27-.37.41-1,.41-1.9v-6.73c0-.9-.14-1.53-.42-1.91-.28-.38-.79-.62-1.52-.73v-.35l5.28-.59v3.12ZM90.91,216.71h3.28l-.39-.29s-.04-.04-.07-.05l-.21-.16c-.15-.15-.24-.35-.25-.61v-10.91l-2.69.29.64.45s.03.02.07.05l.21.16c.11.08.18.18.21.33.03.14.05.4.05.76v8.39c0,.44-.02.71-.07.82-.04.11-.17.25-.39.43-.03.02-.05.04-.05.05l-.34.29ZM98.56,204.63c.25.33.38.69.38,1.07,0,.33-.06.74-.18,1.22-.11.46-.16.76-.16.91,0,.45.19.67.56.67.47,0,.71-.43.71-1.3,0-1.1-.43-1.96-1.3-2.58Z" stroke="#000" stroke-miterlimit="10" stroke-width=".25"/>
      <path d="M101.58,210.84c0-1.24.34-2.39,1.03-3.45.68-1.06,1.61-1.9,2.77-2.51s2.44-.92,3.83-.92c1.04,0,2.02.17,2.94.52s1.73.84,2.43,1.47c.7.63,1.24,1.38,1.63,2.23.39.85.58,1.74.58,2.67,0,1.23-.34,2.38-1.01,3.44s-1.59,1.91-2.76,2.52-2.43.92-3.8.92-2.67-.3-3.84-.91c-1.17-.61-2.1-1.44-2.78-2.51-.68-1.06-1.03-2.22-1.03-3.47ZM106.43,216.82c-.53-.41-.88-.71-1.08-.9-.19-.2-.4-.46-.62-.79-.7-1.11-1.05-2.54-1.05-4.29,0-2.9,1.01-4.94,3.04-6.12-.92.33-1.73.81-2.42,1.44s-1.23,1.34-1.61,2.15-.57,1.65-.57,2.55.19,1.72.56,2.53.89,1.51,1.56,2.1c.36.29.65.5.87.64.22.14.66.37,1.31.7ZM105.17,210.75c0,.93.1,1.78.29,2.56s.47,1.44.83,1.99c.36.55.79.97,1.29,1.27.5.3,1.04.45,1.63.45s1.12-.15,1.62-.46c.5-.3.93-.73,1.28-1.27.35-.54.62-1.2.81-1.99s.29-1.64.29-2.56c0-1.23-.17-2.32-.5-3.27-.33-.95-.8-1.69-1.41-2.21-.61-.52-1.31-.79-2.11-.79-1.21,0-2.19.58-2.92,1.73-.73,1.15-1.1,2.66-1.1,4.53ZM110.87,217.08c1.44-.62,2.55-1.47,3.31-2.54.76-1.07,1.14-2.3,1.14-3.69s-.37-2.69-1.11-3.8c-.74-1.11-1.72-1.89-2.95-2.35,1.67,1.2,2.51,3.23,2.51,6.1,0,1.45-.21,2.66-.63,3.64s-1.09,1.79-2.01,2.45l-.26.19Z" stroke="#000" stroke-miterlimit="10" stroke-width=".25"/>
      <path d="M122.29,213.33c-.42.41-.69.71-.83.92-.14.21-.21.45-.21.71,0,.49.35.78,1.05.88.35.04.86.06,1.54.06h3.12c1.67,0,2.87.17,3.58.5.49.23.92.55,1.28.94.36.39.64.84.83,1.34.19.5.29,1.04.29,1.62,0,1.16-.33,2.2-1,3.12-.67.91-1.61,1.62-2.83,2.12-1.22.5-2.6.75-4.13.75-2.07,0-3.74-.4-5.01-1.19-1.27-.79-1.9-1.83-1.9-3.11,0-.67.17-1.28.52-1.82s.94-1.11,1.76-1.71c-.38-.35-.65-.67-.8-.95-.15-.28-.22-.61-.22-.97s.06-.67.17-.96c.11-.29.33-.61.66-.96.32-.35.79-.79,1.4-1.33l.26-.22c-.93-.52-1.61-1.12-2.04-1.78s-.65-1.43-.65-2.31c0-.93.25-1.77.74-2.51.49-.75,1.18-1.34,2.08-1.78.89-.44,1.94-.69,3.14-.75.25-1.08.62-1.85,1.09-2.32s1.12-.71,1.93-.71c.48,0,.94.09,1.39.28.44.19.8.44,1.06.75.26.31.39.64.39.99s-.11.63-.34.86-.5.34-.83.34c-.25,0-.5-.07-.74-.22s-.43-.34-.56-.56l-.25-.46c-.27-.51-.64-.77-1.1-.77-.77,0-1.26.61-1.49,1.83.86.03,1.65.18,2.37.45.72.27,1.34.62,1.87,1.05s.94.95,1.22,1.54c.28.59.43,1.23.43,1.91,0,.91-.28,1.77-.83,2.58-.55.81-1.29,1.45-2.21,1.92s-1.92.7-3,.7c-.98,0-2.06-.26-3.22-.77ZM121.02,218.9c-.96.82-1.44,1.74-1.44,2.75,0,.75.24,1.42.71,2.03.48.6,1.14,1.07,2,1.41.86.34,1.83.5,2.91.5.84,0,1.64-.11,2.39-.34.75-.22,1.4-.53,1.95-.92.55-.39.98-.84,1.28-1.35.3-.51.45-1.05.45-1.64,0-.67-.22-1.2-.66-1.59-.44-.39-1.05-.59-1.81-.6l-1.26-.05h-3.61c-.54,0-1.03-.02-1.49-.05-.5-.01-.97-.06-1.41-.16ZM122.8,213.09c-1.17-1.03-1.76-2.38-1.76-4.07,0-1.81.77-3.28,2.3-4.4-1.13.32-2.02.88-2.67,1.67-.66.79-.98,1.7-.98,2.72,0,.87.27,1.65.8,2.35.54.7,1.31,1.28,2.31,1.74ZM131.38,222.81c.51-.72.77-1.43.77-2.13,0-.92-.27-1.69-.8-2.31-.4-.47-.88-.8-1.42-.99-.54-.19-1.28-.28-2.22-.28l-2.26-.02-1.87-.02c-.81,0-1.44-.05-1.9-.14s-.78-.24-.95-.46c-.17-.21-.26-.52-.26-.93,0-.18.07-.44.2-.77-.33.35-.54.64-.65.87s-.16.5-.16.82c0,.42.1.78.3,1.09.2.31.5.55.89.72.24.1.57.16,1,.19.43.03,1.13.05,2.1.05l2.18.02c1.4,0,2.38.03,2.93.1.55.06.99.2,1.3.42.8.5,1.2,1.22,1.2,2.16,0,.43-.13.96-.38,1.6ZM128.25,208.83c0-1.38-.25-2.46-.75-3.24s-1.19-1.17-2.05-1.17c-.91,0-1.63.42-2.17,1.25s-.81,1.94-.81,3.33.27,2.42.8,3.24,1.23,1.22,2.11,1.22,1.6-.42,2.12-1.25.77-1.96.77-3.38ZM127.23,213.18c.96-.43,1.69-.99,2.18-1.69.49-.7.74-1.52.74-2.46,0-1-.27-1.89-.8-2.67-.53-.77-1.23-1.33-2.11-1.66.55.48.94,1.04,1.17,1.68.23.64.34,1.44.34,2.39,0,1.03-.12,1.87-.35,2.55-.24.67-.63,1.29-1.17,1.86ZM127.33,201.64c.37.13.66.28.85.45.2.17.38.42.56.75.19.29.33.48.43.58s.23.15.39.15c.31,0,.46-.15.46-.46,0-.25-.11-.49-.32-.72-.21-.24-.49-.43-.83-.58-.34-.15-.69-.22-1.05-.22-.11,0-.27.02-.49.05Z" stroke="#000" stroke-miterlimit="10" stroke-width=".25"/>
      <path d="M133.91,217.41v-.43c.74-.13,1.25-.38,1.53-.74.27-.37.41-1,.41-1.9v-6.73c0-.9-.14-1.53-.42-1.91-.28-.38-.79-.62-1.52-.73v-.35l5.28-.59v10.31c0,.89.13,1.52.4,1.89.27.37.77.62,1.52.75v.43h-7.2ZM135.55,216.71h3.28l-.39-.29s-.04-.04-.07-.05l-.21-.16c-.15-.15-.24-.35-.25-.61v-10.91l-2.69.29.64.45s.03.02.07.05l.21.16c.11.08.18.18.21.33.03.14.05.4.05.76v8.39c0,.44-.02.71-.07.82-.04.11-.17.25-.39.43-.03.02-.05.04-.05.05l-.34.29ZM135.4,199.65c0-.53.19-.99.56-1.36.37-.37.84-.56,1.4-.56s1.02.19,1.4.56c.37.37.56.83.56,1.36s-.19,1-.56,1.36c-.37.36-.84.54-1.4.54s-1.02-.18-1.4-.54c-.37-.36-.56-.82-.56-1.36ZM137.27,198.16c-.38.02-.71.18-.99.47-.28.29-.42.63-.42,1.02s.14.73.43,1.03c.28.3.61.45.98.45.24,0,.36-.12.36-.37.01-.19.02-.58.02-1.17s0-.93-.02-1.09c-.01-.21-.13-.33-.36-.34Z" stroke="#000" stroke-miterlimit="10" stroke-width=".25"/>
      <path d="M153.72,217.41v-.5c1.18-.19,2.04-.64,2.58-1.33.42-.51.62-1.53.62-3.06v-12.09c0-.97-.05-1.68-.16-2.11-.11-.44-.31-.81-.61-1.12-.55-.6-1.36-.98-2.43-1.15v-.5h10.22v.5c-1.18.19-2.05.64-2.59,1.33-.22.28-.38.65-.48,1.11-.1.46-.15,1.11-.15,1.95v5.35h11.54v-5.35c0-.97-.05-1.68-.16-2.11-.11-.44-.31-.81-.61-1.12-.55-.6-1.36-.98-2.43-1.15v-.5h10.22v.5c-1.18.19-2.05.64-2.59,1.33-.22.28-.38.65-.48,1.11-.1.46-.15,1.11-.15,1.95v12.09c0,.91.06,1.59.17,2.06.11.46.32.86.62,1.18.55.6,1.36.98,2.43,1.15v.5h-10.22v-.5c1.18-.19,2.04-.64,2.58-1.33.42-.51.62-1.53.62-3.06v-6.01h-11.54v6.01c0,.91.06,1.59.17,2.06.11.46.32.86.62,1.18.55.6,1.36.98,2.43,1.15v.5h-10.22ZM156.01,216.59h4.79l-.64-.46c-.37-.27-.61-.48-.71-.64s-.16-.4-.16-.72c0-.17,0-.29,0-.34,0-.06,0-.12,0-.18v-15.52c0-.06,0-.13,0-.19,0-.06,0-.18,0-.34,0-.32.05-.56.16-.72s.34-.37.71-.64l.94-.67h-5.38l.94.67c.37.27.61.48.71.64s.16.4.16.72c.01.18.02.36.02.53v15.52c0,.17,0,.35-.02.53,0,.33-.05.57-.15.73-.1.16-.34.37-.72.63l-.64.46ZM171.36,216.59h4.79l-.64-.46c-.37-.27-.61-.48-.71-.64s-.16-.4-.16-.72,0-.49-.02-.53v-15.52c.01-.05.02-.23.02-.53,0-.32.05-.56.16-.72s.34-.37.71-.64l.94-.67h-5.38l.94.67c.37.27.61.48.71.64s.16.4.16.72c.01.18.02.36.02.53v15.52c0,.17,0,.35-.02.53,0,.33-.05.57-.15.73-.1.16-.34.37-.72.63l-.64.46Z" stroke="#000" stroke-miterlimit="10" stroke-width=".25"/>
      <path d="M189.45,215.92c-1.35,1.11-2.79,1.67-4.33,1.67-1.24,0-2.22-.31-2.96-.94-.74-.62-1.11-1.44-1.11-2.46,0-1.44.72-2.57,2.17-3.4,1.44-.82,3.52-1.29,6.24-1.39v-.67c0-.83-.04-1.51-.11-2.04-.08-.53-.19-.93-.33-1.19-.16-.31-.4-.56-.7-.74-.3-.19-.63-.28-.98-.28-.51,0-.92.16-1.21.49-.3.33-.48.83-.56,1.51-.09.67-.23,1.13-.43,1.37s-.54.36-1.02.36c-.37,0-.68-.13-.94-.38-.25-.26-.38-.59-.38-.99,0-.54.2-1.04.61-1.48.4-.44.97-.79,1.68-1.05.72-.26,1.5-.38,2.35-.38,1.1,0,2.07.22,2.91.65.83.43,1.45,1.03,1.85,1.8.22.4.37.84.47,1.33.09.49.14,1.17.14,2.03v4.61c0,.89.13,1.52.4,1.89.27.37.77.62,1.52.75v.43h-5.28v-1.49ZM185.84,217.14c-1.86-.37-2.79-1.37-2.79-2.98,0-1.05.43-1.94,1.3-2.69.38-.33,1.12-.75,2.22-1.27-1.32.25-2.35.58-3.09,1.01-1.25.75-1.87,1.74-1.87,2.96,0,.89.33,1.6.99,2.15s1.52.83,2.57.83c.25,0,.48,0,.67-.02ZM185.84,204.49c-.77.19-1.38.5-1.85.94-.47.43-.7.92-.7,1.45,0,.2.05.36.15.48s.23.18.39.18c.15,0,.27-.04.34-.14.08-.09.14-.28.2-.55.12-.6.28-1.05.47-1.35.19-.3.52-.64.99-1ZM189.45,215.22v-5.3c-1.06.16-1.97.43-2.73.8-.76.37-1.34.85-1.75,1.42-.4.58-.61,1.21-.61,1.91s.22,1.29.65,1.75c.43.46.98.7,1.63.7.81,0,1.75-.43,2.81-1.28ZM190,216.71h2.43l-.38-.29s-.05-.05-.07-.05l-.21-.16c-.16-.16-.25-.36-.25-.61v-.32l-.02-.16v-5.45c0-1.48-.18-2.59-.52-3.33-.49-.98-1.26-1.61-2.31-1.89.7.48,1.11,1.24,1.23,2.29.07.64.1,1.63.1,2.98v6.98Z" stroke="#000" stroke-miterlimit="10" stroke-width=".25"/>
      <path d="M200.62,204.77v8.49c0,.83.05,1.5.16,2.01.1.51.27.88.49,1.11.22.24.52.35.89.35.67,0,1.49-.38,2.46-1.15l.25.38c-.73.62-1.4,1.07-2,1.35-.6.28-1.22.42-1.85.42-1.23,0-2.16-.4-2.8-1.19-.64-.79-.96-1.95-.96-3.47v-8.34h-1.51v-.38c.82-.11,1.54-.4,2.15-.87.61-.47,1.11-1.12,1.49-1.95.38-.83.65-1.84.81-3.05h.41v5.81h3.59v.48h-3.58ZM199.33,202.71c-.38.62-.89,1.1-1.51,1.46v8.54c0,.61.03,1.15.08,1.61.05.46.14.83.25,1.11.11.28.29.55.52.82.61.69,1.41,1.04,2.38,1.04.17,0,.33,0,.46-.02-.48-.11-.86-.25-1.12-.42s-.48-.42-.63-.75c-.15-.33-.26-.77-.33-1.34-.07-.57-.1-1.27-.1-2.1v-9.96Z" stroke="#000" stroke-miterlimit="10" stroke-width=".25"/>
      <path d="M236.48,195.79l1.92,5.72h-.56c-.54-1.01-1.1-1.88-1.68-2.61-.58-.73-1.2-1.32-1.84-1.77-.64-.45-1.32-.79-2.04-1-.72-.21-1.54-.32-2.45-.32-1.29,0-2.49.24-3.61.72-1.12.48-2.08,1.16-2.91,2.03-.82.88-1.46,1.91-1.91,3.11-.45,1.2-.68,2.48-.68,3.86,0,2.08.42,3.98,1.26,5.69.84,1.71,2,3.06,3.47,4.04,1.47.98,3.1,1.47,4.9,1.47,1.24,0,2.39-.24,3.47-.71s2.04-1.15,2.88-2.03c.84-.89,1.58-2,2.2-3.35h.67c-.92,2.37-2.3,4.17-4.15,5.39-1.85,1.22-4.11,1.83-6.78,1.83-3.12,0-5.7-.82-7.75-2.47-.88-.72-1.61-1.53-2.21-2.43-.6-.91-1.05-1.9-1.37-2.99-.32-1.08-.48-2.2-.48-3.34,0-2.12.55-4.07,1.65-5.83s2.62-3.15,4.55-4.16c1.93-1.01,4.07-1.51,6.41-1.51.98,0,2.28.14,3.89.42,1.12.2,1.93.3,2.43.3.22,0,.45-.02.71-.06ZM228.03,217.32c-1.39-.37-2.65-.91-3.77-1.6-1.13-.69-2.07-1.52-2.82-2.48s-1.33-2.05-1.71-3.28c-.39-1.22-.58-2.55-.58-4,0-1.07.1-2.03.3-2.88.2-.85.52-1.67.96-2.44.44-.77,1-1.49,1.68-2.15.68-.66,1.5-1.31,2.48-1.95-1.15.5-2.16,1.1-3.04,1.79s-1.61,1.46-2.22,2.32c-.6.86-1.06,1.8-1.36,2.82-.31,1.02-.46,2.08-.46,3.2,0,1.2.17,2.34.52,3.43s.85,2.09,1.49,3c.65.91,1.43,1.68,2.35,2.31.92.62,1.87,1.08,2.85,1.39.98.3,2.09.49,3.34.55Z" stroke="#000" stroke-miterlimit="10" stroke-width=".25"/>
      <path d="M240.87,210.84c0-1.24.34-2.39,1.03-3.45s1.61-1.9,2.77-2.51c1.17-.61,2.44-.92,3.83-.92,1.04,0,2.02.17,2.94.52s1.73.84,2.43,1.47c.7.63,1.25,1.38,1.63,2.23.39.85.58,1.74.58,2.67,0,1.23-.34,2.38-1.01,3.44s-1.59,1.91-2.76,2.52-2.43.92-3.8.92-2.67-.3-3.84-.91-2.1-1.44-2.78-2.51-1.03-2.22-1.03-3.47ZM245.72,216.82c-.52-.41-.88-.71-1.07-.9-.19-.2-.4-.46-.62-.79-.7-1.11-1.05-2.54-1.05-4.29,0-2.9,1.01-4.94,3.04-6.12-.92.33-1.73.81-2.42,1.44-.7.63-1.23,1.34-1.61,2.15-.38.8-.57,1.65-.57,2.55s.19,1.72.56,2.53c.37.81.89,1.51,1.56,2.1.36.29.65.5.87.64s.66.37,1.31.7ZM244.46,210.75c0,.93.1,1.78.29,2.56.19.78.47,1.44.83,1.99.36.55.79.97,1.29,1.27.5.3,1.04.45,1.63.45s1.12-.15,1.62-.46c.5-.3.93-.73,1.28-1.27.35-.54.62-1.2.81-1.99s.29-1.64.29-2.56c0-1.23-.17-2.32-.5-3.27-.33-.95-.8-1.69-1.41-2.21-.61-.52-1.31-.79-2.11-.79-1.21,0-2.19.58-2.92,1.73-.73,1.15-1.1,2.66-1.1,4.53ZM250.15,217.08c1.44-.62,2.55-1.47,3.31-2.54.76-1.07,1.14-2.3,1.14-3.69s-.37-2.69-1.11-3.8-1.72-1.89-2.95-2.35c1.67,1.2,2.51,3.23,2.51,6.1,0,1.45-.21,2.66-.63,3.64-.42.97-1.09,1.79-2.01,2.45l-.26.19Z" stroke="#000" stroke-miterlimit="10" stroke-width=".25"/>
      <path d="M258.57,215.62c0-.38.09-.73.28-1.04.19-.31.44-.55.75-.74s.67-.27,1.07-.27.75.09,1.07.27.57.43.75.74c.19.31.28.66.28,1.04s-.09.73-.28,1.04c-.19.31-.44.56-.75.74-.32.18-.67.27-1.07.27s-.75-.09-1.07-.27c-.32-.18-.57-.43-.75-.74-.19-.31-.28-.66-.28-1.04ZM260.97,216.8v-2.37c0-.27-.13-.4-.39-.4-.38,0-.72.16-1.02.48-.3.32-.44.69-.44,1.1s.15.79.45,1.11.64.48,1.01.48c.26,0,.39-.13.39-.4Z" stroke="#000" stroke-miterlimit="10" stroke-width=".25"/>
    </g>
    <path d="M103.2,93.92c4.79,3.4,5.66,5.87,5.45,7.55-.47,3.8-6.57,4.85-6.57,8.36,0,3.09,4.75,3.65,5.13,7.15.42,3.86-5.08,5.59-5.35,10.16-.18,2.99,1.99,5.54,3.74,7.17" fill="none" stroke="#000" stroke-miterlimit="10"/>
    <path d="M136.96,77.42c4.79,3.4,5.66,5.87,5.45,7.55-.47,3.8-6.57,4.85-6.57,8.36,0,3.09,4.75,3.65,5.13,7.15.42,3.86-5.08,5.59-5.35,10.16-.18,2.99,1.99,5.54,3.74,7.17" fill="none" stroke="#000" stroke-miterlimit="10"/>
    <path d="M175.54,75.86c4.79,3.4,5.66,5.87,5.45,7.55-.47,3.8-6.57,4.85-6.57,8.36,0,3.09,4.75,3.65,5.13,7.15.42,3.86-5.08,5.59-5.35,10.16-.18,2.99,1.99,5.54,3.74,7.17" fill="none" stroke="#000" stroke-miterlimit="10"/>
    <path d="M207.02,93.87c4.7,3.52,5.51,6,5.26,7.68-.56,3.79-6.69,4.69-6.78,8.2-.08,3.09,4.65,3.76,4.95,7.27.33,3.87-5.22,5.47-5.6,10.03-.25,2.99,1.85,5.59,3.56,7.26" fill="none" stroke="#000" stroke-miterlimit="10"/>
    <path d="M104.77,155.17c3.79-3.7,21.32-20.03,49.1-20.86,30.96-.93,50.78,18.09,54.01,21.3" fill="none" stroke="#000" stroke-miterlimit="10" stroke-width=".75"/>
  </g>
  <g filter="url(#drop-shadow-1)">
    <path d="M351.89,123.9c-37.63,13.45-75.25,26.91-112.88,40.36-5.65-4.18-11.3-8.35-16.95-12.53-.88-1.89-1.77-3.79-2.65-5.68.03-5.26.05-10.53.08-15.79,33.49-22.91,66.99-45.83,100.48-68.74l31.92,62.39Z" fill="#ff0" opacity=".95" stroke="#000" stroke-miterlimit="10" stroke-width=".75"/>
    <g>
      <path d="M234.93,152.98c-1.24.53-2.35.74-3.35.64-1-.1-1.65-.46-1.96-1.1-.16-.32-.19-.67-.1-1.04s.34-.66.76-.86c.59-.29,1.2-.17,1.85.36.78.64,1.5.86,2.17.68l-2.48-5.08c-1.99.1-3.42-.11-4.29-.64-.88-.53-1.51-1.19-1.89-1.98-.46-.95-.56-1.99-.28-3.1s1.03-2.07,2.27-2.89l-.36-.74,1.28-.63.33.68c1.09-.53,2.19-.72,3.32-.57,1.12.15,1.86.58,2.21,1.3.17.36.2.72.07,1.09-.13.37-.35.63-.66.78-.62.3-1.37.02-2.25-.84-.59-.58-1.28-.76-2.08-.53l2.06,4.23c2.26-.14,3.9.02,4.91.5,1.01.47,1.75,1.2,2.23,2.19.54,1.11.62,2.29.24,3.56-.38,1.26-1.29,2.36-2.73,3.31l1.33,2.74-1.29.63-1.31-2.69ZM229.98,142.84l-1.78-3.66c-.89.7-1.12,1.51-.67,2.43.41.85,1.23,1.26,2.45,1.24ZM233.4,146.58l2.19,4.49c.57-.39.96-.86,1.16-1.4.2-.54.16-1.1-.12-1.68-.2-.41-.5-.74-.9-.99-.4-.25-1.18-.39-2.33-.42Z"/>
      <path d="M242.95,148.67l-.52-1.06c2.24-5.61,2.61-9.96,1.12-13.02-.42-.87-.95-1.48-1.57-1.82-.62-.34-1.23-.37-1.84-.07-.5.24-.84.63-1.02,1.15-.18.53-.16,1.02.07,1.48.26.54.63.95,1.11,1.23.1.06.17.11.19.16.04.08-.01.2-.16.35-.1.1-.34.38-.72.82-.37.44-.61.68-.72.74-.13.07-.39-.07-.76-.4-.37-.33-.68-.73-.91-1.21-.53-1.09-.49-2.21.12-3.36.61-1.16,1.62-2.07,3.02-2.76,1.38-.67,2.72-.86,4.01-.57,1.3.29,2.24,1.04,2.83,2.25.35.71.53,1.48.54,2.31,0,.82-.24,2.23-.76,4.21-.52,1.98-1.06,3.84-1.62,5.58l6.4-3.12.99,3.47-1.18.58c-.03-.18-.08-.33-.14-.46-.11-.22-.23-.32-.37-.33-.14,0-.38.08-.71.24l-7.39,3.6Z"/>
      <path d="M254.99,140.8c-.27-.55-.3-1.12-.1-1.71.2-.59.58-1.02,1.14-1.29.56-.27,1.13-.31,1.72-.1.59.21,1.02.59,1.29,1.14.27.56.31,1.13.1,1.72-.21.59-.58,1.02-1.14,1.29-.55.27-1.12.3-1.71.1-.59-.2-1.02-.58-1.29-1.14Z"/>
      <path d="M258.75,131.48c-1.23-2.52-1.67-4.67-1.32-6.46s1.3-3.07,2.87-3.83c1.53-.74,3.11-.71,4.74.1,1.63.81,3.05,2.45,4.26,4.92,1.36,2.79,1.87,5.08,1.54,6.86-.34,1.78-1.29,3.06-2.87,3.82-1.12.54-2.27.67-3.45.38-1.19-.29-2.23-.89-3.13-1.81-.9-.92-1.78-2.25-2.62-3.98ZM262.51,129.67c1.18,2.42,2.12,4.09,2.81,5,.69.91,1.38,1.2,2.05.87.58-.28.78-.88.58-1.79-.19-.91-.96-2.74-2.29-5.49-1.27-2.61-2.23-4.3-2.88-5.07-.65-.77-1.28-1.01-1.9-.71-.55.27-.74.88-.56,1.83.18.95.91,2.74,2.19,5.37Z"/>
      <path d="M271.13,125.44c-1.23-2.52-1.67-4.67-1.32-6.46.34-1.79,1.3-3.07,2.87-3.83,1.53-.74,3.11-.71,4.74.1,1.63.81,3.05,2.45,4.26,4.92,1.36,2.79,1.87,5.08,1.54,6.86-.33,1.78-1.29,3.06-2.87,3.82-1.12.54-2.27.67-3.46.38-1.19-.29-2.23-.89-3.13-1.81-.9-.92-1.78-2.25-2.62-3.98ZM274.9,123.64c1.18,2.42,2.12,4.09,2.81,5,.69.91,1.38,1.2,2.06.87.58-.28.78-.88.58-1.79-.19-.91-.96-2.74-2.29-5.49-1.27-2.61-2.23-4.3-2.88-5.07-.65-.77-1.28-1.01-1.9-.71-.55.27-.74.88-.56,1.83.18.95.91,2.74,2.19,5.37Z"/>
      <path d="M289.47,116.58c-.66-1.36-.93-2.88-.8-4.54.13-1.67.69-3.13,1.69-4.38,1-1.26,2.24-2.24,3.72-2.97,2.67-1.3,5.13-1.55,7.4-.75,2.26.8,3.94,2.32,5.03,4.55,1.04,2.12,1.17,4.31.4,6.58-.77,2.26-2.45,4.03-5.05,5.29-1.78.87-3.54,1.26-5.27,1.17-1.73-.09-3.2-.62-4.4-1.61-1.2-.99-2.1-2.1-2.71-3.34ZM294.08,114.18c1.14,2.33,2.27,3.86,3.4,4.59,1.13.73,2.31.79,3.55.19,1.29-.63,2.03-1.57,2.23-2.83.2-1.26-.28-3.07-1.43-5.43-1.05-2.16-2.15-3.62-3.28-4.39s-2.37-.82-3.71-.17c-1.27.62-1.97,1.57-2.11,2.87-.14,1.29.31,3.02,1.36,5.18Z"/>
      <path d="M314.23,105l2.01,4.13c.34.69.69,1.12,1.06,1.27.37.15.93.05,1.68-.32l.31-.15.6,1.24-8.15,3.97-.6-1.24.22-.11c.75-.37,1.17-.74,1.26-1.13.09-.39-.03-.92-.36-1.6l-4.38-8.98c-.34-.69-.69-1.12-1.06-1.27-.37-.16-.92-.06-1.66.3l-.27.13-.59-1.22,12.7-6.19,2.05,3.96-1.26.62c-.52-.59-1.03-1.03-1.53-1.32-.5-.28-.93-.41-1.31-.39-.37.03-.88.2-1.52.51l-2.45,1.19,2.55,5.23,1.2-.58c.57-.28.9-.59,1-.94.1-.35,0-.91-.32-1.69l1.25-.61,2.54,5.2-1.25.61c-.43-.79-.82-1.26-1.17-1.41s-.82-.08-1.41.21l-1.17.57Z"/>
      <path d="M327.57,98.49l2.01,4.13c.34.69.69,1.12,1.06,1.27.37.15.93.05,1.68-.32l.31-.15.6,1.24-8.15,3.97-.6-1.24.22-.11c.75-.37,1.17-.74,1.26-1.13s-.03-.92-.36-1.6l-4.38-8.98c-.34-.69-.69-1.12-1.06-1.27-.37-.16-.92-.06-1.66.3l-.27.13-.59-1.22,12.7-6.19,2.05,3.96-1.26.61c-.52-.59-1.03-1.03-1.53-1.32-.5-.28-.93-.41-1.31-.39s-.88.19-1.52.51l-2.45,1.19,2.55,5.23,1.2-.58c.57-.28.9-.59,1-.94.1-.35,0-.91-.32-1.69l1.25-.61,2.54,5.2-1.25.61c-.43-.79-.82-1.26-1.17-1.41-.35-.15-.82-.08-1.41.21l-1.17.57Z"/>
    </g>
  </g>
  <g>
    <path d="M288.19,144.58l-.14.05-2.57-3.03.15,3.91-.15.05-2.23-2.93c-.2-.27-.34-.44-.42-.53-.08-.08-.16-.14-.24-.16-.08-.02-.2,0-.36.04l-.05-.14,1.59-.58.05.14c-.19.08-.3.15-.34.22-.04.06-.04.13-.02.21.02.07.13.23.32.48l1.66,2.19-.13-3.81.17-.06,2.49,2.95-.17-2.49c-.03-.34-.06-.55-.09-.64-.1-.28-.3-.36-.59-.25l-.05-.14,1.16-.42.05.14c-.17.07-.27.18-.31.33-.04.14-.05.46-.02.93l.23,3.54Z"/>
    <path d="M288.55,139.83c-.03-.09-.03-.18.01-.27.04-.09.11-.15.2-.18.09-.03.18-.03.26.01s.15.11.18.2c.03.09.03.18,0,.27-.04.09-.1.15-.19.18s-.18.03-.27-.01-.15-.11-.18-.2ZM289.63,140.92l.65,1.79c.1.27.17.44.2.51.04.07.08.11.15.13.07.02.17,0,.3-.05l.07-.02.05.14-1.38.5-.05-.14.11-.04c.15-.05.24-.11.27-.17.03-.06.04-.12.02-.18-.01-.06-.07-.24-.18-.52l-.28-.78c-.11-.3-.19-.48-.24-.54s-.11-.08-.16-.08c-.05,0-.14.02-.25.07l-.08.03-.05-.14c.36-.17.62-.33.8-.48l.07-.02Z"/>
    <path d="M292.05,140.32l-.77.28.57,1.55c.09.24.16.39.21.47.05.08.12.12.21.15.09.03.17.02.25,0,.15-.05.25-.19.3-.4l.12.02c-.01.16-.07.3-.17.42-.1.12-.21.2-.34.25-.15.05-.3.06-.44.01-.15-.05-.25-.12-.33-.23-.07-.11-.16-.31-.27-.61l-.53-1.45-.37.14-.05-.14c.17-.07.3-.19.38-.38.08-.19.1-.42.05-.68l.1-.04.29.8.77-.28.05.14Z"/>
    <path d="M293.3,140.17c.06-.22.15-.4.28-.55.12-.15.28-.25.46-.32.21-.08.4-.1.57-.06.17.04.3.11.39.22.09.11.18.31.29.6l.26.71c.11.3.18.48.22.54.04.06.09.1.15.11.07,0,.18-.01.33-.07l.05.14-1.32.48-.05-.14.06-.02c.15-.06.24-.11.27-.17.03-.06.04-.12.02-.18-.01-.06-.07-.23-.18-.52l-.28-.77c-.08-.21-.15-.37-.21-.46-.06-.09-.15-.15-.27-.19-.12-.03-.25-.02-.38.03-.16.06-.29.16-.39.3s-.16.33-.18.55l.37,1.03c.11.29.17.46.21.53.03.06.08.1.15.12.07.01.17,0,.32-.06l.05.14-1.3.47-.05-.14.07-.02c.15-.05.24-.11.27-.17.03-.06.04-.12.02-.18s-.07-.24-.18-.52l-.93-2.55c-.09-.26-.18-.41-.25-.46-.07-.05-.2-.04-.39.02l-.05-.14c.32-.12.58-.26.76-.43l.07-.02.79,2.16Z"/>
    <path d="M300.7,139.37l.12-.04c.11.36,0,.61-.33.73-.14.05-.27.05-.38,0-.11-.05-.2-.14-.28-.28-.15.22-.3.4-.45.54s-.28.23-.42.28c-.17.06-.34.07-.5.01-.16-.05-.27-.17-.33-.33-.08-.21-.04-.44.11-.68.15-.24.38-.5.7-.79l.41-.37-.05-.12c-.06-.18-.12-.3-.17-.37-.05-.07-.14-.12-.26-.15-.12-.03-.26-.01-.41.04-.31.11-.45.28-.41.5.04.22,0,.36-.15.41-.13.05-.21,0-.26-.11-.04-.12,0-.28.11-.48.12-.2.36-.36.71-.49.26-.1.48-.13.66-.1.18.03.31.09.39.18s.17.25.25.46l.38,1.04c.09.24.16.39.21.45.05.06.12.07.2.04.14-.05.19-.18.14-.4ZM299.39,138.61l-.29.26c-.46.42-.63.79-.51,1.12.05.13.12.23.22.28.1.06.2.06.31.02.1-.04.2-.11.31-.22.11-.11.21-.26.33-.45l-.37-1.01Z"/>
    <path d="M302.47,136.23l.08-.03c.08.1.15.24.21.4.08-.19.19-.35.31-.47.13-.13.28-.22.45-.28.36-.13.7-.11,1.02.05.33.16.56.45.71.86.15.4.15.78.01,1.13-.14.35-.4.6-.79.75-.16.06-.32.08-.49.07-.17-.01-.34-.06-.51-.13l.35.97c.11.3.18.48.21.54.04.06.09.1.15.11.07.01.17,0,.32-.06l.05.14-1.34.49-.05-.14.09-.03c.15-.05.24-.11.27-.17.03-.06.04-.12.02-.18-.01-.06-.07-.24-.18-.52l-.85-2.33c-.1-.27-.17-.44-.2-.51-.03-.07-.08-.11-.15-.13-.07-.02-.17,0-.3.05l-.09.03-.05-.14c.2-.1.44-.24.73-.44ZM303.4,138.37c.16.1.32.16.47.18.15.02.3.01.44-.04.24-.09.4-.26.51-.53.1-.27.07-.62-.09-1.06-.14-.38-.33-.64-.57-.77-.24-.13-.47-.15-.71-.06-.14.05-.27.14-.37.26-.1.12-.18.28-.25.47l.57,1.56Z"/>
    <path d="M307.84,134.39l.61,1.68c.1.28.17.45.2.52.03.07.08.11.15.13.07.02.17,0,.31-.05l.05.14c-.32.12-.54.24-.66.35h-.04c-.11-.08-.22-.26-.32-.54-.05.25-.15.45-.27.61-.13.16-.29.28-.49.35-.17.06-.34.08-.5.05-.16-.03-.29-.09-.38-.19-.09-.09-.18-.26-.26-.48l-.32-.87c-.11-.3-.18-.48-.21-.54-.04-.06-.08-.1-.15-.11-.07-.01-.17.01-.32.06l-.05-.14.87-.32.65,1.78c.06.18.12.3.17.37.05.07.13.12.24.15.11.03.22.02.33-.02.16-.06.29-.17.4-.32.11-.16.17-.31.18-.44,0-.14-.03-.32-.11-.54l-.21-.58c-.1-.28-.17-.45-.2-.51-.03-.06-.07-.1-.14-.13s-.17-.01-.32.04l-.07.02-.05-.14.9-.33Z"/>
    <path d="M309.66,134.35c0-.21.06-.41.18-.59.11-.18.25-.3.4-.36.14-.05.26-.05.37,0,.11.06.18.13.21.22.02.06.02.12,0,.18-.02.06-.07.1-.12.12-.1.04-.21,0-.32-.14-.08-.09-.15-.12-.23-.1-.09.03-.17.13-.26.3-.08.17-.12.32-.1.47.01.14.06.33.14.56l.17.46c.1.27.17.44.2.51.03.07.08.11.15.13.07.02.17,0,.3-.05l.09-.03.05.14-1.36.5-.05-.14.07-.02c.13-.05.21-.1.25-.15s.05-.11.04-.18c-.01-.07-.07-.25-.18-.54l-.26-.72c-.1-.28-.17-.45-.2-.51-.03-.07-.08-.11-.15-.13-.07-.02-.17,0-.3.04l-.07.02-.05-.14c.19-.09.42-.25.7-.47.12.14.23.35.34.62Z"/>
    <path d="M313.76,134.43l.14-.05c.04.54-.23.91-.8,1.12-.36.13-.72.12-1.06-.04-.34-.16-.58-.44-.73-.85-.15-.42-.14-.81.03-1.17.17-.36.45-.61.81-.74.22-.08.44-.11.66-.08.22.03.36.11.41.25.02.05.02.11,0,.17-.02.06-.06.1-.12.12-.14.05-.25,0-.34-.15-.07-.11-.14-.18-.21-.21-.07-.03-.19-.02-.34.04-.28.1-.45.28-.52.52-.07.25-.03.56.11.95.15.4.34.69.57.86.23.17.5.2.81.09.41-.15.61-.43.58-.85Z"/>
    <path d="M314.47,132.45c.06-.22.15-.4.28-.55.12-.15.28-.25.46-.32.21-.08.4-.1.57-.06.17.04.3.11.39.22.09.11.19.31.29.6l.26.71c.11.3.18.48.22.54.04.06.09.1.15.11.07,0,.18-.01.33-.07l.05.14-1.32.48-.05-.14.06-.02c.15-.06.24-.11.27-.17.03-.06.04-.12.02-.18s-.07-.23-.18-.52l-.28-.77c-.08-.21-.15-.37-.21-.46-.06-.09-.15-.16-.27-.19-.12-.03-.25-.02-.39.03-.16.06-.29.16-.39.3-.09.14-.16.33-.19.55l.38,1.03c.1.29.17.46.21.53.03.06.08.1.15.12.07.01.17,0,.32-.06l.05.14-1.3.48-.05-.14.07-.02c.15-.05.24-.11.27-.17.03-.06.04-.12.02-.18-.01-.06-.07-.24-.18-.52l-.93-2.55c-.09-.26-.18-.41-.25-.46-.07-.05-.2-.04-.39.02l-.05-.14c.32-.12.58-.26.76-.43l.07-.02.79,2.16Z"/>
    <path d="M320.26,132.23l.12-.04c.11.36,0,.61-.33.73-.14.05-.27.05-.38,0-.11-.05-.2-.14-.28-.27-.15.22-.3.4-.45.54-.15.14-.29.23-.42.28-.17.06-.34.07-.5.01-.16-.05-.27-.16-.33-.33-.08-.21-.04-.44.11-.68.15-.24.38-.5.7-.79l.41-.37-.04-.12c-.07-.18-.12-.3-.17-.37-.05-.07-.14-.12-.26-.15-.12-.03-.26-.01-.41.04-.31.11-.45.28-.41.5.04.23,0,.36-.15.41-.13.05-.21.01-.26-.11-.04-.12,0-.28.11-.48.12-.2.36-.36.71-.49.27-.1.49-.13.66-.1.18.03.31.09.39.18.09.09.17.25.25.46l.38,1.04c.09.24.16.39.21.45.05.06.12.07.2.04.14-.05.19-.18.14-.4ZM318.95,131.47l-.29.26c-.46.42-.63.79-.51,1.12.05.13.12.22.22.28.1.06.2.06.31.02.1-.04.2-.11.31-.22.11-.11.21-.26.33-.45l-.37-1.01Z"/>
    <path d="M320.9,132.62l-.31-.84.12-.04c.32.43.66.58,1.03.45.16-.06.26-.15.3-.27.04-.12.04-.24,0-.36-.05-.13-.13-.23-.24-.28-.12-.05-.32-.1-.61-.13-.3-.03-.54-.09-.69-.17-.16-.08-.27-.21-.33-.39-.06-.17-.06-.35,0-.55.07-.2.21-.34.43-.42.22-.08.44-.06.65.07.02-.04.03-.13.04-.27l.12-.04.29.79-.12.04c-.11-.17-.25-.31-.42-.4-.17-.09-.34-.11-.5-.05-.12.05-.21.12-.26.23-.05.11-.05.21-.02.31.04.11.12.19.23.24.11.05.31.09.58.11.41.03.69.11.82.23.14.13.23.26.28.4.08.22.07.43-.02.62-.1.19-.26.33-.48.41-.24.09-.48.06-.74-.06-.03.08-.05.19-.04.32l-.12.04Z"/>
    <path d="M324.69,129.23l-1.79.65c.04.13.07.22.09.28.17.45.36.76.58.94.22.18.47.21.75.11.38-.14.59-.41.62-.8l.15-.05c.01.24-.06.45-.21.64-.15.19-.35.33-.58.42-.22.08-.44.1-.67.06-.23-.04-.45-.14-.64-.29s-.35-.38-.45-.66c-.15-.4-.15-.78-.01-1.14.14-.35.39-.6.75-.73.34-.12.63-.11.89.02.26.14.44.32.53.56ZM324.1,129.3s-.02-.09-.04-.13c-.07-.18-.17-.31-.32-.37-.14-.06-.29-.06-.45,0-.38.14-.52.46-.42.95l1.23-.45Z"/>
    <path d="M326.92,128.87c-.14-.39-.13-.77.04-1.13.17-.36.44-.61.83-.75.39-.14.76-.13,1.12.04.36.17.61.45.75.84.16.43.15.82-.03,1.16-.18.35-.45.59-.83.73-.38.14-.74.13-1.1-.03-.36-.15-.61-.44-.77-.87ZM327.45,128.7c.17.46.36.75.57.88.22.13.46.14.72.05.27-.1.45-.27.53-.5s.04-.58-.13-1.04c-.17-.45-.35-.75-.57-.88-.21-.14-.46-.16-.73-.06-.27.1-.45.27-.52.51-.08.24-.03.59.13,1.04Z"/>
    <path d="M331.77,128.68l-.18.07-1.66-1.72c-.16-.17-.28-.26-.35-.3-.07-.03-.17-.03-.29,0l-.05-.14,1.16-.42.05.14c-.13.05-.21.09-.25.13-.04.04-.05.09-.03.15.02.05.1.14.25.29l1.26,1.3.12-1.61c.02-.26.01-.42-.01-.49-.05-.14-.18-.18-.39-.11l-.05-.14.86-.31.05.14c-.1.05-.18.12-.22.23-.04.11-.08.33-.1.67l-.16,2.14Z"/>
    <path d="M334.94,125.49l-1.79.65c.04.13.07.22.09.28.16.45.36.76.58.94.22.18.47.21.75.11.38-.14.59-.41.62-.8l.15-.05c0,.24-.06.45-.21.64-.16.19-.35.33-.58.42-.22.08-.44.1-.68.06-.23-.04-.45-.14-.64-.29-.2-.15-.35-.38-.45-.66-.15-.4-.15-.78-.01-1.14.14-.36.39-.6.75-.73.34-.12.63-.11.89.02.26.14.44.32.53.56ZM334.34,125.56s-.02-.09-.04-.13c-.07-.18-.17-.31-.32-.37-.14-.06-.29-.06-.45,0-.38.14-.52.46-.42.95l1.23-.45Z"/>
    <path d="M336.13,124.69c0-.21.06-.41.17-.59.11-.18.25-.3.4-.36.14-.05.26-.05.37,0,.11.06.18.13.21.22.02.06.02.12,0,.18-.02.06-.07.1-.12.12-.11.04-.21,0-.32-.14-.08-.09-.15-.12-.23-.1-.09.03-.17.13-.26.3-.08.17-.11.32-.1.47.01.15.06.33.14.56l.17.46c.1.27.17.44.2.51.03.07.08.11.15.13.07.02.17,0,.3-.05l.09-.03.05.14-1.36.5-.05-.14.07-.02c.12-.05.21-.1.25-.15.04-.05.05-.11.04-.18-.01-.07-.07-.25-.18-.54l-.26-.72c-.1-.28-.17-.45-.2-.51-.03-.07-.08-.11-.15-.13-.07-.02-.17,0-.3.04l-.07.02-.05-.14c.19-.09.42-.25.7-.47.12.14.23.35.34.62Z"/>
    <path d="M340.85,125.32c-.24.03-.47,0-.67-.08-.21-.08-.33-.19-.37-.31-.02-.07-.03-.13,0-.18.02-.05.06-.09.11-.11.1-.04.2.01.29.15.15.23.35.35.59.36l-.74-2.02c-.58-.04-.96-.29-1.13-.75-.08-.23-.09-.45-.02-.68.07-.22.21-.41.42-.56l-.08-.22.13-.05.07.18c.09-.06.2-.1.31-.15.09-.03.19-.06.3-.08l-.07-.18.13-.05.08.22c.27-.02.5.02.69.13.19.1.31.22.36.35.02.07.02.13,0,.18-.02.05-.06.09-.1.1-.06.02-.12.02-.17-.01-.05-.04-.12-.12-.2-.25-.13-.22-.3-.33-.52-.33l.63,1.73c.67.03,1.09.3,1.28.82.09.24.1.49.03.75-.07.26-.23.49-.49.68l.23.63-.13.05-.22-.6c-.12.08-.25.14-.37.18-.08.03-.16.05-.25.07l.21.57-.13.05-.22-.6ZM339.37,121.27c-.26.26-.33.55-.21.88.11.29.34.46.71.5l-.5-1.38ZM340.03,122.67l.71.04-.63-1.73c-.12.01-.23.04-.35.08-.11.04-.2.09-.27.15l.54,1.47ZM340.21,123.15l.73,2c.09,0,.18-.03.28-.07.12-.05.23-.1.33-.18l-.62-1.71-.72-.05ZM341.66,124.79c.31-.29.39-.64.25-1.03-.13-.35-.4-.53-.83-.56l.58,1.59Z"/>
    <path d="M342.93,122.05l-.16.06-.62-1.98,1.62-.59c-.01.24-.03.39-.06.44-.03.05-.09.09-.19.13l-1.1.4.42,1.31c.11-.35.32-.57.63-.69.33-.12.65-.09.98.09.33.18.56.46.7.84.16.44.17.86.01,1.24-.15.38-.46.66-.93.83-.33.12-.61.13-.84.05-.24-.09-.38-.19-.42-.31-.02-.05-.02-.11,0-.16.02-.05.06-.09.13-.11.07-.02.13-.02.18,0,.05.03.12.1.22.21.19.22.42.29.7.18.27-.1.45-.29.56-.57.1-.28.07-.66-.11-1.15-.16-.44-.35-.72-.56-.85-.22-.13-.43-.16-.63-.08-.29.1-.46.34-.51.7Z"/>
    <path d="M345.6,121.2c-.24-.65-.31-1.22-.2-1.7.1-.48.36-.8.76-.94s.8-.07,1.19.24c.39.3.7.78.94,1.43.23.64.3,1.21.2,1.69-.1.49-.35.8-.76.95-.4.15-.8.07-1.19-.24-.39-.3-.7-.78-.94-1.43ZM346.12,121.01c.32.87.59,1.39.82,1.57.23.18.48.22.73.13.3-.11.47-.33.49-.65.02-.32-.11-.87-.4-1.65-.32-.87-.59-1.39-.82-1.57-.23-.18-.47-.22-.73-.13-.26.09-.42.28-.48.57-.06.29.07.86.38,1.73Z"/>
  </g>
</svg>