<?xml version="1.0" encoding="UTF-8"?>
<svg id="perogiHatLogo" xmlns="http://www.w3.org/2000/svg" viewBox="0 0 300 300">
  <path d="M152.82,86.32v23.49s0,.98,0,3.33v100.53h127.35v-127.35h-127.35Z" fill="none" stroke="#bfbdff" stroke-miterlimit="10" stroke-width="5"/>
  <g>
    <path d="M28.33,147.53c-2-1.01-3.54-2.48-4.59-4.4-1.06-1.92-1.59-4.22-1.59-6.91s.53-4.91,1.59-6.8c1.06-1.9,2.59-3.34,4.59-4.33s4.39-1.48,7.18-1.48,5.17.49,7.16,1.48c1.99.99,3.52,2.43,4.58,4.33,1.06,1.9,1.59,4.17,1.59,6.8s-.53,4.99-1.59,6.91c-1.06,1.92-2.59,3.39-4.58,4.4-1.99,1.01-4.38,1.52-7.16,1.52s-5.17-.51-7.18-1.52ZM42.61,144.46c1.67-1.93,2.51-4.68,2.51-8.24s-.83-6.18-2.49-8.08c-1.66-1.9-4.04-2.85-7.12-2.85s-5.47.94-7.14,2.83c-1.67,1.89-2.51,4.58-2.51,8.09s.84,6.3,2.51,8.24c1.67,1.93,4.05,2.9,7.14,2.9s5.43-.97,7.1-2.9Z" fill="#fff"/>
    <path d="M53.39,123.96h3.68v23.05h15.55v1.7h-19.23v-24.74Z" fill="#fff"/>
    <path d="M75.91,123.96h9.61c4.62,0,8.13,1.01,10.53,3.04,2.4,2.03,3.61,5,3.61,8.91s-1.21,7.23-3.62,9.46-5.85,3.34-10.3,3.34h-9.83v-24.74ZM86.23,147c3.13,0,5.54-.95,7.23-2.86,1.68-1.91,2.53-4.65,2.53-8.24,0-3.37-.83-5.92-2.47-7.65-1.65-1.73-4.08-2.6-7.28-2.6h-6.65v21.35h6.65Z" fill="#fff"/>
    <path d="M113.66,123.96h9.37c3.39,0,6.02.62,7.88,1.87,1.86,1.25,2.79,3.16,2.79,5.73s-.92,4.44-2.76,5.69c-1.84,1.25-4.48,1.87-7.92,1.87h-5.69v9.58h-3.68v-24.74ZM123.1,137.42c4.62,0,6.93-1.96,6.93-5.87s-2.31-5.9-6.93-5.9h-5.76v11.77h5.76Z" fill="#fff"/>
    <path d="M137.13,123.96h20.96v1.7h-17.29v8.94h15.27v1.66h-15.27v10.75h17.29v1.7h-20.96v-24.74Z" fill="#fff"/>
    <path d="M167.21,147.53c-2-1.01-3.54-2.48-4.59-4.4-1.06-1.92-1.59-4.22-1.59-6.91s.53-4.91,1.59-6.8c1.06-1.9,2.59-3.34,4.59-4.33s4.39-1.48,7.18-1.48,5.17.49,7.16,1.48c1.99.99,3.52,2.43,4.58,4.33,1.06,1.9,1.59,4.17,1.59,6.8s-.53,4.99-1.59,6.91c-1.06,1.92-2.59,3.39-4.58,4.4-1.99,1.01-4.38,1.52-7.16,1.52s-5.17-.51-7.18-1.52ZM181.49,144.46c1.67-1.93,2.51-4.68,2.51-8.24s-.83-6.18-2.49-8.08c-1.66-1.9-4.04-2.85-7.12-2.85s-5.47.94-7.14,2.83c-1.67,1.89-2.51,4.58-2.51,8.09s.84,6.3,2.51,8.24c1.67,1.93,4.05,2.9,7.14,2.9s5.43-.97,7.1-2.9Z" fill="#fff"/>
    <path d="M192.27,123.96h9.37c3.39,0,6.02.62,7.88,1.87,1.86,1.25,2.79,3.16,2.79,5.73s-.92,4.44-2.76,5.69c-1.84,1.25-4.48,1.87-7.92,1.87h-5.69v9.58h-3.68v-24.74ZM201.71,137.42c4.62,0,6.93-1.96,6.93-5.87s-2.31-5.9-6.93-5.9h-5.76v11.77h5.76Z" fill="#fff"/>
    <path d="M215.74,123.96h3.68v23.05h15.55v1.7h-19.23v-24.74Z" fill="#fff"/>
    <path d="M238.22,123.96h20.96v1.7h-17.29v8.94h15.27v1.66h-15.27v10.75h17.29v1.7h-20.96v-24.74Z" fill="#fff"/>
  </g>
  <g>
    <path d="M21.08,162.39h4.17c2.08,0,3.65.47,4.73,1.42,1.07.95,1.61,2.33,1.61,4.16,0,1.24-.25,2.31-.74,3.21-.49.9-1.21,1.58-2.14,2.05-.94.47-2.05.71-3.35.71h-4.27v-11.55ZM25.6,173.31c1.57,0,2.8-.47,3.68-1.4s1.32-2.25,1.32-3.94-.42-2.86-1.27-3.7-2.09-1.25-3.73-1.25h-3.53v10.29h3.53Z" fill="#fff"/>
    <path d="M34.99,172.53c-1.04-1.05-1.56-2.52-1.56-4.41s.52-3.3,1.57-4.34c1.04-1.03,2.5-1.55,4.37-1.55s3.33.52,4.37,1.55c1.04,1.03,1.57,2.48,1.57,4.34s-.52,3.36-1.56,4.41c-1.04,1.05-2.5,1.58-4.38,1.58s-3.34-.52-4.38-1.58ZM43.02,172.06c.87-.94,1.3-2.26,1.3-3.95s-.43-2.97-1.3-3.88c-.87-.92-2.08-1.38-3.65-1.38s-2.78.46-3.65,1.38c-.87.92-1.3,2.21-1.3,3.88s.43,3.01,1.3,3.95c.87.94,2.08,1.41,3.65,1.41s2.78-.47,3.65-1.41Z" fill="#fff"/>
    <path d="M48.21,162.39h.99v11.55h-.99v-11.55Z" fill="#fff"/>
    <path d="M52.44,162.39h1.04l7.77,9.73v-9.73h.66v11.55h-.16l-8.64-10.85v10.85h-.66v-11.55Z" fill="#fff"/>
    <path d="M65.67,172.57c-1.06-1.02-1.58-2.49-1.58-4.39,0-1.24.23-2.31.68-3.2.46-.89,1.12-1.57,1.99-2.04.87-.47,1.9-.71,3.1-.71,1.5,0,2.73.33,3.71.98.98.65,1.58,1.56,1.82,2.73h-1.01c-.22-.99-.71-1.75-1.48-2.29-.77-.53-1.76-.8-2.99-.8-1.52,0-2.7.47-3.56,1.4-.85.93-1.28,2.24-1.28,3.91s.45,3.02,1.34,3.93c.89.92,2.16,1.38,3.79,1.38s2.89-.34,3.96-1.02v-3.89h-4.11v-.59h5.1v4.65c-.68.51-1.43.88-2.24,1.12-.81.24-1.72.36-2.73.36-1.96,0-3.46-.51-4.52-1.53Z" fill="#fff"/>
    <path d="M85.51,168.99l-4.98-6.6h1.09l4.52,5.97,4.87-5.97h.71l-5.21,6.35v5.2h-.99v-4.95Z" fill="#fff"/>
    <path d="M93.47,172.53c-1.04-1.05-1.56-2.52-1.56-4.41s.52-3.3,1.57-4.34c1.04-1.03,2.5-1.55,4.37-1.55s3.33.52,4.37,1.55c1.04,1.03,1.57,2.48,1.57,4.34s-.52,3.36-1.56,4.41c-1.04,1.05-2.5,1.58-4.38,1.58s-3.34-.52-4.38-1.58ZM101.49,172.06c.87-.94,1.3-2.26,1.3-3.95s-.43-2.97-1.3-3.88c-.87-.92-2.08-1.38-3.65-1.38s-2.78.46-3.65,1.38c-.87.92-1.3,2.21-1.3,3.88s.43,3.01,1.3,3.95c.87.94,2.08,1.41,3.65,1.41s2.78-.47,3.65-1.41Z" fill="#fff"/>
    <path d="M107.23,172.87c-.84-.82-1.26-2.06-1.26-3.74v-6.75h.99v7.13c0,1.35.34,2.35,1.01,2.99.67.64,1.71.96,3.12.96s2.45-.32,3.12-.96c.67-.64,1.01-1.64,1.01-2.99v-7.13h.99v6.75c0,1.67-.42,2.92-1.26,3.74-.84.82-2.12,1.23-3.85,1.23s-3.01-.41-3.85-1.23Z" fill="#fff"/>
    <path d="M118.7,162.39h1.04l7.77,9.73v-9.73h.66v11.55h-.16l-8.64-10.85v10.85h-.66v-11.55Z" fill="#fff"/>
    <path d="M131.93,172.57c-1.06-1.02-1.58-2.49-1.58-4.39,0-1.24.23-2.31.68-3.2.46-.89,1.12-1.57,1.99-2.04.87-.47,1.9-.71,3.1-.71,1.5,0,2.73.33,3.71.98.98.65,1.58,1.56,1.82,2.73h-1.01c-.22-.99-.71-1.75-1.48-2.29-.77-.53-1.76-.8-2.99-.8-1.52,0-2.7.47-3.56,1.4-.85.93-1.28,2.24-1.28,3.91s.45,3.02,1.34,3.93c.89.92,2.16,1.38,3.79,1.38s2.89-.34,3.96-1.02v-3.89h-4.11v-.59h5.1v4.65c-.68.51-1.43.88-2.24,1.12-.81.24-1.72.36-2.73.36-1.96,0-3.46-.51-4.52-1.53Z" fill="#fff"/>
    <path d="M147.95,162.39h4.06c1.5,0,2.65.31,3.46.92.81.61,1.21,1.48,1.21,2.6s-.4,2-1.2,2.61-1.96.91-3.46.91h-3.07v4.52h-.99v-11.55ZM152.04,168.79c1.17,0,2.06-.25,2.7-.75.63-.5.95-1.21.95-2.14s-.32-1.64-.95-2.14c-.63-.5-1.53-.75-2.7-.75h-3.1v5.77h3.1Z" fill="#fff"/>
    <path d="M158.35,162.39h9.17v.63h-8.18v4.42h7.23v.59h-7.23v5.28h8.18v.63h-9.17v-11.55Z" fill="#fff"/>
    <path d="M170.5,172.53c-1.04-1.05-1.56-2.52-1.56-4.41s.52-3.3,1.57-4.34c1.04-1.03,2.5-1.55,4.37-1.55s3.33.52,4.37,1.55c1.04,1.03,1.57,2.48,1.57,4.34s-.52,3.36-1.56,4.41c-1.04,1.05-2.5,1.58-4.38,1.58s-3.34-.52-4.38-1.58ZM178.53,172.06c.87-.94,1.3-2.26,1.3-3.95s-.43-2.97-1.3-3.88c-.87-.92-2.08-1.38-3.65-1.38s-2.78.46-3.65,1.38c-.87.92-1.3,2.21-1.3,3.88s.43,3.01,1.3,3.95c.87.94,2.08,1.41,3.65,1.41s2.78-.47,3.65-1.41Z" fill="#fff"/>
    <path d="M183,162.39h4.06c1.5,0,2.65.31,3.46.92.81.61,1.21,1.48,1.21,2.6s-.4,2-1.2,2.61-1.96.91-3.46.91h-3.07v4.52h-.99v-11.55ZM187.09,168.79c1.17,0,2.06-.25,2.7-.75.63-.5.95-1.21.95-2.14s-.32-1.64-.95-2.14c-.63-.5-1.53-.75-2.7-.75h-3.1v5.77h3.1Z" fill="#fff"/>
    <path d="M193.41,162.39h.99v10.92h7.36v.63h-8.35v-11.55Z" fill="#fff"/>
    <path d="M203.34,162.39h9.17v.63h-8.18v4.42h7.23v.59h-7.23v5.28h8.18v.63h-9.17v-11.55Z" fill="#fff"/>
    <path d="M219.62,173.17c-.89-.62-1.39-1.53-1.5-2.71h.99c.09,1.02.47,1.78,1.15,2.28s1.69.74,3.02.74c1.24,0,2.21-.22,2.89-.65s1.03-1.05,1.03-1.84c0-.48-.13-.89-.4-1.22s-.71-.61-1.32-.85c-.61-.24-1.44-.45-2.5-.65-1.14-.21-2.04-.45-2.71-.71-.66-.26-1.14-.58-1.43-.96-.29-.38-.44-.85-.44-1.41,0-.6.19-1.13.58-1.57.38-.44.93-.78,1.64-1.02.71-.24,1.55-.36,2.52-.36,1.36,0,2.45.26,3.27.77.81.51,1.3,1.25,1.47,2.22h-.99c-.17-.8-.57-1.4-1.2-1.78-.64-.38-1.53-.58-2.67-.58s-2.04.19-2.67.56c-.63.37-.94.91-.94,1.6,0,.44.12.81.37,1.1.25.29.66.54,1.23.76.57.21,1.36.42,2.38.62,1.19.23,2.13.49,2.83.78.7.29,1.2.65,1.52,1.06s.47.93.47,1.55c0,1-.43,1.79-1.29,2.36-.86.57-2.06.86-3.59.86s-2.8-.31-3.69-.93Z" fill="#fff"/>
    <path d="M234.3,163.02h-4.95v-.63h10.89v.63h-4.95v10.92h-.99v-10.92Z" fill="#fff"/>
    <path d="M242.92,172.87c-.84-.82-1.26-2.06-1.26-3.74v-6.75h.99v7.13c0,1.35.34,2.35,1.01,2.99.67.64,1.71.96,3.12.96s2.45-.32,3.12-.96c.67-.64,1.01-1.64,1.01-2.99v-7.13h.99v6.75c0,1.67-.42,2.92-1.26,3.74-.84.82-2.12,1.23-3.85,1.23s-3.01-.41-3.85-1.23Z" fill="#fff"/>
    <path d="M254.39,162.39h8.84v.63h-7.85v4.42h6.73v.59h-6.73v5.91h-.99v-11.55Z" fill="#fff"/>
    <path d="M264.65,162.39h8.84v.63h-7.85v4.42h6.73v.59h-6.73v5.91h-.99v-11.55Z" fill="#fff"/>
  </g>
</svg>