<?xml version="1.0" encoding="UTF-8"?>
<svg id="perogiHatLogo" xmlns="http://www.w3.org/2000/svg" viewBox="0 0 300 300">
  <path d="M147.51,115.37c22.39,0,44.19,8.29,63.03,23.97,17.98,14.96,32.14,35.72,41.13,60.21-33.6-12.58-68.41-18.95-103.52-18.95h-.92c-35.29.11-70.26,6.66-104,19.47,18.23-50.27,57.71-83.34,101.55-84.66.9-.03,1.81-.04,2.72-.04h0M147.5,113.37c-.92,0-1.85.01-2.77.04-45.8,1.38-87.01,36.79-104.8,90.09,25.06-9.92,62.03-20.76,107.31-20.9.31,0,.61,0,.91,0,45.05,0,81.87,10.62,106.84,20.36-18.35-54.3-60.94-89.6-107.49-89.59h0Z"/>
  <g>
    <path d="M29.41,218.5v6.94c0,1.17.08,2.02.24,2.55.16.53.47,1.01.93,1.45.83.73,2.04,1.2,3.61,1.4v.61h-13.38v-.61c1.45-.24,2.5-.78,3.16-1.63.51-.63.77-1.88.77-3.76v-14.85c0-1.19-.07-2.06-.2-2.59-.13-.54-.38-1-.75-1.38-.64-.69-1.64-1.17-2.98-1.42v-.61c.2.01.37.02.5.02l1.77.1c.71.04,1.54.06,2.48.06,1.49,0,2.84-.06,4.05-.18l2.82-.24c.91-.08,1.79-.12,2.62-.12,3.13,0,5.58.62,7.37,1.86,1.78,1.24,2.67,2.95,2.67,5.12,0,1.28-.34,2.47-1.01,3.56s-1.58,1.93-2.74,2.52c-1.63.8-4.08,1.2-7.35,1.2h-4.57ZM23.62,230.43h5.88l-.79-.57c-.46-.33-.75-.59-.88-.79-.13-.2-.19-.49-.19-.88,0-.21,0-.35,0-.42,0-.07-.01-.15-.01-.23v-19.05c0-.08,0-.16.01-.24,0-.08,0-.22,0-.41,0-.37.06-.65.17-.84.11-.2.37-.44.76-.73l.14-.1,1.13-.85-.73.04c-1.22.08-2.32.12-3.3.12-.6,0-1.43-.02-2.48-.06l1.07.75c.44.29.73.54.87.76.13.22.2.52.2.91.01.22.02.44.02.65v19.05c0,.21,0,.43-.02.65,0,.41-.06.7-.18.89s-.42.45-.89.78l-.79.57ZM29.41,217.65h3.3c2.14,0,3.76-.33,4.88-1,.83-.5,1.48-1.22,1.94-2.16.46-.94.7-2.01.7-3.21,0-1.9-.58-3.41-1.75-4.54-1.17-1.13-2.73-1.69-4.67-1.69-.95,0-1.76.14-2.41.43-.65.29-1.13.71-1.44,1.26-.36.63-.54,1.63-.54,3.01v7.9ZM37.26,217.59c1.91-.5,3.36-1.3,4.36-2.41s1.5-2.46,1.5-4.04c0-1-.24-1.9-.71-2.71-.47-.81-1.14-1.49-2-2.02-.86-.54-1.89-.92-3.1-1.14,2.43,1.25,3.65,3.24,3.65,5.98,0,1.49-.31,2.77-.93,3.81s-1.54,1.89-2.78,2.54Z"/>
    <path d="M51.09,222.27v.43c0,1.56.23,2.93.71,4.1.47,1.17,1.14,2.08,2,2.72s1.88.96,3.05.96c.62,0,1.24-.1,1.86-.31.62-.2,1.24-.49,1.85-.88.61-.38,1.3-.92,2.06-1.61l.4.53c-1.38,1.31-2.7,2.25-3.94,2.81-1.24.56-2.63.85-4.16.85s-3.03-.34-4.3-1.02c-1.27-.68-2.25-1.64-2.95-2.89-.7-1.25-1.05-2.65-1.05-4.21,0-1.64.39-3.14,1.16-4.5s1.83-2.43,3.16-3.21c1.34-.77,2.83-1.16,4.48-1.16,1.41,0,2.7.28,3.88.85,1.18.56,2.09,1.36,2.75,2.38.7,1.05,1.09,2.43,1.17,4.15h-12.15ZM55.8,231.3c-.95-.12-1.72-.29-2.3-.53-.58-.24-1.14-.6-1.69-1.1-.82-.73-1.46-1.7-1.92-2.9-.46-1.2-.68-2.51-.68-3.92,0-.98.1-1.89.29-2.71.19-.83.5-1.57.91-2.22.41-.66.96-1.28,1.66-1.87-1.53.81-2.71,1.89-3.53,3.22s-1.23,2.83-1.23,4.48c0,1.42.33,2.7.99,3.86s1.58,2.07,2.75,2.72c1.17.66,2.47.98,3.9.98.32,0,.6,0,.85-.02ZM51.09,221.59h8.04c-.01-1.77-.19-3.04-.54-3.82-.31-.71-.75-1.25-1.33-1.64-.58-.39-1.22-.58-1.93-.58-2.58,0-3.99,2.01-4.23,6.04ZM61.56,221.59c-.04-.97-.22-1.85-.54-2.63-.32-.79-.77-1.45-1.34-2-.57-.54-1.25-.93-2.03-1.17.78.6,1.34,1.32,1.68,2.14.34.83.51,1.86.51,3.11,0,.21,0,.39-.02.55h1.73Z"/>
    <path d="M71.76,218.83c.78-1.47,1.48-2.49,2.11-3.08.62-.58,1.35-.88,2.17-.88,1.02,0,1.87.39,2.56,1.18.69.79,1.03,1.76,1.03,2.93,0,.75-.16,1.32-.47,1.73-.32.41-.76.61-1.34.61-.5,0-.9-.16-1.21-.49-.31-.33-.46-.75-.46-1.26,0-.24.03-.5.1-.79l.18-.75c.11-.46.16-.87.16-1.22s-.1-.63-.29-.84c-.2-.2-.45-.3-.78-.3-.38,0-.75.14-1.11.42-.36.28-.75.73-1.16,1.36-.41.62-.9,1.49-1.48,2.61v7.59c0,1.09.2,1.86.59,2.32.4.46,1.12.77,2.19.92v.53h-9.27v-.53c.91-.16,1.54-.46,1.87-.91.33-.45.5-1.23.5-2.33v-8.26c0-1.1-.17-1.88-.51-2.35-.34-.47-.96-.76-1.86-.9v-.43l6.49-.73v3.83ZM67.29,230.57h4.03l-.48-.35s-.05-.05-.08-.06l-.26-.2c-.19-.18-.29-.43-.3-.75v-13.39l-3.3.35.79.55s.04.02.08.06l.26.2c.13.09.22.23.26.4s.06.49.06.93v10.3c0,.54-.03.87-.08,1-.05.13-.22.31-.48.53-.04.03-.06.05-.06.06l-.42.35ZM76.68,215.75c.31.41.46.84.46,1.32,0,.41-.07.9-.22,1.49-.13.56-.2.94-.2,1.12,0,.55.23.83.69.83.58,0,.87-.53.87-1.59,0-1.35-.53-2.41-1.59-3.17Z"/>
    <path d="M80.38,223.38c0-1.52.42-2.93,1.26-4.24.84-1.3,1.98-2.33,3.41-3.09,1.43-.75,3-1.13,4.71-1.13,1.28,0,2.48.21,3.61.64,1.13.43,2.12,1.03,2.98,1.81.86.78,1.53,1.69,2,2.73.48,1.04.72,2.13.72,3.27,0,1.51-.41,2.92-1.24,4.23s-1.96,2.34-3.39,3.1-2.99,1.13-4.66,1.13-3.28-.37-4.71-1.12c-1.44-.75-2.58-1.77-3.42-3.08-.84-1.3-1.26-2.72-1.26-4.26ZM86.35,230.71c-.64-.5-1.08-.87-1.32-1.11-.24-.24-.49-.57-.76-.97-.86-1.36-1.29-3.12-1.29-5.27,0-3.57,1.24-6.07,3.73-7.51-1.13.41-2.12,1-2.97,1.77-.85.77-1.51,1.65-1.97,2.63-.46.98-.7,2.03-.7,3.13s.23,2.11.69,3.11c.46,1,1.09,1.86,1.91,2.58.44.35.8.62,1.07.79.27.17.81.46,1.61.87ZM84.8,223.26c0,1.14.12,2.19.35,3.15.23.96.57,1.77,1.02,2.45.44.68.97,1.2,1.58,1.56s1.28.55,2,.55,1.38-.19,2-.56c.62-.37,1.14-.89,1.57-1.55.43-.66.76-1.48,1-2.45.23-.97.35-2.02.35-3.15,0-1.51-.21-2.84-.62-4.01-.41-1.17-.99-2.07-1.73-2.71s-1.61-.96-2.59-.96c-1.49,0-2.69.71-3.59,2.12-.9,1.42-1.35,3.27-1.35,5.56ZM91.79,231.02c1.77-.76,3.13-1.8,4.06-3.12.93-1.32,1.4-2.83,1.4-4.53s-.45-3.3-1.36-4.66c-.91-1.36-2.11-2.33-3.62-2.89,2.06,1.47,3.08,3.97,3.08,7.49,0,1.78-.26,3.27-.78,4.46-.52,1.19-1.34,2.2-2.47,3.01l-.32.24Z"/>
    <path d="M105.81,226.42c-.51.5-.85.88-1.02,1.13-.17.26-.25.55-.25.88,0,.6.43.96,1.29,1.08.43.05,1.06.08,1.89.08h3.83c2.05,0,3.52.2,4.39.61.6.29,1.13.67,1.57,1.15.44.48.78,1.03,1.02,1.64.23.62.35,1.28.35,1.99,0,1.43-.41,2.7-1.23,3.82-.82,1.12-1.98,1.99-3.48,2.61s-3.19.92-5.07.92c-2.54,0-4.59-.49-6.15-1.46-1.56-.97-2.34-2.24-2.34-3.81,0-.83.21-1.57.65-2.23.43-.66,1.15-1.36,2.16-2.09-.47-.43-.8-.82-.98-1.17-.18-.35-.27-.74-.27-1.19s.07-.83.21-1.18c.14-.35.41-.75.81-1.18s.97-.98,1.72-1.63l.32-.27c-1.14-.64-1.98-1.37-2.51-2.18-.53-.81-.8-1.76-.8-2.83,0-1.14.3-2.17.91-3.09.6-.92,1.45-1.64,2.55-2.18,1.09-.54,2.38-.85,3.86-.92.31-1.32.76-2.27,1.34-2.85.58-.58,1.37-.87,2.37-.87.59,0,1.16.12,1.7.34s.98.53,1.3.91.48.79.48,1.22-.14.77-.41,1.05c-.28.28-.61.42-1.02.42-.31,0-.61-.09-.91-.27-.3-.18-.52-.41-.69-.69l-.3-.57c-.34-.63-.79-.94-1.35-.94-.94,0-1.55.75-1.83,2.24,1.06.04,2.03.22,2.91.55.88.33,1.65.76,2.3,1.29.65.53,1.15,1.16,1.5,1.89.35.73.52,1.51.52,2.35,0,1.11-.34,2.17-1.02,3.17s-1.58,1.78-2.71,2.36c-1.13.58-2.36.87-3.69.87-1.21,0-2.53-.31-3.95-.94ZM104.26,233.27c-1.18,1.01-1.77,2.14-1.77,3.38,0,.92.29,1.75.88,2.49.58.74,1.4,1.32,2.46,1.73,1.05.41,2.25.62,3.58.62,1.03,0,2.01-.14,2.93-.41s1.72-.65,2.4-1.13,1.2-1.03,1.57-1.65c.37-.62.55-1.29.55-2.02,0-.83-.27-1.48-.82-1.96s-1.29-.72-2.23-.74l-1.55-.06h-4.43c-.66,0-1.27-.02-1.83-.06-.62-.01-1.2-.08-1.73-.2ZM106.44,226.13c-1.44-1.26-2.16-2.92-2.16-5,0-2.23.94-4.03,2.82-5.41-1.38.39-2.48,1.08-3.29,2.04-.81.97-1.21,2.08-1.21,3.34,0,1.06.33,2.02.99,2.88.66.86,1.6,1.57,2.84,2.13ZM116.98,238.06c.63-.88.95-1.75.95-2.62,0-1.13-.33-2.07-.99-2.83-.5-.58-1.08-.98-1.74-1.21-.67-.23-1.58-.34-2.73-.34l-2.78-.02-2.3-.02c-.99,0-1.77-.06-2.34-.17s-.95-.3-1.17-.56c-.21-.26-.32-.64-.32-1.14,0-.22.08-.54.24-.94-.4.43-.67.79-.8,1.06-.13.28-.19.61-.19,1,0,.51.12.96.37,1.34.25.38.61.67,1.1.88.29.12.71.2,1.23.24.52.04,1.38.06,2.58.06l2.68.02c1.72,0,2.92.04,3.6.12.68.08,1.21.25,1.6.51.98.62,1.47,1.5,1.47,2.65,0,.52-.15,1.18-.46,1.97ZM113.13,220.9c0-1.69-.31-3.01-.93-3.97-.62-.96-1.46-1.44-2.52-1.44-1.12,0-2,.51-2.67,1.53s-1,2.39-1,4.09.33,2.98.98,3.97,1.51,1.49,2.59,1.49,1.97-.51,2.6-1.53.95-2.41.95-4.15ZM111.88,226.25c1.18-.52,2.08-1.21,2.68-2.07.6-.86.91-1.86.91-3.02,0-1.23-.33-2.32-.98-3.27-.65-.95-1.51-1.63-2.59-2.04.67.59,1.15,1.28,1.43,2.06.28.79.42,1.76.42,2.93,0,1.26-.14,2.3-.43,3.13-.29.83-.77,1.59-1.44,2.28ZM112,212.07c.46.16.81.34,1.05.55.24.21.47.52.69.92.23.35.41.59.53.72.13.12.29.19.47.19.38,0,.56-.19.56-.57,0-.3-.13-.6-.39-.88s-.6-.52-1.02-.71c-.42-.18-.85-.28-1.29-.28-.13,0-.34.02-.6.06Z"/>
    <path d="M120.08,231.44v-.53c.91-.16,1.54-.46,1.87-.91.33-.45.5-1.23.5-2.33v-8.26c0-1.1-.17-1.88-.51-2.35-.34-.47-.96-.76-1.86-.9v-.43l6.49-.73v12.66c0,1.09.16,1.86.49,2.32s.95.77,1.86.92v.53h-8.85ZM122.09,230.57h4.03l-.48-.35s-.05-.05-.08-.06l-.26-.2c-.19-.18-.29-.43-.3-.75v-13.39l-3.3.35.79.55s.04.02.08.06l.26.2c.13.09.22.23.26.4s.06.49.06.93v10.3c0,.54-.03.87-.08,1-.05.13-.22.31-.48.53-.04.03-.06.05-.06.06l-.42.35ZM121.91,209.63c0-.66.23-1.21.68-1.67.46-.46,1.03-.69,1.71-.69s1.26.23,1.71.69c.46.46.68,1.02.68,1.67s-.23,1.23-.68,1.67c-.46.45-1.03.67-1.71.67s-1.26-.22-1.71-.67c-.46-.45-.68-1-.68-1.67ZM124.21,207.8c-.47.03-.88.22-1.22.58-.34.36-.51.78-.51,1.25s.17.89.52,1.26c.35.37.75.55,1.21.55.29,0,.44-.15.44-.45.01-.24.02-.71.02-1.44s0-1.14-.02-1.34c-.01-.26-.16-.4-.44-.41Z"/>
    <path d="M144.4,231.44v-.61c1.45-.24,2.5-.78,3.16-1.63.51-.63.77-1.88.77-3.76v-14.85c0-1.19-.07-2.06-.2-2.59-.13-.54-.38-1-.75-1.38-.67-.73-1.67-1.21-2.98-1.42v-.61h12.55v.61c-1.45.24-2.51.78-3.18,1.63-.27.34-.46.8-.58,1.37s-.18,1.37-.18,2.39v6.57h14.17v-6.57c0-1.19-.07-2.06-.2-2.59-.13-.54-.38-1-.75-1.38-.67-.73-1.67-1.21-2.98-1.42v-.61h12.55v.61c-1.45.24-2.51.78-3.18,1.63-.27.34-.46.8-.58,1.37-.12.57-.18,1.37-.18,2.39v14.85c0,1.11.07,1.96.21,2.53.14.57.39,1.05.75,1.45.67.73,1.67,1.21,2.98,1.42v.61h-12.55v-.61c1.45-.24,2.5-.78,3.16-1.63.51-.63.77-1.88.77-3.76v-7.37h-14.17v7.37c0,1.11.07,1.96.21,2.53.14.57.39,1.05.75,1.45.67.73,1.67,1.21,2.98,1.42v.61h-12.55ZM147.22,230.43h5.88l-.79-.57c-.46-.33-.75-.59-.88-.79-.13-.2-.19-.49-.19-.88,0-.21,0-.35,0-.42,0-.07-.01-.15-.01-.23v-19.05c0-.08,0-.16.01-.24,0-.08,0-.22,0-.41,0-.39.06-.69.19-.88.13-.2.42-.46.88-.79l1.15-.83h-6.61l1.15.83c.46.33.75.59.88.79.13.2.19.49.19.88.01.22.02.44.02.65v19.05c0,.21,0,.43-.02.65,0,.41-.06.7-.18.89s-.42.45-.89.78l-.79.57ZM166.06,230.43h5.88l-.79-.57c-.46-.33-.75-.59-.88-.79-.13-.2-.19-.49-.19-.88s0-.6-.02-.65v-19.05c.01-.07.02-.28.02-.65,0-.39.06-.69.19-.88.13-.2.42-.46.88-.79l1.15-.83h-6.61l1.15.83c.46.33.75.59.88.79.13.2.19.49.19.88.01.22.02.44.02.65v19.05c0,.21,0,.43-.02.65,0,.41-.06.7-.18.89s-.42.45-.89.78l-.79.57Z"/>
    <path d="M188.26,229.61c-1.65,1.36-3.43,2.04-5.32,2.04-1.52,0-2.73-.38-3.64-1.15-.91-.77-1.36-1.77-1.36-3.02,0-1.77.89-3.16,2.66-4.17,1.77-1.01,4.33-1.58,7.66-1.71v-.83c0-1.02-.05-1.86-.14-2.51-.09-.65-.23-1.14-.4-1.46-.2-.38-.49-.68-.86-.91s-.77-.34-1.2-.34c-.63,0-1.13.2-1.49.6-.36.4-.59,1.02-.68,1.86-.11.83-.28,1.39-.52,1.68-.24.29-.66.44-1.25.44-.46,0-.84-.16-1.15-.47-.31-.31-.46-.72-.46-1.22,0-.67.25-1.27.75-1.82s1.19-.97,2.07-1.29,1.84-.47,2.89-.47c1.36,0,2.54.26,3.57.8,1.02.53,1.78,1.27,2.28,2.21.27.49.46,1.03.57,1.63.11.6.17,1.44.17,2.5v5.66c0,1.09.16,1.86.49,2.32s.95.77,1.86.92v.53h-6.49v-1.83ZM183.83,231.1c-2.28-.46-3.43-1.68-3.43-3.66,0-1.29.53-2.39,1.59-3.3.47-.41,1.38-.92,2.72-1.55-1.63.3-2.89.71-3.79,1.24-1.53.92-2.3,2.13-2.3,3.64,0,1.09.41,1.97,1.22,2.64.81.67,1.86,1.01,3.15,1.01.31,0,.58,0,.83-.02ZM183.83,215.57c-.94.24-1.7.62-2.27,1.15-.57.53-.86,1.12-.86,1.78,0,.25.06.45.18.59.12.14.28.22.48.22.19,0,.33-.06.42-.17.09-.11.17-.34.24-.68.15-.73.34-1.29.57-1.66.24-.37.64-.78,1.22-1.23ZM188.26,228.74v-6.51c-1.3.2-2.42.52-3.35.98-.93.46-1.65,1.04-2.15,1.75s-.75,1.49-.75,2.34.26,1.58.8,2.15c.53.57,1.2.86,2,.86.99,0,2.14-.52,3.45-1.57ZM188.95,230.57h2.98l-.46-.35s-.07-.06-.08-.06l-.26-.2c-.2-.2-.3-.45-.3-.75v-.39l-.02-.2v-6.69c0-1.82-.21-3.19-.65-4.09-.6-1.21-1.55-1.98-2.84-2.32.86.59,1.36,1.53,1.51,2.81.08.79.12,2.01.12,3.66v8.57Z"/>
    <path d="M201.99,215.92v10.42c0,1.02.06,1.85.19,2.47.13.62.33,1.08.6,1.37.28.29.64.43,1.1.43.82,0,1.83-.47,3.02-1.42l.3.47c-.9.76-1.72,1.31-2.46,1.65-.74.34-1.5.51-2.28.51-1.5,0-2.65-.49-3.44-1.46-.79-.98-1.18-2.4-1.18-4.26v-10.25h-1.85v-.47c1.01-.13,1.89-.48,2.64-1.06s1.36-1.37,1.82-2.39c.46-1.02.8-2.26,1-3.75h.5v7.14h4.41v.59h-4.39ZM200.39,213.39c-.47.76-1.09,1.36-1.85,1.79v10.48c0,.75.03,1.41.1,1.98s.17,1.03.31,1.37c.14.34.35.68.63,1,.75.85,1.73,1.28,2.92,1.28.21,0,.4,0,.56-.02-.59-.13-1.05-.3-1.38-.51-.33-.21-.59-.51-.78-.91-.19-.4-.32-.95-.4-1.64-.08-.7-.12-1.55-.12-2.58v-12.23Z"/>
    <path d="M246.01,204.89l2.36,7.02h-.69c-.66-1.25-1.35-2.31-2.07-3.21-.72-.89-1.47-1.62-2.26-2.17-.79-.56-1.62-.97-2.51-1.23-.89-.26-1.89-.39-3-.39-1.58,0-3.06.29-4.43.88s-2.56,1.42-3.57,2.5c-1.01,1.07-1.79,2.35-2.35,3.81-.56,1.47-.84,3.05-.84,4.74,0,2.56.52,4.89,1.55,6.99s2.46,3.76,4.26,4.96,3.81,1.8,6.01,1.8c1.52,0,2.94-.29,4.26-.87,1.32-.58,2.5-1.41,3.54-2.5,1.03-1.09,1.93-2.46,2.7-4.11h.83c-1.13,2.91-2.83,5.12-5.1,6.62-2.27,1.5-5.04,2.25-8.32,2.25-3.83,0-7-1.01-9.51-3.03-1.08-.88-1.98-1.87-2.71-2.99s-1.29-2.34-1.68-3.67c-.39-1.33-.58-2.7-.58-4.1,0-2.61.67-4.99,2.02-7.16,1.35-2.16,3.21-3.86,5.58-5.1,2.37-1.24,4.99-1.86,7.87-1.86,1.21,0,2.8.17,4.78.51,1.37.25,2.36.37,2.98.37.27,0,.56-.03.87-.08ZM235.63,231.32c-1.71-.46-3.25-1.11-4.63-1.97-1.38-.85-2.54-1.87-3.47-3.05s-1.63-2.52-2.11-4.02-.71-3.14-.71-4.91c0-1.31.12-2.49.36-3.54.24-1.05.63-2.05,1.18-3s1.23-1.83,2.07-2.64,1.85-1.61,3.04-2.4c-1.41.62-2.65,1.35-3.73,2.19-1.08.85-1.98,1.8-2.72,2.85-.74,1.06-1.3,2.21-1.67,3.46-.38,1.25-.56,2.56-.56,3.92,0,1.47.21,2.87.64,4.21s1.04,2.56,1.83,3.68c.79,1.11,1.75,2.06,2.88,2.83,1.13.76,2.29,1.33,3.5,1.7,1.2.37,2.57.6,4.1.68Z"/>
    <path d="M251.39,223.38c0-1.52.42-2.93,1.26-4.24.84-1.3,1.98-2.33,3.41-3.09,1.43-.75,3-1.13,4.71-1.13,1.28,0,2.48.21,3.61.64,1.13.43,2.12,1.03,2.98,1.81.86.78,1.53,1.69,2,2.73.48,1.04.72,2.13.72,3.27,0,1.51-.41,2.92-1.24,4.23s-1.96,2.34-3.39,3.1-2.99,1.13-4.66,1.13-3.28-.37-4.71-1.12c-1.44-.75-2.58-1.77-3.42-3.08-.84-1.3-1.26-2.72-1.26-4.26ZM257.36,230.71c-.64-.5-1.08-.87-1.32-1.11-.24-.24-.49-.57-.76-.97-.86-1.36-1.29-3.12-1.29-5.27,0-3.57,1.24-6.07,3.73-7.51-1.13.41-2.12,1-2.97,1.77-.85.77-1.51,1.65-1.97,2.63-.46.98-.7,2.03-.7,3.13s.23,2.11.69,3.11c.46,1,1.09,1.86,1.91,2.58.44.35.8.62,1.07.79.27.17.81.46,1.61.87ZM255.8,223.26c0,1.14.12,2.19.35,3.15.23.96.57,1.77,1.02,2.45.44.68.97,1.2,1.58,1.56s1.28.55,2,.55,1.38-.19,2-.56c.62-.37,1.14-.89,1.57-1.55.43-.66.76-1.48,1-2.45.23-.97.35-2.02.35-3.15,0-1.51-.21-2.84-.62-4.01-.41-1.17-.99-2.07-1.73-2.71s-1.61-.96-2.59-.96c-1.49,0-2.69.71-3.59,2.12-.9,1.42-1.35,3.27-1.35,5.56ZM262.8,231.02c1.77-.76,3.13-1.8,4.06-3.12.93-1.32,1.4-2.83,1.4-4.53s-.45-3.3-1.36-4.66c-.91-1.36-2.11-2.33-3.62-2.89,2.06,1.47,3.08,3.97,3.08,7.49,0,1.78-.26,3.27-.78,4.46-.52,1.19-1.34,2.2-2.47,3.01l-.32.24Z"/>
    <path d="M273.13,229.23c0-.47.11-.9.34-1.28.23-.38.54-.68.93-.9s.83-.33,1.31-.33.92.11,1.31.33.7.52.93.9c.23.38.34.81.34,1.28s-.11.9-.34,1.28c-.23.38-.54.68-.93.9s-.83.33-1.31.33-.92-.11-1.31-.33-.7-.52-.93-.9-.34-.81-.34-1.28ZM276.08,230.69v-2.91c0-.33-.16-.49-.48-.49-.47,0-.89.2-1.25.59-.36.39-.54.84-.54,1.36s.18.96.55,1.36c.37.39.78.59,1.24.59.32,0,.48-.16.48-.49Z"/>
  </g>
  <path d="M82.38,79.82c5.88,4.18,6.95,7.2,6.69,9.27-.57,4.67-8.06,5.96-8.06,10.26,0,3.8,5.83,4.48,6.3,8.78.52,4.74-6.23,6.86-6.56,12.47-.22,3.67,2.44,6.81,4.59,8.8" fill="none" stroke="#000" stroke-miterlimit="10"/>
  <path d="M123.83,59.57c5.88,4.18,6.95,7.2,6.69,9.27-.57,4.67-8.06,5.96-8.06,10.26,0,3.8,5.83,4.48,6.3,8.78.52,4.74-6.23,6.86-6.56,12.47-.22,3.67,2.44,6.81,4.59,8.8" fill="none" stroke="#000" stroke-miterlimit="10"/>
  <path d="M171.19,57.65c5.88,4.18,6.95,7.2,6.69,9.27-.57,4.67-8.06,5.96-8.06,10.26,0,3.8,5.83,4.48,6.3,8.78.52,4.74-6.23,6.86-6.56,12.47-.22,3.67,2.44,6.81,4.59,8.8" fill="none" stroke="#000" stroke-miterlimit="10"/>
  <path d="M209.84,79.76c5.77,4.32,6.76,7.37,6.46,9.43-.69,4.65-8.21,5.76-8.32,10.06-.1,3.8,5.71,4.62,6.07,8.93.4,4.75-6.41,6.71-6.88,12.31-.31,3.67,2.27,6.86,4.37,8.91" fill="none" stroke="#000" stroke-miterlimit="10"/>
  <path d="M84.31,155.02c4.65-4.55,26.17-24.59,60.29-25.61,38-1.14,62.34,22.21,66.31,26.15" fill="none" stroke="#000" stroke-miterlimit="10" stroke-width=".75"/>
</svg>