<?xml version="1.0" encoding="UTF-8"?>
<svg id="perogiHatLogo" xmlns="http://www.w3.org/2000/svg" viewBox="0 0 300 300">
  <rect x="24.22" y="51.02" width="251.57" height="197.96" fill="#fff" stroke="#000" stroke-miterlimit="10" stroke-width=".5"/>
  <g>
    <path d="M52.26,131.55c0,1.63-.54,2.97-1.62,4.02-1.08,1.05-2.58,1.59-4.5,1.64-.49,0-1-.08-1.55-.23-1.01-.29-1.54-.43-1.59-.43-.53-.11-1.06-.23-1.6-.35-.54-.12-1.01-.37-1.41-.74-.59-.53-1.08-1.39-1.45-2.58-.46-1.39-.82-2.26-1.06-2.61-.18-.18-.39-.48-.63-.93-.07-.33,0-.66.18-.98.19-.32.41-.52.68-.61.13-.04.38-.07.73-.07.77,0,1.71.09,2.83.28,1.11.19,1.74.36,1.87.51.13.15.31.95.53,2.38.2,1.32.5,2.06.89,2.21.09.04.19.07.3.07.42,0,.78-.35,1.07-1.04.3-.69.45-1.48.45-2.36,0-1.92-.59-3.19-1.79-3.83-2.73-1.48-4.65-2.84-5.75-4.1-1.28-1.45-1.85-3.17-1.72-5.16.11-1.65.71-3.32,1.8-5.01,1.09-1.69,2.24-2.67,3.45-2.96.51-.11,2.05.38,4.63,1.45.64.24,1.28.5,1.93.76.65.26,1.17.65,1.57,1.16.62.77.92,2.1.92,4,0,.35-.01.87-.03,1.55-.02.6-.03,1.01-.03,1.26.02.15.1.41.23.76.11.24.15.48.13.73-.04.97-.45,1.51-1.22,1.62-.44.07-1.26-.1-2.45-.5-1.32-.42-2.16-.87-2.51-1.35-.04-.07-.07-.29-.07-.66,0-.33.04-1.08.12-2.25.08-1.17.12-2.02.12-2.54,0-.95-.11-1.41-.33-1.39-.68.04-1.25.53-1.7,1.47-.45.94-.68,2-.68,3.19,0,1.98.58,3.39,1.75,4.23,1.32.84,2.64,1.67,3.97,2.51,1.26.82,2.13,1.63,2.61,2.45.62,1.06.93,2.53.93,4.43Z" fill="#006837"/>
    <path d="M69.74,132.18c-.26,1.04-.68,1.66-1.26,1.88-.18.07-.41.08-.71.03-.3-.04-.51-.03-.64.03l-4.89,2.05c-.15.07-.31.25-.48.56-.17.31-.33.48-.48.53-.49.18-1.51.01-3.07-.5s-2.51-.98-2.84-1.42c-.24-.35-.32-.9-.23-1.65.04-.35.07-.63.07-.83v-22.21c-.04-.22-.13-.41-.26-.56-.13-.15-.2-.29-.2-.4.04-.42.43-.73,1.16-.93.46-.11,1.46.06,3.01.5,1.74.51,2.62,1.1,2.64,1.78,0,.18-.12.44-.36.79-.24.35-.36.62-.36.79v18.28l3.44-1.49c.2-.18.57-.37,1.12-.59.31-.04,1.13.42,2.48,1.4s1.97,1.62,1.88,1.93Z" fill="#29abe2"/>
    <path d="M81.61,137.04c-.46.04-.98-.02-1.55-.18-.57-.17-1.14-.34-1.69-.51-.66-.18-1.7-.5-3.11-.96-1.76-.77-3.1-2.29-4-4.56-.79-2-1.19-4.43-1.19-7.27,0-2.31.4-5.01,1.19-8.1,1.08-4.14,2.48-6.21,4.2-6.21.15,0,.37.04.64.12.28.08.49.13.64.15,1.63-.46,2.68-.69,3.14-.69.22,0,.44.01.66.03,2.64.33,4.73,1.98,6.25,4.96,1.37,2.69,2.05,5.89,2.05,9.62,0,3.53-.62,6.56-1.85,9.09-1.32,2.75-3.12,4.26-5.39,4.53ZM81.02,112.81c-.48-.13-.96.52-1.44,1.95-.47,1.43-.95,2.15-1.44,2.15-.11,0-.27-.06-.48-.18-.21-.12-.38-.19-.51-.21-.75,1.65-1.12,4.01-1.12,7.07,0,2.4.25,4.46.76,6.18.57,1.92,1.37,2.98,2.38,3.17,1.19.22,2.15-1,2.88-3.67.64-2.34.96-5.11.96-8.33,0-2.18-.17-4.01-.5-5.49-.35-1.59-.85-2.47-1.49-2.64Z" fill="#8cc63f"/>
    <path d="M109.57,132.11c.2.37-.19,1.29-1.17,2.76s-1.8,2.19-2.46,2.17c-.71-.02-1.27-.4-1.69-1.12-.07-.22-.23-.54-.5-.96l-6.97-6.51v6.11c0,.24.09.55.28.93.19.38.28.65.28.83,0,.66-.43,1.02-1.29,1.09-.66.07-1.64-.06-2.94-.36-1.41-.31-2.12-.64-2.12-.99,0-.11.03-.26.08-.45.05-.19.08-.42.08-.71v-23.07c0-.15-.03-.29-.1-.41-.07-.12-.1-.21-.1-.28.02-.6.46-.95,1.32-1.06.26-.04.86.06,1.8.31s1.6.37,2,.35c.37-.02,1.14-.32,2.3-.91,1.16-.58,2.17-.88,3.02-.88.33,0,.67.03,1.03.1.62.13,1.18.42,1.69.86.51.44.99.88,1.45,1.32,1.21,1.15,1.84,1.75,1.88,1.82.57.66.88,1.4.93,2.21.13,2.56-2.05,5.84-6.54,9.85.93.84,2.96,2.88,6.12,6.11.2.07.48.2.86.4.22.11.47.28.76.5ZM102.27,113.64c-1.04,0-2.86,1.08-5.49,3.24v5.06c.95-.37,2.19-1.51,3.73-3.4,1.54-1.9,2.31-3.31,2.31-4.23,0-.44-.19-.66-.56-.66Z" fill="#f15a24"/>
    <path d="M141.34,135.65c-.15.95-.42,1.46-.79,1.55-.53.13-1.54-.01-3.04-.43-1.59-.44-2.49-.88-2.71-1.32-.07-.15-.1-.32-.1-.5,0-.13.03-.35.08-.64.06-.3.08-.55.08-.74v-15.01c-1.04,2.03-2.39,6.59-4.07,13.68-.02.09-.03.19-.03.3,0,.22.04.57.12,1.06.08.48.12.79.12.93-.02.68-.06,1.12-.1,1.32-.11.44-.34.71-.69.79-.22.07-.61.1-1.16.1-2.86,0-4.84-.5-5.92-1.49-.18-.15-.24-.43-.2-.83.04-.48.04-.8,0-.96-.82-2.51-1.54-4.72-2.18-6.61-1.54-4.58-2.54-7.28-3.01-8.1v13.15c0,.29.09.68.26,1.19.22.62.34,1,.36,1.16.09.44.11.97.07,1.59-.04.75-.2,1.21-.46,1.39-.13.09-.39.13-.76.13-.82,0-1.79-.14-2.91-.43-1.21-.29-1.93-.58-2.15-.89-.11-.15-.17-.34-.17-.56,0-.13.04-.35.12-.66.08-.31.12-.55.12-.73v-23.43c0-.26.11-.57.33-.91.22-.34.47-.57.76-.68.38-.15,1.82.11,4.33.79,2.62.68,4.01,1.28,4.17,1.79.07.2.08.46.03.79-.07.46-.1.74-.1.83,0,.2.03.38.1.53l4.46,12c.62-1.96,1.74-5.94,3.37-11.93.82-3.06,1.48-4.66,1.98-4.79.15-.04.33-.07.53-.07.37,0,1,.1,1.88.3.97.24,1.64.37,2.02.4,1.74.15,2.74.25,3.01.3,1.04.2,1.62.56,1.75,1.09.04.15.07.32.07.5,0,.22-.06.53-.17.94-.11.41-.17.71-.17.91v20.23c0,.22.14.55.41.99.27.44.39.77.35.99Z" fill="#ff7bac"/>
    <path d="M179.18,111.49c-1.7,3.11-3.24,7.83-4.63,14.18-1.15,5.2-1.67,8.35-1.59,9.45-.04.18-.03.4.03.66.07.26.09.46.07.6-.15,1.04-.45,1.59-.89,1.65-.35.07-1.45-.32-3.3-1.16-1.92-.82-2.94-1.42-3.07-1.82-.02-.04-.05-.73-.1-2.05-.95-2.91-1.58-5.86-1.88-8.86-.62,1.59-1.22,3.17-1.82,4.76-.57,1.72-.84,3.43-.79,5.12-.04.2-.04.46,0,.79.07.35.08.63.03.83-.2.95-.51,1.49-.92,1.62-.13.04-.31.07-.53.07-1.01,0-2.16-.23-3.44-.69-1.56-.55-2.46-1.21-2.68-1.98.02-.18,0-.75-.07-1.72-1.04-3.77-1.73-7.18-2.08-10.25-.35-2.93-.5-6.49-.43-10.68-.2-1.04-.25-1.69-.17-1.95.29-.95.68-1.41,1.19-1.39.57.02,1.49.36,2.74,1.02s1.93,1.19,2.02,1.59c.02.13-.01.76-.1,1.88-.09,1.01-.13,1.95-.13,2.81,0,1.87.32,4.94.96,9.19l4.63-14.51c.04-.29.18-.68.4-1.19.26-.33.59-.53.99-.6.24-.04,1.12.3,2.64,1.04s2.29,1.25,2.31,1.54c0,.15-.02.89-.07,2.21-.07,1.56-.1,2.93-.1,4.1,0,2.86.18,5.32.53,7.37.59-3.04,1.37-6.18,2.31-9.42.73-2.58,1.29-4.33,1.69-5.26.24-1.1.83-1.59,1.75-1.45.75.11,1.56.36,2.45.76,1.17.53,1.85,1.1,2.05,1.72Z" fill="#d9e021"/>
    <path d="M190.98,137.04c-.46.04-.98-.02-1.55-.18-.57-.17-1.14-.34-1.69-.51-.66-.18-1.7-.5-3.11-.96-1.76-.77-3.1-2.29-4-4.56-.79-2-1.19-4.43-1.19-7.27,0-2.31.4-5.01,1.19-8.1,1.08-4.14,2.48-6.21,4.2-6.21.15,0,.37.04.64.12.28.08.49.13.64.15,1.63-.46,2.68-.69,3.14-.69.22,0,.44.01.66.03,2.64.33,4.73,1.98,6.25,4.96,1.37,2.69,2.05,5.89,2.05,9.62,0,3.53-.62,6.56-1.85,9.09-1.32,2.75-3.12,4.26-5.39,4.53ZM190.39,112.81c-.48-.13-.96.52-1.44,1.95-.47,1.43-.95,2.15-1.44,2.15-.11,0-.27-.06-.48-.18-.21-.12-.38-.19-.51-.21-.75,1.65-1.12,4.01-1.12,7.07,0,2.4.25,4.46.76,6.18.57,1.92,1.37,2.98,2.38,3.17,1.19.22,2.15-1,2.88-3.67.64-2.34.96-5.11.96-8.33,0-2.18-.17-4.01-.5-5.49-.35-1.59-.85-2.47-1.49-2.64Z" fill="#fbb03b"/>
    <path d="M218.95,132.11c.2.37-.19,1.29-1.17,2.76s-1.8,2.19-2.46,2.17c-.71-.02-1.27-.4-1.69-1.12-.07-.22-.23-.54-.5-.96l-6.97-6.51v6.11c0,.24.09.55.28.93.19.38.28.65.28.83,0,.66-.43,1.02-1.29,1.09-.66.07-1.64-.06-2.94-.36-1.41-.31-2.12-.64-2.12-.99,0-.11.03-.26.08-.45.05-.19.08-.42.08-.71v-23.07c0-.15-.03-.29-.1-.41-.07-.12-.1-.21-.1-.28.02-.6.46-.95,1.32-1.06.26-.04.86.06,1.8.31s1.6.37,2,.35c.37-.02,1.14-.32,2.3-.91,1.16-.58,2.17-.88,3.02-.88.33,0,.67.03,1.03.1.62.13,1.18.42,1.69.86.51.44.99.88,1.45,1.32,1.21,1.15,1.84,1.75,1.88,1.82.57.66.88,1.4.93,2.21.13,2.56-2.05,5.84-6.54,9.85.93.84,2.96,2.88,6.12,6.11.2.07.48.2.86.4.22.11.47.28.76.5ZM211.64,113.64c-1.04,0-2.86,1.08-5.49,3.24v5.06c.95-.37,2.19-1.51,3.73-3.4,1.54-1.9,2.31-3.31,2.31-4.23,0-.44-.19-.66-.56-.66Z" fill="#0071bc"/>
    <path d="M250.71,135.65c-.15.95-.42,1.46-.79,1.55-.53.13-1.54-.01-3.04-.43-1.59-.44-2.49-.88-2.71-1.32-.07-.15-.1-.32-.1-.5,0-.13.03-.35.08-.64.06-.3.08-.55.08-.74v-15.01c-1.04,2.03-2.39,6.59-4.07,13.68-.02.09-.03.19-.03.3,0,.22.04.57.12,1.06.08.48.12.79.12.93-.02.68-.06,1.12-.1,1.32-.11.44-.34.71-.69.79-.22.07-.61.1-1.16.1-2.86,0-4.84-.5-5.92-1.49-.18-.15-.24-.43-.2-.83.04-.48.04-.8,0-.96-.82-2.51-1.54-4.72-2.18-6.61-1.54-4.58-2.54-7.28-3.01-8.1v13.15c0,.29.09.68.26,1.19.22.62.34,1,.36,1.16.09.44.11.97.07,1.59-.04.75-.2,1.21-.46,1.39-.13.09-.39.13-.76.13-.82,0-1.79-.14-2.91-.43-1.21-.29-1.93-.58-2.15-.89-.11-.15-.17-.34-.17-.56,0-.13.04-.35.12-.66.08-.31.12-.55.12-.73v-23.43c0-.26.11-.57.33-.91.22-.34.47-.57.76-.68.38-.15,1.82.11,4.33.79,2.62.68,4.01,1.28,4.17,1.79.07.2.08.46.03.79-.07.46-.1.74-.1.83,0,.2.03.38.1.53l4.46,12c.62-1.96,1.74-5.94,3.37-11.93.82-3.06,1.48-4.66,1.98-4.79.15-.04.33-.07.53-.07.37,0,1,.1,1.88.3.97.24,1.64.37,2.02.4,1.74.15,2.74.25,3.01.3,1.04.2,1.62.56,1.75,1.09.04.15.07.32.07.5,0,.22-.06.53-.17.94-.11.41-.17.71-.17.91v20.23c0,.22.14.55.41.99.27.44.39.77.35.99Z" fill="#c1272d"/>
  </g>
  <path d="M228.05,162.56c-10.59,18.51-38.04,14.96-43.55,14.25-23.89-3.09-24.35-16.11-43.41-16.93-19.5-.84-21.59,12.67-48.33,15.41-5.64.58-33.8,3.46-39.5-11.54-2.08-5.49-1.28-13.68,2.57-17.36,7.05-6.74,18.05,7.62,37.44,9.99,22.75,2.78,25.97-14.73,49.39-13.74,23.33.98,25.93,18.6,46.91,16.87,22.27-1.83,35.68-23.04,41.12-17.3,3.24,3.41,1.15,13.71-2.65,20.35Z" fill="#c7b299" stroke="#000" stroke-miterlimit="10" stroke-width=".5"/>
  <g>
    <path d="M96.5,182.79c.02.57-.22.91-.74,1.04-.03.01-.5.05-1.42.11-.08,0-.13,0-.15.02-.77.37-1.33.62-1.7.76-.14,1.12-.15,2.62-.04,4.5.16-.11.42-.28.75-.51.3-.35.55-.52.76-.51.42.03.83.23,1.26.61s.63.78.63,1.2c0,.16-.04.31-.11.45-.14.28-.48.43-1.04.45-.63.03-1.05.13-1.26.3-.18.06-.34.17-.5.33-.16.16-.31.31-.44.46-.1.84-.1,2.03,0,3.55.06.16.09.32.09.47,0,.4-.22.72-.66.94-.16.09-.36.13-.58.13-.4,0-.77-.12-1.11-.36-.38-.25-.6-.57-.68-.96-.03-.18,0-.31.08-.4.08-.09.17-.17.25-.25-.08-5.49-.08-9.54,0-12.16-.01-.12-.02-.24-.02-.34,0-.65.4-.98,1.19-.98.14,0,.29.01.45.04.28.04.47.09.57.15.03.01.11.1.26.26.25-.09.65-.23,1.21-.42.12-.08.26-.16.41-.25.15-.09.38-.14.69-.14.37,0,.76.16,1.19.47.43.32.65.66.66,1.02Z"/>
    <path d="M100.5,196.75c-.25.48-.72.72-1.4.72-.63,0-1.07-.21-1.32-.64-.08-.13-.11-.26-.11-.42,0-.13.04-.33.13-.62.09-.29.13-.53.13-.72l-.08-12.2v-1.02c.04-.16.21-.3.53-.41.31-.11.65-.16,1-.16.52,0,.84.09.98.28.14.19.21.38.21.58,0,.14-.05.37-.15.69s-.15.58-.15.78v11.33c0,.19.05.44.16.75.11.31.16.53.16.67s-.03.26-.09.38Z"/>
    <path d="M110.29,195.86c-.19.62-.66.92-1.4.92-.25,0-.45-.04-.6-.13-.2-.14-.34-.42-.42-.83-.15-.72-.3-1.28-.45-1.68-.04.69-.42,1.39-1.13,2.11s-1.44,1.07-2.17,1.07c-.92,0-1.56-.61-1.91-1.83-.13-.45-.19-.88-.19-1.28,0-1.17.6-2.17,1.79-3,.98-.58,1.97-1.15,2.97-1.72.05-.21.08-.42.08-.62,0-.39-.11-.62-.32-.69-.21-.07-.4-.1-.55-.1-.26,0-.48.08-.65.25l-.48.48c-.15.1-.35.33-.59.7-.19.29-.4.45-.62.47-.33.04-.62-.08-.89-.34s-.4-.57-.4-.92c0-.2.05-.38.15-.55.29-.48.72-.89,1.3-1.25.88-.53,1.98-.79,3.31-.79.84,0,1.42.4,1.74,1.21.2.54.35,1.55.45,3.04.11,1.8.25,3.12.42,3.95.02.16.13.37.32.62.19.25.28.47.28.66,0,.09-.01.18-.04.26ZM107,191.21c-.38.2-.75.41-1.12.62-.37.21-.71.5-1.03.85-.45.52-.68.96-.68,1.32,0,.3.11.62.34.94.12.18.26.26.42.26.33,0,.68-.37,1.07-1.1.38-.73.72-1.7,1.01-2.91Z"/>
    <path d="M119.58,186.46c.09.16.13.33.13.51,0,.25-.11.57-.32.94-.3.5-.48.83-.53.96-.55,1.59-1.26,3.59-2.13,6.01-.16.83-.37,1.42-.62,1.78-.32.48-.78.7-1.4.66-.59-.04-.99-.16-1.19-.36-.15-.15-.23-.38-.23-.7v-.4c0-.23-.02-.42-.06-.57l-1.93-6.91c-.04-.15-.2-.4-.49-.74-.24-.26-.33-.51-.28-.74.13-.55.57-.83,1.34-.83.16,0,.32.01.45.04.49.1.98.96,1.45,2.59.39,1.52.79,3.04,1.19,4.55l1.96-6.04c.1-.3.18-.51.25-.62.11-.2.27-.36.48-.47.21-.11.46-.17.77-.17.58,0,.96.17,1.15.51Z"/>
    <path d="M126.3,186.91c.84.86,1.27,2.3,1.27,4.33,0,1.57-.3,2.92-.89,4.02-.67,1.25-1.59,1.87-2.76,1.87s-2.05-.56-2.68-1.68c-.55-.98-.83-2.23-.83-3.74,0-1.33.21-2.53.64-3.59.45-1.13,1.03-1.8,1.74-2,.37-.1.74-.15,1.13-.15.97,0,1.76.32,2.38.94ZM124.15,187.82c-.42-.04-.77.35-1.08,1.17-.26.74-.4,1.52-.4,2.34,0,1.18.05,2.02.15,2.51.18.88.54,1.37,1.1,1.45.35.05.68-.43.98-1.45.29-.98.43-2.03.43-3.15,0-1.84-.4-2.79-1.19-2.87Z"/>
    <path d="M136.16,187.44c.02.19-.01.39-.11.6-.13.29-.2.5-.23.64,0,2.62-.11,4.44-.32,5.46-.47,2.14-1.46,3.21-2.97,3.21-2.2,0-3.3-2.01-3.3-6.03,0-1.08.08-2.23.25-3.44-.09-.29-.13-.55-.13-.77,0-.37.12-.67.36-.93.2-.21.5-.32.89-.32.31,0,.61.07.89.2.28.13.44.29.49.46.03.09.04.18.04.26,0,.16-.07.42-.21.78-.14.36-.2.65-.17.88-.13.71-.19,1.59-.19,2.66s.07,1.98.21,2.7c.18.83.42,1.25.74,1.25.53,0,.88-.89,1.04-2.68.09-.89.13-2.32.13-4.27,0-.13-.02-.31-.06-.55-.04-.24-.06-.42-.06-.53,0-.3.11-.51.34-.62.12-.06.3-.09.53-.09.42,0,.8.09,1.15.26.42.21.65.5.7.85Z"/>
    <path d="M145.08,187.02c-.05.26-.29.45-.72.55-.5.13-.83.27-.96.43l-3.08,3.55v2.87c0,.28.08.56.24.84.16.28.24.5.24.65s-.04.32-.13.51c-.21.48-.65.72-1.3.72-.45,0-.81-.15-1.08-.43-.18-.19-.26-.43-.26-.72,0-.1.01-.26.04-.49s.04-.41.04-.55v-7.06c0-.11-.05-.25-.15-.42-.1-.16-.15-.29-.15-.4,0-.08.03-.16.08-.26.16-.3.67-.45,1.53-.45.67,0,1.05.16,1.13.47.04.13.06.23.06.32,0,.14-.05.25-.15.32-.1.08-.15.15-.15.23l.04.68,1.62-1.72c.19-.21.39-.43.6-.64.21-.21.45-.33.73-.36.43-.04.84.06,1.24.28s.59.52.59.89c0,.06,0,.13-.02.19Z"/>
    <path d="M151.91,194.67c-.1.48-.44.99-1.02,1.53-.09.14-.43.32-1.04.55-.69.26-1.29.38-1.79.34-.94-.06-1.69-.6-2.23-1.62-.49-.95-.74-2.1-.74-3.48,0-1.49.28-2.79.83-3.91.62-1.23,1.44-1.93,2.47-2.08.2-.03.4-.04.58-.04,1.5,0,2.32.92,2.47,2.76.08.84-.26,1.76-1,2.76-.81,1.09-1.84,1.86-3.1,2.3.14.5.25.83.32.98.18.31.42.47.72.47s.6-.11.92-.34c.28-.19.47-.37.57-.55.05-.02.1-.17.15-.42.05-.26.18-.44.4-.56.08-.04.16-.06.26-.06.3,0,.59.15.88.44.28.3.39.6.33.92ZM148.95,188.02c-.5,0-.91.36-1.23,1.08-.42.96-.58,1.9-.51,2.83.59-.19,1.14-.63,1.64-1.32.5-.69.75-1.31.75-1.85,0-.49-.22-.74-.66-.74Z"/>
    <path d="M160.39,196.54c-.15.34-.62.51-1.4.51-.49,0-.82-.1-.98-.3-.06-.06-.09-.15-.09-.26,0-.09.03-.23.09-.42.06-.19.1-.33.11-.43-.58.82-1.26,1.23-2.04,1.23-1.04,0-1.81-.59-2.29-1.78-.37-.91-.55-2.08-.55-3.53,0-1.33.28-2.55.85-3.65.63-1.2,1.4-1.79,2.32-1.79.52,0,1.04.42,1.59,1.25v-2.44c0-.2-.08-.46-.25-.77-.16-.31-.25-.55-.25-.72,0-.12.03-.25.09-.38.26-.57.78-.85,1.55-.85.63,0,1.02.23,1.17.68.05.15.08.3.08.43s-.04.33-.12.56c-.08.23-.12.43-.12.59v10.77c0,.14.05.31.15.5.1.2.15.36.15.48,0,.1-.03.21-.08.32ZM157.79,191.55c0-.58-.12-1.26-.36-2.04-.26-.83-.52-1.25-.77-1.25-.29,0-.52.38-.7,1.15-.14.63-.21,1.34-.21,2.13,0,.14,0,.37-.02.68v.7c0,1.42.31,2.13.92,2.13.29,0,.55-.41.79-1.23.23-.75.34-1.52.34-2.29Z"/>
    <path d="M173.69,192.67c-1.2,2.98-2.39,4.48-3.59,4.5-1.45.01-2.51-.74-3.17-2.25-.52-1.16-.78-2.68-.79-4.55-.01-2.12.26-4.04.83-5.78.65-2.03,1.54-3.1,2.66-3.23.16-.01.32-.02.47-.02,1.04,0,1.85.47,2.42,1.4.42.71.77,1.83,1.06,3.36.21.62.32,1,.32,1.13,0,.42-.26.74-.77.96-.11.05-.25.08-.4.08-.37,0-.77-.12-1.21-.36-.52-.28-.77-.58-.77-.91,0-.05.09-.3.26-.74-.03-.55-.13-1.08-.3-1.58-.18-.5-.38-.77-.6-.82-.35-.09-.66.61-.92,2.1-.23,1.23-.37,2.59-.42,4.08-.04,1.12.03,2.16.19,3.12.19,1.1.47,1.68.85,1.76.23.04.5-.25.81-.85.3-.55.55-1.21.75-1.96-.03-.13-.04-.25-.04-.36,0-.74.45-1.11,1.36-1.11.2,0,.4.02.6.06.62.13.93.43.93.93,0,.4-.18.76-.53,1.06Z"/>
    <path d="M181.51,186.91c.84.86,1.27,2.3,1.27,4.33,0,1.57-.3,2.92-.89,4.02-.67,1.25-1.59,1.87-2.76,1.87s-2.05-.56-2.68-1.68c-.55-.98-.83-2.23-.83-3.74,0-1.33.21-2.53.64-3.59.45-1.13,1.03-1.8,1.74-2,.37-.1.74-.15,1.13-.15.97,0,1.76.32,2.38.94ZM179.36,187.82c-.42-.04-.77.35-1.08,1.17-.26.74-.4,1.52-.4,2.34,0,1.18.05,2.02.15,2.51.18.88.54,1.37,1.1,1.45.35.05.68-.43.98-1.45.29-.98.43-2.03.43-3.15,0-1.84-.4-2.79-1.19-2.87Z"/>
    <path d="M187.12,196.75c-.25.48-.72.72-1.4.72-.63,0-1.07-.21-1.32-.64-.08-.13-.11-.26-.11-.42,0-.13.04-.33.13-.62.09-.29.13-.53.13-.72l-.08-12.2v-1.02c.04-.16.21-.3.53-.41.31-.11.65-.16,1-.16.52,0,.84.09.98.28.14.19.21.38.21.58,0,.14-.05.37-.15.69s-.15.58-.15.78v11.33c0,.19.05.44.16.75.11.31.16.53.16.67s-.03.26-.09.38Z"/>
    <path d="M196.9,195.86c-.19.62-.66.92-1.4.92-.25,0-.45-.04-.6-.13-.2-.14-.34-.42-.42-.83-.15-.72-.3-1.28-.45-1.68-.04.69-.42,1.39-1.13,2.11s-1.44,1.07-2.17,1.07c-.92,0-1.56-.61-1.91-1.83-.13-.45-.19-.88-.19-1.28,0-1.17.6-2.17,1.79-3,.98-.58,1.97-1.15,2.97-1.72.05-.21.08-.42.08-.62,0-.39-.11-.62-.32-.69-.21-.07-.4-.1-.55-.1-.26,0-.48.08-.65.25l-.48.48c-.15.1-.35.33-.59.7-.19.29-.4.45-.62.47-.33.04-.62-.08-.89-.34s-.4-.57-.4-.92c0-.2.05-.38.15-.55.29-.48.72-.89,1.3-1.25.88-.53,1.98-.79,3.31-.79.84,0,1.42.4,1.74,1.21.2.54.35,1.55.45,3.04.11,1.8.25,3.12.42,3.95.02.16.13.37.32.62.19.25.28.47.28.66,0,.09-.01.18-.04.26ZM193.62,191.21c-.38.2-.75.41-1.12.62-.37.21-.71.5-1.03.85-.45.52-.68.96-.68,1.32,0,.3.11.62.34.94.12.18.26.26.42.26.33,0,.68-.37,1.07-1.1.38-.73.72-1.7,1.01-2.91Z"/>
  </g>
</svg>