<svg id="Layer_2" data-name="Layer 2" viewBox="0 0 1920 1080">
  <defs>
    <radialGradient id="radial-gradient" cx="975.06" cy="516.88" fx="975.06" fy="516.88" r="358.8" gradientUnits="userSpaceOnUse">
      <stop offset="0" stop-color="#656565"/>
      <stop offset=".62" stop-color="#1b1b1b"/>
      <stop offset=".92" stop-color="#93278f"/>
      <stop offset=".98" stop-color="#6d1d6d"/>
    </radialGradient>
    <filter id="drop-shadow-1" x="664" y="264.85" width="86" height="86" filterUnits="userSpaceOnUse">
      <feOffset dx="0" dy="0"/>
      <feGaussianBlur result="blur" stdDeviation="10"/>
      <feFlood flood-color="#f9ff00" flood-opacity="1"/>
      <feComposite in2="blur" operator="in"/>
      <feComposite in="SourceGraphic"/>
    </filter>
    <filter id="drop-shadow-2" x="759" y="181.85" width="86" height="86" filterUnits="userSpaceOnUse">
      <feOffset dx="0" dy="0"/>
      <feGaussianBlur result="blur-2" stdDeviation="10"/>
      <feFlood flood-color="#f9ff00" flood-opacity="1"/>
      <feComposite in2="blur-2" operator="in"/>
      <feComposite in="SourceGraphic"/>
    </filter>
    <filter id="drop-shadow-3" x="866" y="140.85" width="86" height="86" filterUnits="userSpaceOnUse">
      <feOffset dx="0" dy="0"/>
      <feGaussianBlur result="blur-3" stdDeviation="10"/>
      <feFlood flood-color="#f9ff00" flood-opacity="1"/>
      <feComposite in2="blur-3" operator="in"/>
      <feComposite in="SourceGraphic"/>
    </filter>
    <filter id="drop-shadow-4" x="987" y="136.85" width="86" height="86" filterUnits="userSpaceOnUse">
      <feOffset dx="0" dy="0"/>
      <feGaussianBlur result="blur-4" stdDeviation="10"/>
      <feFlood flood-color="#f9ff00" flood-opacity="1"/>
      <feComposite in2="blur-4" operator="in"/>
      <feComposite in="SourceGraphic"/>
    </filter>
    <filter id="drop-shadow-5" x="1102" y="176.85" width="86" height="87" filterUnits="userSpaceOnUse">
      <feOffset dx="0" dy="0"/>
      <feGaussianBlur result="blur-5" stdDeviation="10"/>
      <feFlood flood-color="#f9ff00" flood-opacity="1"/>
      <feComposite in2="blur-5" operator="in"/>
      <feComposite in="SourceGraphic"/>
    </filter>
    <filter id="drop-shadow-6" x="1197" y="259.85" width="86" height="87" filterUnits="userSpaceOnUse">
      <feOffset dx="0" dy="0"/>
      <feGaussianBlur result="blur-6" stdDeviation="10"/>
      <feFlood flood-color="#f9ff00" flood-opacity="1"/>
      <feComposite in2="blur-6" operator="in"/>
      <feComposite in="SourceGraphic"/>
    </filter>
    <filter id="drop-shadow-7" x="1256" y="375.85" width="86" height="86" filterUnits="userSpaceOnUse">
      <feOffset dx="0" dy="0"/>
      <feGaussianBlur result="blur-7" stdDeviation="10"/>
      <feFlood flood-color="#f9ff00" flood-opacity="1"/>
      <feComposite in2="blur-7" operator="in"/>
      <feComposite in="SourceGraphic"/>
    </filter>
    <filter id="drop-shadow-8" x="1268" y="511.85" width="86" height="86" filterUnits="userSpaceOnUse">
      <feOffset dx="0" dy="0"/>
      <feGaussianBlur result="blur-8" stdDeviation="10"/>
      <feFlood flood-color="#f9ff00" flood-opacity="1"/>
      <feComposite in2="blur-8" operator="in"/>
      <feComposite in="SourceGraphic"/>
    </filter>
    <filter id="drop-shadow-9" x="1226" y="634.85" width="87" height="86" filterUnits="userSpaceOnUse">
      <feOffset dx="0" dy="0"/>
      <feGaussianBlur result="blur-9" stdDeviation="10"/>
      <feFlood flood-color="#f9ff00" flood-opacity="1"/>
      <feComposite in2="blur-9" operator="in"/>
      <feComposite in="SourceGraphic"/>
    </filter>
    <filter id="drop-shadow-10" x="1152" y="733.85" width="86" height="87" filterUnits="userSpaceOnUse">
      <feOffset dx="0" dy="0"/>
      <feGaussianBlur result="blur-10" stdDeviation="10"/>
      <feFlood flood-color="#f9ff00" flood-opacity="1"/>
      <feComposite in2="blur-10" operator="in"/>
      <feComposite in="SourceGraphic"/>
    </filter>
    <filter id="drop-shadow-11" x="1038" y="794.85" width="86" height="86" filterUnits="userSpaceOnUse">
      <feOffset dx="0" dy="0"/>
      <feGaussianBlur result="blur-11" stdDeviation="10"/>
      <feFlood flood-color="#f9ff00" flood-opacity="1"/>
      <feComposite in2="blur-11" operator="in"/>
      <feComposite in="SourceGraphic"/>
    </filter>
    <filter id="drop-shadow-12" x="922" y="811.85" width="86" height="87" filterUnits="userSpaceOnUse">
      <feOffset dx="0" dy="0"/>
      <feGaussianBlur result="blur-12" stdDeviation="10"/>
      <feFlood flood-color="#f9ff00" flood-opacity="1"/>
      <feComposite in2="blur-12" operator="in"/>
      <feComposite in="SourceGraphic"/>
    </filter>
    <filter id="drop-shadow-13" x="805" y="787.85" width="86" height="86" filterUnits="userSpaceOnUse">
      <feOffset dx="0" dy="0"/>
      <feGaussianBlur result="blur-13" stdDeviation="10"/>
      <feFlood flood-color="#f9ff00" flood-opacity="1"/>
      <feComposite in2="blur-13" operator="in"/>
      <feComposite in="SourceGraphic"/>
    </filter>
    <filter id="drop-shadow-14" x="697" y="721.85" width="86" height="86" filterUnits="userSpaceOnUse">
      <feOffset dx="0" dy="0"/>
      <feGaussianBlur result="blur-14" stdDeviation="10"/>
      <feFlood flood-color="#f9ff00" flood-opacity="1"/>
      <feComposite in2="blur-14" operator="in"/>
      <feComposite in="SourceGraphic"/>
    </filter>
    <filter id="drop-shadow-15" x="630" y="634.85" width="86" height="86" filterUnits="userSpaceOnUse">
      <feOffset dx="0" dy="0"/>
      <feGaussianBlur result="blur-15" stdDeviation="10"/>
      <feFlood flood-color="#f9ff00" flood-opacity="1"/>
      <feComposite in2="blur-15" operator="in"/>
      <feComposite in="SourceGraphic"/>
    </filter>
    <filter id="drop-shadow-16" x="598" y="520.85" width="86" height="86" filterUnits="userSpaceOnUse">
      <feOffset dx="0" dy="0"/>
      <feGaussianBlur result="blur-16" stdDeviation="10"/>
      <feFlood flood-color="#f9ff00" flood-opacity="1"/>
      <feComposite in2="blur-16" operator="in"/>
      <feComposite in="SourceGraphic"/>
    </filter>
    <filter id="drop-shadow-17" x="604" y="387.85" width="86" height="87" filterUnits="userSpaceOnUse">
      <feOffset dx="0" dy="0"/>
      <feGaussianBlur result="blur-17" stdDeviation="10"/>
      <feFlood flood-color="#f9ff00" flood-opacity="1"/>
      <feComposite in2="blur-17" operator="in"/>
      <feComposite in="SourceGraphic"/>
    </filter>
  </defs>
  <circle id="outerRingCircle" cx="975.06" cy="516.88" r="358.8" fill="url(#radial-gradient)" stroke="#93278f" stroke-miterlimit="10" stroke-width="2"/>
  <circle id="lightCircle" cx="706.98" cy="307.73" r="12.28" fill="#f9ed7d" filter="url(#drop-shadow-1)" stroke="#f9ed7d" stroke-miterlimit="10" stroke-width=".64"/>
  <circle id="lightCircle-2" data-name="lightCircle" cx="801.71" cy="224.62" r="12.28" fill="#f9ed7d" filter="url(#drop-shadow-2)" stroke="#f9ed7d" stroke-miterlimit="10" stroke-width=".64"/>
  <circle id="lightCircle-3" data-name="lightCircle" cx="909.18" cy="183.65" r="12.28" fill="#f9ed7d" filter="url(#drop-shadow-3)" stroke="#f9ed7d" stroke-miterlimit="10" stroke-width=".64"/>
  <circle id="lightCircle-4" data-name="lightCircle" cx="1030.26" cy="179.9" r="12.28" fill="#f9ed7d" filter="url(#drop-shadow-4)" stroke="#f9ed7d" stroke-miterlimit="10" stroke-width=".64"/>
  <circle id="lightCircle-5" data-name="lightCircle" cx="1145.26" cy="220.3" r="12.28" fill="#f9ed7d" filter="url(#drop-shadow-5)" stroke="#f9ed7d" stroke-miterlimit="10" stroke-width=".64"/>
  <circle id="lightCircle-6" data-name="lightCircle" cx="1239.76" cy="303.33" r="12.28" fill="#f9ed7d" filter="url(#drop-shadow-6)" stroke="#f9ed7d" stroke-miterlimit="10" stroke-width=".64"/>
  <circle id="lightCircle-7" data-name="lightCircle" cx="1298.91" cy="419.03" r="12.28" fill="#f9ed7d" filter="url(#drop-shadow-7)" stroke="#f9ed7d" stroke-miterlimit="10" stroke-width=".64"/>
  <circle id="lightCircle-8" data-name="lightCircle" cx="1311.19" cy="555.13" r="12.28" fill="#f9ed7d" filter="url(#drop-shadow-8)" stroke="#f9ed7d" stroke-miterlimit="10" stroke-width=".64"/>
  <circle id="lightCircle-9" data-name="lightCircle" cx="1269.53" cy="677.6" r="12.28" fill="#f9ed7d" filter="url(#drop-shadow-9)" stroke="#f9ed7d" stroke-miterlimit="10" stroke-width=".64"/>
  <circle id="lightCircle-10" data-name="lightCircle" cx="1195.28" cy="777.36" r="12.28" fill="#f9ed7d" filter="url(#drop-shadow-10)" stroke="#f9ed7d" stroke-miterlimit="10" stroke-width=".64"/>
  <circle id="lightCircle-11" data-name="lightCircle" cx="1081.06" cy="837.49" r="12.28" fill="#f9ed7d" filter="url(#drop-shadow-11)" stroke="#f9ed7d" stroke-miterlimit="10" stroke-width=".64"/>
  <circle id="lightCircle-12" data-name="lightCircle" cx="965.29" cy="855.32" r="12.28" fill="#f9ed7d" filter="url(#drop-shadow-12)" stroke="#f9ed7d" stroke-miterlimit="10" stroke-width=".64"/>
  <circle id="lightCircle-13" data-name="lightCircle" cx="847.75" cy="830.76" r="12.28" fill="#f9ed7d" filter="url(#drop-shadow-13)" stroke="#f9ed7d" stroke-miterlimit="10" stroke-width=".64"/>
  <circle id="lightCircle-14" data-name="lightCircle" cx="739.87" cy="765.08" r="12.28" fill="#f9ed7d" filter="url(#drop-shadow-14)" stroke="#f9ed7d" stroke-miterlimit="10" stroke-width=".64"/>
  <circle id="lightCircle-15" data-name="lightCircle" cx="672.79" cy="677.6" r="12.28" fill="#f9ed7d" filter="url(#drop-shadow-15)" stroke="#f9ed7d" stroke-miterlimit="10" stroke-width=".64"/>
  <circle id="lightCircle-16" data-name="lightCircle" cx="641.04" cy="564.21" r="12.28" fill="#f9ed7d" filter="url(#drop-shadow-16)" stroke="#f9ed7d" stroke-miterlimit="10" stroke-width=".64"/>
  <circle id="lightCircle-17" data-name="lightCircle" cx="647" cy="431.31" r="12.28" fill="#f9ed7d" filter="url(#drop-shadow-17)" stroke="#f9ed7d" stroke-miterlimit="10" stroke-width=".64"/>
  <polygon id="starDecor" points="1273.24 646.95 1276.79 666.18 1286.41 673.29 1276.79 680.41 1273.24 699.64 1269.68 680.41 1260.06 673.29 1269.68 666.18 1273.24 646.95" fill="#fcfcfc"/>
  <polygon id="starDecor-2" data-name="starDecor" points="1157.54 186 1161.1 205.23 1170.71 212.34 1161.1 219.46 1157.54 238.69 1153.98 219.46 1144.37 212.34 1153.98 205.23 1157.54 186" fill="#fcfcfc"/>
  <polygon id="starDecor-3" data-name="starDecor" points="712.81 276.99 716.37 296.22 725.98 303.33 716.37 310.45 712.81 329.68 709.25 310.45 699.63 303.33 709.25 296.22 712.81 276.99" fill="#fcfcfc"/>
  <polygon id="starDecor-4" data-name="starDecor" points="641.04 404.96 644.6 424.19 654.21 431.31 644.6 438.42 641.04 457.66 637.48 438.42 627.87 431.31 637.48 424.19 641.04 404.96" fill="#fcfcfc"/>
  <polygon id="starDecor-5" data-name="starDecor" points="844.19 809.57 847.75 828.8 857.36 835.92 847.75 843.04 844.19 862.27 840.63 843.04 831.01 835.92 840.63 828.8 844.19 809.57" fill="#fcfcfc"/>
  <g id="spinningPart">
    <circle id="smallTriangle" cx="974.58" cy="515.41" r="319.03" fill="#ff931e" stroke="#d316d8" stroke-miterlimit="10" stroke-width="2"/>
    <path id="triangle10" d="M974.58,515.41c-100.27-35.52-200.53-71.04-300.8-106.56,7.82-21.99,21.38-52.51,45.16-84.34,24.57-32.87,50.94-54.97,70.25-68.76,61.79,86.56,123.59,173.11,185.38,259.67Z" fill="#f0f" stroke="#d316d8" stroke-miterlimit="10" stroke-width="2"/>
    <path id="triangle9" d="M974.51,515.33c-102.46,28.57-204.93,57.14-307.39,85.71-6.25-22.5-12.7-55.26-11.53-94.97,1.22-41.32,10.24-74.76,18.19-97.23,100.24,35.5,200.48,70.99,300.73,106.49Z" fill="#fffdde" stroke="#d316d8" stroke-miterlimit="10" stroke-width="2"/>
    <path id="triangle8" d="M974.17,515.41c-67.53,82.18-135.06,164.37-202.6,246.55-18.02-14.84-42.1-37.98-63.93-71.18-22.55-34.29-34.34-66.61-40.74-89.46,102.42-28.64,204.84-57.27,307.27-85.91Z" fill="#f0f" stroke="#d316d8" stroke-miterlimit="10" stroke-width="2"/>
    <path id="triangle7" d="M974.41,515.17c-8.03,106.12-16.07,212.24-24.1,318.36-24.73-1.91-45.25-6.32-60.58-10.53-15.02-4.13-27.05-8.62-34.9-11.79-20.77-8.39-36.17-17.18-44.1-21.95-11.37-6.84-24.66-15.85-38.65-27.54,67.44-82.18,134.88-164.36,202.32-246.54Z" fill="#fffdde" stroke="#d316d8" stroke-miterlimit="10" stroke-width="2"/>
    <path id="triangle6" d="M974.39,515.3c54.36,91.45,108.71,182.89,163.07,274.34-21.34,12.64-40.66,20.83-55.63,26.19-14.67,5.25-27.09,8.49-35.34,10.4-21.82,5.07-39.47,6.73-48.71,7.37-13.24.93-29.29,1.2-47.46-.33,8.02-105.99,16.04-211.98,24.06-317.97Z" fill="#f0f" stroke="#d316d8" stroke-miterlimit="10" stroke-width="2"/>
    <path id="triangle5" d="M974.39,515.3c96.98,43.88,193.96,87.76,290.93,131.64-10.4,22.56-21.6,40.32-30.82,53.28-9.71,13.65-18.42,23.65-23.01,28.76-8.7,9.67-20.53,21.61-35.71,33.94-13.15,10.69-26.13,19.48-38.33,26.71-54.36-91.45-108.71-182.89-163.07-274.34Z" fill="#fffdde" stroke="#d316d8" stroke-miterlimit="10" stroke-width="2"/>
    <path id="triangle4" d="M974.4,515.35c104.58-19.83,209.16-39.66,313.74-59.49,4.46,24.44,5.5,45.41,5.4,61.32-.1,16.75-1.48,29.94-2.3,36.76-1.17,9.68-3.74,27.07-9.71,48.3-3.64,12.92-8.79,28.14-16.21,44.7-96.97-43.86-193.94-87.73-290.92-131.59Z" fill="#f0f" stroke="#d316d8" stroke-miterlimit="10" stroke-width="2"/>
    <path id="triangle3" d="M973.87,515.41c74.17-76.43,148.35-152.87,222.52-229.3,17.71,17.15,30.59,33.5,39.58,46.35,4.81,6.87,11.9,17.58,19.36,31.38,10.14,18.75,16.53,35.03,20.34,45.84,4.49,12.74,9.05,28.26,12.47,46.19-104.76,19.85-209.52,39.7-314.27,59.54Z" fill="#fffdde" stroke="#d316d8" stroke-miterlimit="10" stroke-width="2"/>
    <path id="triangle1" d="M974.33,514.96c16.29-104.96,32.58-209.93,48.88-314.89,24.32,3.75,44.26,9.64,59.04,14.94,9.25,3.32,20.96,8,34.07,14.51,17.87,8.88,32.28,18.13,43.04,25.79,14.36,10.23,26.61,20.77,36.93,30.78-73.98,76.29-147.96,152.58-221.94,228.88Z" fill="#f0f" stroke="#d316d8" stroke-miterlimit="10" stroke-width="2"/>
    <path id="triangle1-2" data-name="triangle1" d="M974.33,514.96c-47.58-94.94-95.16-189.88-142.74-284.81,22.07-11.05,41.81-17.8,56.98-22.03,8.89-2.48,21.37-5.55,36.51-7.91,11.11-1.73,28.6-3.86,50.19-3.82,13.6.03,29.82.92,47.94,3.68-16.29,104.96-32.58,209.93-48.88,314.89Z" fill="#fffdde" stroke="#d316d8" stroke-miterlimit="10" stroke-width="2"/>
    <circle id="middleCircle" cx="976.06" cy="516.88" r="34.33" fill="#93278f" stroke="#000" stroke-miterlimit="10" stroke-width=".5"/>
    <text id="CouponText" transform="translate(911.05 228.13) rotate(79.52)" fill="#f0f" font-family="OctoberTL-Heavy, &apos;October Tamil&apos;" font-size="42" font-weight="800"><tspan x="0" y="0" letter-spacing=".09em">C</tspan><tspan x="29.69" y="0" letter-spacing=".1em">oupon</tspan></text>
    <text id="_10_000Text" data-name="10,000Text" transform="translate(815.47 270.1) rotate(59.12)" fill="#fffdde" font-family="OctoberTL-Heavy, &apos;October Tamil&apos;" font-size="24" font-weight="800" letter-spacing=".15em"><tspan x="0" y="0">10,000</tspan></text>
    <text id="_100Text" data-name="100Text" transform="translate(732.71 349.61) rotate(36.5)" fill="#fffdde" font-family="OctoberTL-Heavy, &apos;October Tamil&apos;" font-size="48" font-weight="800" letter-spacing=".15em"><tspan x="0" y="0">100</tspan></text>
    <text id="CouponText-2" data-name="CouponText" transform="translate(680.73 523.28)" fill="#f0f" font-family="OctoberTL-Heavy, &apos;October Tamil&apos;" font-size="42" font-weight="800"><tspan x="0" y="0" letter-spacing=".09em">C</tspan><tspan x="29.69" y="0" letter-spacing=".1em">oupon</tspan></text>
    <text id="_20Text" data-name="20Text" transform="translate(741.69 693.42) rotate(-30.88)" fill="#fffdde" font-family="OctoberTL-Heavy, &apos;October Tamil&apos;" font-size="48" font-weight="800" letter-spacing=".15em"><tspan x="0" y="0">20</tspan></text>
    <text id="CouponText-3" data-name="CouponText" transform="translate(877.41 792.71) rotate(-67.12)" fill="#f0f" font-family="OctoberTL-Heavy, &apos;October Tamil&apos;" font-size="42" font-weight="800"><tspan x="0" y="0" letter-spacing=".09em">C</tspan><tspan x="29.69" y="0" letter-spacing=".1em">oupon</tspan></text>
    <text id="_750Text" data-name="750Text" transform="translate(1061.93 791.66) rotate(-105.48)" fill="#fffdde" font-family="OctoberTL-Heavy, &apos;October Tamil&apos;" font-size="48" font-weight="800" letter-spacing=".15em"><tspan x="0" y="0">750</tspan></text>
    <text id="_20Text-2" data-name="20Text" transform="translate(1262.38 536.78) rotate(-174.28)" fill="#fffdde" font-family="OctoberTL-Heavy, &apos;October Tamil&apos;" font-size="48" font-weight="800" letter-spacing=".15em"><tspan x="0" y="0">20</tspan></text>
    <text id="_100Text-2" data-name="100Text" transform="translate(1218.88 360.55) rotate(149.12)" fill="#f0f" font-family="OctoberTL-Heavy, &apos;October Tamil&apos;" font-size="48" font-weight="800" letter-spacing=".15em"><tspan x="0" y="0">100</tspan></text>
    <text id="_20Text-3" data-name="20Text" transform="translate(1084.19 247.34) rotate(112.88)" fill="#fffdde" font-family="OctoberTL-Heavy, &apos;October Tamil&apos;" font-size="48" font-weight="800" letter-spacing=".1em"><tspan x="0" y="0">20</tspan></text>
    <text id="CouponText-4" data-name="CouponText" transform="translate(1200.54 699.76) rotate(-138.61)" fill="#f0f" font-family="OctoberTL-Heavy, &apos;October Tamil&apos;" font-size="42" font-weight="800"><tspan x="0" y="0" letter-spacing=".09em">C</tspan><tspan x="29.69" y="0" letter-spacing=".1em">oupon</tspan></text>
  </g>
  <polygon id="topPeg" points="1012.44 146.76 933.31 146.31 973.26 215.52 1012.44 146.76" fill="#00bddd" stroke="#02565e" stroke-miterlimit="10"/>
</svg>
