<svg id="Layer_2" xmlns="http://www.w3.org/2000/svg" xmlns:xlink="http://www.w3.org/1999/xlink" viewBox="0 0 1920 1080">
  <defs>
    <radialGradient id="radial-gradient" cx="920.49" cy="558.95" fx="920.49" fy="558.95" r="486.71" gradientUnits="userSpaceOnUse">
      <stop offset="0" stop-color="#656565"/>
      <stop offset=".62" stop-color="#1b1b1b"/>
      <stop offset=".92" stop-color="#93278f"/>
      <stop offset=".98" stop-color="#6d1d6d"/>
    </radialGradient>
    <filter id="drop-shadow-1" x="282" y="-79.15" width="1277" height="1276" filterUnits="userSpaceOnUse">
      <feOffset dx="0" dy="0"/>
      <feGaussianBlur result="blur" stdDeviation="50"/>
      <feFlood flood-color="#e600ff" flood-opacity="1"/>
      <feComposite in2="blur" operator="in"/>
      <feComposite in="SourceGraphic"/>
    </filter>
    <filter id="drop-shadow-2" x="509" y="227.85" width="95" height="95" filterUnits="userSpaceOnUse">
      <feOffset dx="0" dy="0"/>
      <feGaussianBlur result="blur-2" stdDeviation="10"/>
      <feFlood flood-color="#f9ff00" flood-opacity="1"/>
      <feComposite in2="blur-2" operator="in"/>
      <feComposite in="SourceGraphic"/>
    </filter>
    <filter id="drop-shadow-3" x="638" y="114.85" width="95" height="95" filterUnits="userSpaceOnUse">
      <feOffset dx="0" dy="0"/>
      <feGaussianBlur result="blur-3" stdDeviation="10"/>
      <feFlood flood-color="#f9ff00" flood-opacity="1"/>
      <feComposite in2="blur-3" operator="in"/>
      <feComposite in="SourceGraphic"/>
    </filter>
    <filter id="drop-shadow-4" x="784" y="59.85" width="95" height="95" filterUnits="userSpaceOnUse">
      <feOffset dx="0" dy="0"/>
      <feGaussianBlur result="blur-4" stdDeviation="10"/>
      <feFlood flood-color="#f9ff00" flood-opacity="1"/>
      <feComposite in2="blur-4" operator="in"/>
      <feComposite in="SourceGraphic"/>
    </filter>
    <filter id="drop-shadow-5" x="948" y="54.85" width="95" height="94" filterUnits="userSpaceOnUse">
      <feOffset dx="0" dy="0"/>
      <feGaussianBlur result="blur-5" stdDeviation="10"/>
      <feFlood flood-color="#f9ff00" flood-opacity="1"/>
      <feComposite in2="blur-5" operator="in"/>
      <feComposite in="SourceGraphic"/>
    </filter>
    <filter id="drop-shadow-6" x="1104" y="108.85" width="95" height="95" filterUnits="userSpaceOnUse">
      <feOffset dx="0" dy="0"/>
      <feGaussianBlur result="blur-6" stdDeviation="10"/>
      <feFlood flood-color="#f9ff00" flood-opacity="1"/>
      <feComposite in2="blur-6" operator="in"/>
      <feComposite in="SourceGraphic"/>
    </filter>
    <filter id="drop-shadow-7" x="1232" y="221.85" width="95" height="95" filterUnits="userSpaceOnUse">
      <feOffset dx="0" dy="0"/>
      <feGaussianBlur result="blur-7" stdDeviation="10"/>
      <feFlood flood-color="#f9ff00" flood-opacity="1"/>
      <feComposite in2="blur-7" operator="in"/>
      <feComposite in="SourceGraphic"/>
    </filter>
    <filter id="drop-shadow-8" x="1312" y="378.85" width="95" height="95" filterUnits="userSpaceOnUse">
      <feOffset dx="0" dy="0"/>
      <feGaussianBlur result="blur-8" stdDeviation="10"/>
      <feFlood flood-color="#f9ff00" flood-opacity="1"/>
      <feComposite in2="blur-8" operator="in"/>
      <feComposite in="SourceGraphic"/>
    </filter>
    <filter id="drop-shadow-9" x="1329" y="563.85" width="95" height="94" filterUnits="userSpaceOnUse">
      <feOffset dx="0" dy="0"/>
      <feGaussianBlur result="blur-9" stdDeviation="10"/>
      <feFlood flood-color="#f9ff00" flood-opacity="1"/>
      <feComposite in2="blur-9" operator="in"/>
      <feComposite in="SourceGraphic"/>
    </filter>
    <filter id="drop-shadow-10" x="1272" y="729.85" width="95" height="95" filterUnits="userSpaceOnUse">
      <feOffset dx="0" dy="0"/>
      <feGaussianBlur result="blur-10" stdDeviation="10"/>
      <feFlood flood-color="#f9ff00" flood-opacity="1"/>
      <feComposite in2="blur-10" operator="in"/>
      <feComposite in="SourceGraphic"/>
    </filter>
    <filter id="drop-shadow-11" x="1172" y="864.85" width="95" height="95" filterUnits="userSpaceOnUse">
      <feOffset dx="0" dy="0"/>
      <feGaussianBlur result="blur-11" stdDeviation="10"/>
      <feFlood flood-color="#f9ff00" flood-opacity="1"/>
      <feComposite in2="blur-11" operator="in"/>
      <feComposite in="SourceGraphic"/>
    </filter>
    <filter id="drop-shadow-12" x="1017" y="946.85" width="95" height="94" filterUnits="userSpaceOnUse">
      <feOffset dx="0" dy="0"/>
      <feGaussianBlur result="blur-12" stdDeviation="10"/>
      <feFlood flood-color="#f9ff00" flood-opacity="1"/>
      <feComposite in2="blur-12" operator="in"/>
      <feComposite in="SourceGraphic"/>
    </filter>
    <filter id="drop-shadow-13" x="860" y="970.85" width="95" height="95" filterUnits="userSpaceOnUse">
      <feOffset dx="0" dy="0"/>
      <feGaussianBlur result="blur-13" stdDeviation="10"/>
      <feFlood flood-color="#f9ff00" flood-opacity="1"/>
      <feComposite in2="blur-13" operator="in"/>
      <feComposite in="SourceGraphic"/>
    </filter>
    <filter id="drop-shadow-14" x="700" y="936.85" width="95" height="95" filterUnits="userSpaceOnUse">
      <feOffset dx="0" dy="0"/>
      <feGaussianBlur result="blur-14" stdDeviation="10"/>
      <feFlood flood-color="#f9ff00" flood-opacity="1"/>
      <feComposite in2="blur-14" operator="in"/>
      <feComposite in="SourceGraphic"/>
    </filter>
    <filter id="drop-shadow-15" x="554" y="847.85" width="95" height="95" filterUnits="userSpaceOnUse">
      <feOffset dx="0" dy="0"/>
      <feGaussianBlur result="blur-15" stdDeviation="10"/>
      <feFlood flood-color="#f9ff00" flood-opacity="1"/>
      <feComposite in2="blur-15" operator="in"/>
      <feComposite in="SourceGraphic"/>
    </filter>
    <filter id="drop-shadow-16" x="463" y="729.85" width="95" height="95" filterUnits="userSpaceOnUse">
      <feOffset dx="0" dy="0"/>
      <feGaussianBlur result="blur-16" stdDeviation="10"/>
      <feFlood flood-color="#f9ff00" flood-opacity="1"/>
      <feComposite in2="blur-16" operator="in"/>
      <feComposite in="SourceGraphic"/>
    </filter>
    <filter id="drop-shadow-17" x="420" y="575.85" width="95" height="95" filterUnits="userSpaceOnUse">
      <feOffset dx="0" dy="0"/>
      <feGaussianBlur result="blur-17" stdDeviation="10"/>
      <feFlood flood-color="#f9ff00" flood-opacity="1"/>
      <feComposite in2="blur-17" operator="in"/>
      <feComposite in="SourceGraphic"/>
    </filter>
    <filter id="drop-shadow-18" x="428" y="395.85" width="95" height="94" filterUnits="userSpaceOnUse">
      <feOffset dx="0" dy="0"/>
      <feGaussianBlur result="blur-18" stdDeviation="10"/>
      <feFlood flood-color="#f9ff00" flood-opacity="1"/>
      <feComposite in2="blur-18" operator="in"/>
      <feComposite in="SourceGraphic"/>
    </filter>
  </defs>
  <circle id="outerRingCircle" cx="920.49" cy="558.95" r="486.71" fill="url(#radial-gradient)" filter="url(#drop-shadow-1)" stroke="#93278f" stroke-miterlimit="10" stroke-width="2"/>
  <circle id="smallTriangle" cx="918.49" cy="556.95" r="432.77" fill="#ff931e" stroke="#d316d8" stroke-miterlimit="10" stroke-width="2"/>
  <path id="triangle10" d="M918.49,556.95c-136.01-48.19-272.02-96.37-408.03-144.56,10.61-29.84,29-71.23,61.27-114.41,33.33-44.59,69.1-74.56,95.3-93.28,83.82,117.41,167.65,234.83,251.47,352.24Z" fill="#f0f" stroke="#d316d8" stroke-miterlimit="10" stroke-width="2"/>
  <path id="triangle9" d="M918.4,556.84c-138.99,38.76-277.98,77.51-416.97,116.27-8.48-30.52-17.23-74.97-15.63-128.83,1.65-56.05,13.88-101.42,24.67-131.89,135.98,48.15,271.96,96.3,407.94,144.45Z" fill="#fffdde" stroke="#d316d8" stroke-miterlimit="10" stroke-width="2"/>
  <path id="triangle8" d="M917.94,556.95c-91.61,111.48-183.22,222.97-274.83,334.45-24.44-20.13-57.11-51.52-86.72-96.55-30.59-46.52-46.58-90.36-55.27-121.36,138.94-38.85,277.87-77.69,416.81-116.54Z" fill="#f0f" stroke="#d316d8" stroke-miterlimit="10" stroke-width="2"/>
  <path id="triangle7" d="M918.26,556.63c-10.9,143.95-21.79,287.9-32.69,431.85-33.54-2.6-61.38-8.57-82.17-14.28-20.38-5.6-36.69-11.7-47.34-16-28.17-11.38-49.06-23.3-59.82-29.78-15.42-9.28-33.45-21.5-52.43-37.36,91.48-111.48,182.97-222.95,274.45-334.43Z" fill="#fffdde" stroke="#d316d8" stroke-miterlimit="10" stroke-width="2"/>
  <path id="triangle6" d="M918.22,556.8c73.73,124.05,147.47,248.1,221.2,372.14-28.94,17.15-55.15,28.25-75.46,35.53-19.9,7.13-36.75,11.51-47.93,14.11-29.6,6.87-53.54,9.12-66.07,10-17.96,1.26-39.73,1.62-64.38-.45,10.88-143.78,21.76-287.55,32.64-431.33Z" fill="#f0f" stroke="#d316d8" stroke-miterlimit="10" stroke-width="2"/>
  <path id="triangle5" d="M918.22,556.8l394.66,178.58c-14.1,30.6-29.3,54.7-41.81,72.28-13.17,18.52-24.98,32.09-31.22,39.01-11.81,13.11-27.85,29.31-48.44,46.04-17.84,14.5-35.45,26.43-51.99,36.24-73.73-124.05-147.47-248.1-221.2-372.14Z" fill="#fffdde" stroke="#d316d8" stroke-miterlimit="10" stroke-width="2"/>
  <path id="triangle4" d="M918.25,556.87c141.86-26.9,283.73-53.8,425.59-80.7,6.05,33.15,7.46,61.6,7.33,83.18-.14,22.72-2,40.62-3.12,49.87-1.59,13.12-5.07,36.73-13.18,65.51-4.94,17.53-11.93,38.17-21.99,60.64-131.54-59.5-263.09-119-394.63-178.5Z" fill="#f0f" stroke="#d316d8" stroke-miterlimit="10" stroke-width="2"/>
  <path id="triangle3" d="M917.53,556.95c100.62-103.68,201.23-207.37,301.85-311.05,24.02,23.27,41.49,45.45,53.69,62.87,6.52,9.31,16.15,23.85,26.26,42.57,13.75,25.44,22.42,47.51,27.59,62.18,6.09,17.29,12.27,38.33,16.92,62.66-142.11,26.92-284.21,53.85-426.32,80.77Z" fill="#fffdde" stroke="#d316d8" stroke-miterlimit="10" stroke-width="2"/>
  <path id="triangle1" d="M918.15,556.33c22.1-142.39,44.2-284.77,66.3-427.16,32.98,5.08,60.04,13.08,80.08,20.27,12.55,4.5,28.43,10.85,46.21,19.68,24.25,12.04,43.79,24.59,58.38,34.98,19.49,13.88,36.1,28.17,50.09,41.75-100.36,103.49-200.71,206.98-301.07,310.47Z" fill="#f0f" stroke="#d316d8" stroke-miterlimit="10" stroke-width="2"/>
  <path id="triangle1-2" data-name="triangle1" d="M918.15,556.33c-64.54-128.78-129.09-257.57-193.63-386.35,29.94-14.99,56.72-24.14,77.29-29.89,12.06-3.37,28.99-7.53,49.53-10.73,15.07-2.35,38.8-5.24,68.08-5.18,18.45.04,40.45,1.25,65.03,4.99-22.1,142.39-44.2,284.77-66.3,427.16Z" fill="#fffdde" stroke="#d316d8" stroke-miterlimit="10" stroke-width="2"/>
  <circle id="middleCircle" cx="920.49" cy="558.95" r="46.57" fill="#93278f" stroke="#000" stroke-miterlimit="10" stroke-width=".5"/>
  <circle id="lightCircle" cx="556.83" cy="275.23" r="16.66" fill="#f9ed7d" filter="url(#drop-shadow-2)" stroke="#f9ed7d" stroke-miterlimit="10" stroke-width=".64"/>
  <circle id="lightCircle-2" data-name="lightCircle" cx="685.34" cy="162.49" r="16.66" fill="#f9ed7d" filter="url(#drop-shadow-3)" stroke="#f9ed7d" stroke-miterlimit="10" stroke-width=".64"/>
  <circle id="lightCircle-3" data-name="lightCircle" cx="831.12" cy="106.91" r="16.66" fill="#f9ed7d" filter="url(#drop-shadow-4)" stroke="#f9ed7d" stroke-miterlimit="10" stroke-width=".64"/>
  <circle id="lightCircle-4" data-name="lightCircle" cx="995.38" cy="101.83" r="16.66" fill="#f9ed7d" filter="url(#drop-shadow-5)" stroke="#f9ed7d" stroke-miterlimit="10" stroke-width=".64"/>
  <circle id="lightCircle-5" data-name="lightCircle" cx="1151.37" cy="156.62" r="16.66" fill="#f9ed7d" filter="url(#drop-shadow-6)" stroke="#f9ed7d" stroke-miterlimit="10" stroke-width=".64"/>
  <circle id="lightCircle-6" data-name="lightCircle" cx="1279.56" cy="269.26" r="16.66" fill="#f9ed7d" filter="url(#drop-shadow-7)" stroke="#f9ed7d" stroke-miterlimit="10" stroke-width=".64"/>
  <circle id="lightCircle-7" data-name="lightCircle" cx="1359.8" cy="426.2" r="16.66" fill="#f9ed7d" filter="url(#drop-shadow-8)" stroke="#f9ed7d" stroke-miterlimit="10" stroke-width=".64"/>
  <circle id="lightCircle-8" data-name="lightCircle" cx="1376.46" cy="610.83" r="16.66" fill="#f9ed7d" filter="url(#drop-shadow-9)" stroke="#f9ed7d" stroke-miterlimit="10" stroke-width=".64"/>
  <circle id="lightCircle-9" data-name="lightCircle" cx="1319.94" cy="776.96" r="16.66" fill="#f9ed7d" filter="url(#drop-shadow-10)" stroke="#f9ed7d" stroke-miterlimit="10" stroke-width=".64"/>
  <circle id="lightCircle-10" data-name="lightCircle" cx="1219.22" cy="912.28" r="16.66" fill="#f9ed7d" filter="url(#drop-shadow-11)" stroke="#f9ed7d" stroke-miterlimit="10" stroke-width=".64"/>
  <circle id="lightCircle-11" data-name="lightCircle" cx="1064.28" cy="993.86" r="16.66" fill="#f9ed7d" filter="url(#drop-shadow-12)" stroke="#f9ed7d" stroke-miterlimit="10" stroke-width=".64"/>
  <circle id="lightCircle-12" data-name="lightCircle" cx="907.24" cy="1018.03" r="16.66" fill="#f9ed7d" filter="url(#drop-shadow-13)" stroke="#f9ed7d" stroke-miterlimit="10" stroke-width=".64"/>
  <circle id="lightCircle-13" data-name="lightCircle" cx="747.79" cy="984.72" r="16.66" fill="#f9ed7d" filter="url(#drop-shadow-14)" stroke="#f9ed7d" stroke-miterlimit="10" stroke-width=".64"/>
  <circle id="lightCircle-14" data-name="lightCircle" cx="601.46" cy="895.63" r="16.66" fill="#f9ed7d" filter="url(#drop-shadow-15)" stroke="#f9ed7d" stroke-miterlimit="10" stroke-width=".64"/>
  <circle id="lightCircle-15" data-name="lightCircle" cx="510.46" cy="776.96" r="16.66" fill="#f9ed7d" filter="url(#drop-shadow-16)" stroke="#f9ed7d" stroke-miterlimit="10" stroke-width=".64"/>
  <circle id="lightCircle-16" data-name="lightCircle" cx="467.39" cy="623.14" r="16.66" fill="#f9ed7d" filter="url(#drop-shadow-17)" stroke="#f9ed7d" stroke-miterlimit="10" stroke-width=".64"/>
  <circle id="lightCircle-17" data-name="lightCircle" cx="475.48" cy="442.86" r="16.66" fill="#f9ed7d" filter="url(#drop-shadow-18)" stroke="#f9ed7d" stroke-miterlimit="10" stroke-width=".64"/>
  <polygon id="starDecor" points="1324.97 735.37 1329.8 761.46 1342.84 771.12 1329.8 780.77 1324.97 806.86 1320.15 780.77 1307.1 771.12 1320.15 761.46 1324.97 735.37" fill="#fcfcfc"/>
  <polygon id="starDecor-2" data-name="starDecor" points="1168.03 110.09 1172.86 136.18 1185.9 145.83 1172.86 155.49 1168.03 181.58 1163.2 155.49 1150.16 145.83 1163.2 136.18 1168.03 110.09" fill="#fcfcfc"/>
  <polygon id="starDecor-3" data-name="starDecor" points="564.75 233.52 569.57 259.61 582.62 269.26 569.57 278.92 564.75 305.01 559.92 278.92 546.87 269.26 559.92 259.61 564.75 233.52" fill="#fcfcfc"/>
  <polygon id="starDecor-4" data-name="starDecor" points="467.39 407.12 472.22 433.2 485.26 442.86 472.22 452.51 467.39 478.6 462.57 452.51 449.52 442.86 462.57 433.2 467.39 407.12" fill="#fcfcfc"/>
  <polygon id="starDecor-5" data-name="starDecor" points="742.96 955.98 747.79 982.07 760.84 991.72 747.79 1001.38 742.96 1027.46 738.14 1001.38 725.09 991.72 738.14 982.07 742.96 955.98" fill="#fcfcfc"/>
  <polygon id="topPeg" points="971.2 56.87 863.85 56.26 918.05 150.14 971.2 56.87" fill="#00bddd" stroke="#02565e" stroke-miterlimit="10"/>
  <g id="CouponText">
    <path d="M857.97,181.37c1.63-.3,3.24-.38,4.83-.24,1.59.14,3.12.5,4.57,1.07,1.46.57,2.83,1.35,4.13,2.34,1.29.98,2.47,2.16,3.51,3.53,1.05,1.37,1.95,2.93,2.71,4.68s1.34,3.68,1.73,5.78c.25,1.35.41,2.66.46,3.93.06,1.27.04,2.47-.06,3.62-.1,1.15-.26,2.22-.48,3.22s-.48,1.92-.77,2.75l-4.24-1.27c.26-.94.42-1.98.5-3.13.08-1.15.01-2.32-.21-3.5-.29-1.58-.85-3-1.67-4.24-.82-1.25-1.84-2.27-3.07-3.06-1.23-.79-2.63-1.33-4.22-1.62-1.59-.29-3.3-.26-5.15.08-1.83.34-3.43.92-4.81,1.75-1.38.83-2.51,1.83-3.38,3s-1.47,2.48-1.8,3.93c-.33,1.45-.35,2.96-.06,4.53.21,1.11.54,2.19,1.02,3.24s1.02,2,1.63,2.84l-3.51,2.7c-.58-.67-1.15-1.43-1.71-2.28-.55-.85-1.08-1.79-1.58-2.8-.5-1.02-.95-2.13-1.34-3.33s-.72-2.47-.97-3.82c-.58-3.15-.64-6.07-.18-8.77s1.33-5.08,2.61-7.15c1.28-2.06,2.9-3.77,4.87-5.11s4.17-2.24,6.59-2.69Z" fill="#f0f"/>
    <path d="M859.81,223.17c1.81-.33,3.52-.26,5.12.21,1.6.47,3.04,1.32,4.33,2.54,1.29,1.21,2.4,2.79,3.34,4.71.94,1.93,1.64,4.18,2.12,6.76.48,2.58.62,4.94.44,7.07-.19,2.13-.66,4-1.43,5.59-.77,1.6-1.82,2.9-3.14,3.92-1.32,1.02-2.89,1.69-4.7,2.03-1.8.33-3.5.26-5.09-.21-1.6-.47-3.04-1.32-4.33-2.54-1.29-1.21-2.4-2.78-3.34-4.71-.94-1.92-1.64-4.18-2.12-6.76-.48-2.58-.62-4.94-.44-7.07.19-2.13.66-4,1.43-5.59.77-1.6,1.81-2.9,3.14-3.92,1.32-1.02,2.88-1.69,4.68-2.02ZM855.22,240.99c.11.57.31,1.05.63,1.46.31.4.78.7,1.42.88.63.19,1.45.26,2.46.24,1.01-.03,2.27-.18,3.78-.46,1.52-.28,2.76-.59,3.71-.92.96-.34,1.69-.7,2.22-1.1.52-.4.86-.84,1-1.33.15-.49.17-1.02.06-1.59-.11-.58-.32-1.07-.63-1.47-.31-.39-.78-.69-1.41-.87-.63-.19-1.45-.27-2.46-.24-1.01.03-2.28.18-3.8.46-1.51.28-2.74.59-3.69.92s-1.69.7-2.22,1.1c-.52.4-.86.84-1.01,1.32s-.17,1.01-.06,1.6Z" fill="#f0f"/>
    <path d="M879.09,263.31l2.32,12.51-13.97,2.58c-.62.11-1.12.26-1.51.45-.39.18-.7.41-.91.68s-.35.58-.4.92c-.05.34-.04.74.04,1.18.1.55.28,1.02.53,1.4.25.38.64.75,1.17,1.1l16.04-2.97,2.32,12.52-22.84,4.22-2.04-11.04,3.11-1.72c-1.63-1.15-2.88-2.48-3.75-4-.88-1.52-1.47-3.13-1.79-4.82-.51-2.78-.16-5.07,1.05-6.86,1.22-1.79,3.39-2.97,6.5-3.55l14.13-2.61Z" fill="#f0f"/>
    <path d="M886.75,304.86l2.13,11.52-2.82,1.52c.5.35,1,.79,1.53,1.31.53.52,1.02,1.12,1.47,1.78.46.66.86,1.39,1.22,2.2.35.8.62,1.65.78,2.56.32,1.74.37,3.41.14,5.03s-.73,3.08-1.52,4.4c-.79,1.32-1.86,2.45-3.21,3.37-1.35.93-3.01,1.57-4.96,1.93-1.8.33-3.48.32-5.05-.03-1.57-.36-2.98-1.02-4.23-2-1.25-.97-2.31-2.24-3.18-3.81-.87-1.56-1.5-3.38-1.88-5.46-.29-1.58-.37-3.04-.23-4.38.14-1.34.47-2.51.98-3.53l-13.11,2.43-2.32-12.51,34.25-6.34ZM870.95,320.73c-.28.45-.48.93-.59,1.45-.11.51-.12,1.01-.03,1.48.14.77.42,1.45.82,2.05.41.6.95,1.09,1.64,1.46.69.37,1.52.61,2.5.71.98.1,2.12.03,3.43-.22,1.32-.24,2.43-.58,3.32-1.01.89-.43,1.59-.92,2.1-1.47.51-.55.85-1.17,1.01-1.83.16-.67.18-1.37.04-2.11-.11-.58-.31-1.12-.62-1.6s-.67-.89-1.1-1.23l-12.51,2.31Z" fill="#f0f"/>
    <path d="M883.03,348.66c1.81-.34,3.52-.27,5.12.21,1.6.48,3.04,1.32,4.33,2.54,1.29,1.21,2.4,2.78,3.34,4.71.94,1.92,1.64,4.18,2.12,6.76.48,2.58.62,4.94.44,7.07-.18,2.13-.66,4-1.43,5.59-.77,1.6-1.82,2.9-3.14,3.92-1.32,1.02-2.89,1.69-4.7,2.03-1.8.33-3.5.26-5.09-.21-1.6-.47-3.04-1.32-4.33-2.54-1.29-1.21-2.4-2.79-3.34-4.71s-1.64-4.18-2.12-6.76c-.48-2.58-.62-4.94-.44-7.07.19-2.13.66-4,1.43-5.59.77-1.6,1.81-2.9,3.14-3.92,1.32-1.01,2.88-1.69,4.68-2.02ZM878.44,366.48c.11.57.31,1.05.63,1.46.31.4.78.7,1.41.88s1.45.26,2.46.24c1.01-.03,2.27-.18,3.78-.46,1.52-.28,2.76-.59,3.71-.93s1.69-.7,2.21-1.1.86-.84,1-1.33c.15-.49.17-1.02.06-1.58-.11-.58-.32-1.07-.63-1.47-.31-.4-.78-.69-1.41-.87-.63-.19-1.45-.26-2.46-.24-1.01.03-2.28.18-3.8.46-1.51.28-2.74.59-3.69.92s-1.69.7-2.22,1.1c-.52.4-.86.84-1.01,1.32s-.17,1.01-.06,1.6Z" fill="#f0f"/>
    <path d="M902.33,389.04l2.04,11.04-3.11,1.72c1.55,1.4,2.79,2.88,3.73,4.45.94,1.56,1.58,3.28,1.93,5.14.2,1.06.2,2.08.02,3.06-.18.98-.58,1.88-1.2,2.69-.61.81-1.46,1.52-2.55,2.12-1.09.6-2.44,1.05-4.05,1.35l-14.1,2.61-2.32-12.51,14.89-2.76c.8-.15,1.35-.43,1.65-.85s.39-.97.27-1.65c-.08-.45-.27-.92-.55-1.42-.28-.5-.66-.9-1.13-1.2l-16.04,2.97-2.32-12.51,22.84-4.22Z" fill="#f0f"/>
  </g>
  <g id="_x31_0_x2C_000Text">
    <path d="M743.43,257.26l.15.26c-.07.04-.17.12-.29.22s-.15.21-.08.33c.02.03.09.09.22.19.13.1.27.21.42.33.15.12.3.24.44.35.14.11.23.18.27.21l.69-.41c.16-.09.23-.2.21-.33-.02-.12-.04-.24-.08-.33l.26-.15,2.51,4.21-.26.15c-.11-.15-.21-.26-.32-.35s-.24-.08-.4.02l-10,5.98c-.16.09-.23.21-.21.34.02.13.06.27.13.41l-.26.15-2.55-4.27.26-.15c.1.13.2.24.31.32.11.08.24.08.4-.02l6.82-4.08c-.3-.31-.55-.55-.73-.74-.19-.19-.35-.32-.48-.38s-.25-.1-.35-.08c-.11.01-.23.07-.38.15l-.15-.26,3.46-2.07Z" fill="#fffdde"/>
    <path d="M755.96,274.91c.48.8.78,1.64.91,2.52.13.88.09,1.74-.1,2.58s-.55,1.63-1.07,2.36c-.52.73-1.19,1.34-2.02,1.83-.83.5-1.69.8-2.57.91-.88.11-1.74.05-2.58-.18s-1.6-.61-2.29-1.15-1.28-1.21-1.75-2.01c-.47-.79-.78-1.62-.93-2.49-.15-.87-.13-1.73.06-2.57.19-.84.55-1.63,1.07-2.36.52-.73,1.19-1.34,2.02-1.83s1.69-.8,2.57-.91c.88-.11,1.74-.05,2.58.18s1.61.61,2.33,1.14c.72.53,1.31,1.19,1.78,1.98ZM753.43,276.42c-.28-.47-.62-.82-1-1.05-.39-.23-.8-.35-1.23-.38s-.88.02-1.32.15c-.45.13-.87.31-1.27.55-.4.24-.76.52-1.09.85-.33.33-.58.69-.75,1.09-.18.4-.26.82-.24,1.27.01.45.16.91.45,1.38s.62.82,1,1.05.8.35,1.23.39c.44.03.88-.02,1.32-.15.44-.13.87-.31,1.27-.55.4-.24.76-.52,1.09-.85.33-.33.58-.69.75-1.09.18-.4.26-.82.24-1.27-.01-.45-.17-.91-.45-1.38Z" fill="#fffdde"/>
    <path d="M748.76,293.11c.44.34.92.61,1.46.8s1.08.2,1.62,0c-.33-.56-.49-1.11-.48-1.65.01-.54.32-.99.92-1.35.5-.3,1-.36,1.5-.17.5.19.89.52,1.17.99.38.64.47,1.22.25,1.74-.21.52-.64.97-1.29,1.35-.5.3-1.01.46-1.52.48-.51.02-1.02-.04-1.53-.18-.51-.14-1-.36-1.48-.66-.48-.3-.92-.62-1.32-.96l.69-.41Z" fill="#fffdde"/>
    <path d="M770.28,298.85c.48.8.78,1.64.91,2.52.13.88.09,1.74-.1,2.58-.19.84-.55,1.63-1.07,2.36-.52.73-1.19,1.34-2.02,1.83-.83.5-1.69.8-2.57.91-.89.11-1.75.05-2.58-.18-.84-.23-1.6-.61-2.29-1.15-.69-.54-1.28-1.21-1.76-2.01-.47-.79-.78-1.61-.93-2.49-.15-.87-.13-1.73.06-2.57s.55-1.63,1.07-2.36c.52-.73,1.19-1.34,2.02-1.83.83-.5,1.69-.8,2.57-.91s1.75-.05,2.58.18,1.61.61,2.33,1.14c.72.53,1.31,1.19,1.78,1.98ZM767.75,300.37c-.28-.47-.62-.82-1-1.05-.39-.23-.8-.35-1.23-.38-.43-.03-.88.02-1.32.15s-.87.31-1.27.55c-.4.24-.76.52-1.09.85-.33.33-.58.69-.75,1.09-.18.4-.26.82-.24,1.27.02.45.16.91.45,1.38s.62.82,1,1.05c.39.23.8.35,1.23.39.43.03.87-.02,1.32-.15.45-.13.87-.31,1.27-.55.4-.24.76-.52,1.09-.85.32-.33.58-.7.75-1.09.18-.4.26-.82.24-1.27-.02-.45-.17-.91-.45-1.38Z" fill="#fffdde"/>
    <path d="M779.4,314.11c.48.8.78,1.64.91,2.52.13.88.09,1.74-.1,2.58-.19.85-.55,1.63-1.07,2.36s-1.19,1.34-2.02,1.83c-.83.5-1.69.8-2.57.91s-1.75.05-2.58-.18-1.6-.61-2.29-1.15c-.69-.54-1.28-1.21-1.75-2.01-.47-.79-.78-1.62-.93-2.49-.15-.87-.13-1.73.06-2.57s.55-1.63,1.07-2.36,1.19-1.34,2.02-1.83c.83-.5,1.69-.8,2.57-.91s1.75-.05,2.58.18c.84.23,1.61.61,2.33,1.14.72.53,1.31,1.19,1.78,1.98ZM776.87,315.62c-.28-.47-.62-.82-1-1.04-.39-.23-.8-.35-1.23-.38-.43-.03-.88.02-1.32.15-.44.13-.87.31-1.27.55-.4.24-.76.52-1.09.85-.33.33-.58.69-.76,1.09-.18.4-.26.82-.24,1.27.01.45.16.91.45,1.38.28.47.62.82,1,1.05.38.23.8.35,1.23.38.44.03.88-.02,1.32-.15.44-.13.87-.32,1.27-.55.4-.24.76-.52,1.09-.85.33-.33.58-.69.76-1.09s.26-.82.24-1.27c-.02-.45-.17-.91-.45-1.38Z" fill="#fffdde"/>
    <path d="M788.52,329.36c.48.8.78,1.64.91,2.52.13.88.09,1.74-.1,2.58-.19.84-.55,1.63-1.07,2.36-.52.73-1.19,1.34-2.02,1.83-.83.5-1.69.8-2.57.91-.88.11-1.74.05-2.58-.18-.84-.23-1.6-.61-2.29-1.15-.69-.54-1.28-1.21-1.75-2.01-.47-.79-.78-1.61-.93-2.49-.15-.87-.13-1.73.06-2.57.19-.84.55-1.63,1.07-2.36.52-.73,1.19-1.34,2.02-1.83s1.69-.8,2.57-.91c.88-.11,1.74-.05,2.58.18s1.61.61,2.33,1.14c.72.53,1.31,1.19,1.78,1.98ZM785.99,330.88c-.28-.47-.62-.82-1-1.05-.39-.23-.8-.35-1.23-.38-.43-.03-.87.02-1.32.15-.45.13-.87.31-1.27.55-.4.24-.76.52-1.09.85-.33.33-.58.69-.75,1.09-.18.4-.26.82-.24,1.27.01.45.16.91.45,1.38s.62.82,1,1.05.8.35,1.23.39c.44.03.88-.02,1.32-.15.44-.13.87-.31,1.27-.55.4-.24.76-.52,1.09-.85.33-.33.58-.7.75-1.09.18-.4.26-.82.24-1.27-.01-.45-.17-.91-.45-1.38Z" fill="#fffdde"/>
  </g>
  <g id="_x31_00Text">
    <path d="M667.84,363.98l.46.34c-.1.13-.21.33-.36.6-.14.27-.11.48.1.64.05.04.23.1.52.18.3.08.63.17.99.28.36.11.71.21,1.04.29.33.09.55.15.64.18l.91-1.23c.21-.28.25-.53.13-.74-.12-.21-.25-.39-.39-.53l.34-.46,7.56,5.6-.34.46c-.3-.18-.58-.31-.83-.37-.25-.07-.48.04-.69.33l-13.3,17.98c-.21.28-.25.53-.11.75.14.22.31.43.52.62l-.34.46-7.68-5.68.34-.46c.28.17.54.28.79.35s.48-.04.69-.33l9.08-12.27c-.76-.32-1.37-.58-1.85-.77-.48-.19-.85-.3-1.13-.33-.28-.03-.51.01-.69.12-.18.11-.36.29-.55.55l-.46-.34,4.6-6.21Z" fill="#fffdde"/>
    <path d="M703.08,386c1.44,1.07,2.59,2.33,3.47,3.79.87,1.46,1.45,3.01,1.72,4.65.28,1.64.23,3.29-.15,4.96-.38,1.67-1.12,3.25-2.23,4.74-1.1,1.49-2.4,2.66-3.88,3.51-1.49.85-3.05,1.38-4.7,1.59-1.65.21-3.29.1-4.91-.35-1.62-.44-3.15-1.2-4.59-2.27-1.41-1.05-2.58-2.29-3.49-3.72s-1.51-2.97-1.79-4.61c-.28-1.64-.23-3.29.15-4.96.38-1.67,1.12-3.25,2.23-4.74,1.1-1.49,2.4-2.66,3.89-3.51,1.48-.85,3.05-1.38,4.7-1.59,1.65-.21,3.31-.11,4.97.3,1.66.42,3.2,1.15,4.62,2.19ZM699.71,390.55c-.85-.63-1.7-1-2.55-1.11-.85-.12-1.67-.04-2.47.23-.79.26-1.54.68-2.23,1.24-.69.56-1.3,1.2-1.83,1.91-.53.72-.96,1.49-1.29,2.32-.33.82-.51,1.66-.53,2.49-.02.84.15,1.65.5,2.42.36.78.96,1.49,1.81,2.11.85.63,1.7,1,2.55,1.11.85.12,1.67.04,2.47-.23s1.54-.68,2.23-1.24c.69-.56,1.3-1.2,1.84-1.92.53-.72.96-1.49,1.29-2.31.33-.82.51-1.66.53-2.49s-.15-1.65-.5-2.43c-.36-.78-.96-1.49-1.81-2.11Z" fill="#fffdde"/>
    <path d="M730.51,406.3c1.44,1.07,2.59,2.33,3.47,3.79.87,1.46,1.45,3.01,1.72,4.65.28,1.64.23,3.29-.15,4.96-.38,1.67-1.12,3.25-2.23,4.74-1.1,1.49-2.4,2.66-3.88,3.51-1.49.85-3.05,1.38-4.7,1.6-1.65.21-3.29.1-4.91-.35-1.62-.44-3.15-1.2-4.59-2.27-1.41-1.05-2.58-2.29-3.49-3.71s-1.51-2.97-1.79-4.61c-.28-1.64-.23-3.29.15-4.96.38-1.67,1.12-3.25,2.23-4.74,1.1-1.49,2.4-2.66,3.88-3.51,1.48-.85,3.05-1.38,4.7-1.59,1.65-.21,3.31-.11,4.97.3,1.66.41,3.2,1.14,4.62,2.19ZM727.14,410.86c-.85-.63-1.7-1-2.55-1.11-.85-.12-1.67-.04-2.47.23-.79.27-1.54.68-2.23,1.24-.69.56-1.3,1.2-1.83,1.92-.53.72-.96,1.49-1.29,2.31-.33.83-.51,1.66-.53,2.49-.02.84.15,1.64.5,2.43.36.78.96,1.48,1.81,2.11.85.63,1.7,1,2.55,1.11.85.11,1.67.04,2.47-.23.79-.27,1.54-.68,2.23-1.24s1.3-1.2,1.84-1.92c.53-.72.96-1.49,1.29-2.31.33-.82.51-1.66.53-2.49.02-.84-.15-1.65-.5-2.43s-.96-1.48-1.81-2.11Z" fill="#fffdde"/>
  </g>
  <g id="CouponText-2" data-name="CouponText">
    <path d="M518.68,552.02c0-1.66.21-3.25.64-4.79s1.06-2.97,1.89-4.3,1.84-2.54,3.05-3.63,2.57-2.03,4.11-2.81,3.24-1.39,5.1-1.82,3.86-.64,6-.64c1.38,0,2.69.09,3.95.26s2.44.41,3.55.71,2.14.66,3.08,1.05,1.8.82,2.57,1.25l-2.02,3.94c-.88-.42-1.87-.78-2.99-1.07s-2.28-.43-3.48-.43c-1.61,0-3.1.29-4.48.87s-2.56,1.4-3.56,2.46-1.79,2.35-2.36,3.86-.86,3.2-.86,5.07.28,3.54.84,5.05,1.34,2.8,2.33,3.87,2.17,1.9,3.54,2.48,2.85.88,4.44.88c1.12,0,2.25-.14,3.38-.41s2.16-.64,3.09-1.09l2.02,3.94c-.77.45-1.62.88-2.55,1.27s-1.95.74-3.05,1.04-2.27.54-3.52.71-2.56.26-3.94.26c-3.2,0-6.09-.47-8.66-1.42s-4.75-2.23-6.55-3.87-3.18-3.54-4.14-5.72-1.44-4.5-1.44-6.97Z" fill="#f0f"/>
    <path d="M560.12,557.81c0-1.84.38-3.51,1.14-4.99s1.85-2.75,3.28-3.8,3.18-1.86,5.24-2.43,4.41-.86,7.03-.86,4.97.29,7.03.86,3.81,1.38,5.24,2.43,2.52,2.31,3.28,3.8,1.14,3.15,1.14,4.99-.38,3.48-1.14,4.97-1.85,2.75-3.28,3.8-3.18,1.86-5.24,2.43-4.41.86-7.03.86-4.97-.29-7.03-.86-3.81-1.38-5.24-2.43-2.52-2.31-3.28-3.8-1.14-3.14-1.14-4.97ZM576.8,565.57c.58,0,1.09-.12,1.55-.35s.83-.64,1.12-1.23.52-1.38.68-2.38.23-2.27.23-3.8-.08-2.82-.23-3.82-.38-1.79-.68-2.38-.67-1-1.12-1.23-.97-.35-1.55-.35-1.11.12-1.56.35-.82.64-1.11,1.23-.52,1.38-.68,2.38-.23,2.27-.23,3.82.08,2.8.23,3.8.38,1.79.68,2.38.67,1,1.11,1.23.96.35,1.56.35Z" fill="#f0f"/>
    <path d="M603.09,546.16h12.73v14.2c0,.62.05,1.15.16,1.57s.28.76.5,1.02.5.45.83.56.72.18,1.17.18c.56,0,1.05-.09,1.48-.27s.85-.5,1.29-.95v-16.31h12.73v23.23h-11.23l-1.12-3.38c-1.42,1.39-2.96,2.38-4.62,2.96s-3.34.88-5.06.88c-2.83,0-5.01-.76-6.55-2.29s-2.31-3.87-2.31-7.04v-14.37Z" fill="#f0f"/>
    <path d="M645.35,546.19h11.72l.98,3.05c.44-.42.96-.84,1.57-1.27s1.28-.8,2.02-1.12,1.53-.59,2.38-.8,1.74-.3,2.66-.3c1.77,0,3.42.26,4.97.77s2.9,1.28,4.05,2.3,2.07,2.27,2.73,3.77,1,3.24,1,5.23c0,1.83-.32,3.48-.95,4.96s-1.54,2.74-2.73,3.8-2.63,1.87-4.32,2.44-3.6.86-5.71.86c-1.61,0-3.06-.19-4.35-.57s-2.39-.92-3.29-1.61v13.34h-12.73v-34.83ZM658.08,564.61c.39.36.83.64,1.31.84s.97.3,1.45.3c.78,0,1.5-.14,2.17-.43s1.24-.74,1.73-1.35.88-1.39,1.15-2.33.41-2.08.41-3.41-.13-2.49-.39-3.45-.61-1.73-1.07-2.33-.99-1.04-1.62-1.32-1.31-.42-2.06-.42c-.59,0-1.16.11-1.69.32s-1,.5-1.41.86v12.73Z" fill="#f0f"/>
    <path d="M687.74,557.81c0-1.84.38-3.51,1.14-4.99s1.85-2.75,3.28-3.8,3.18-1.86,5.24-2.43,4.41-.86,7.03-.86,4.97.29,7.03.86,3.81,1.38,5.24,2.43,2.52,2.31,3.28,3.8,1.14,3.15,1.14,4.99-.38,3.48-1.14,4.97-1.85,2.75-3.28,3.8-3.18,1.86-5.24,2.43-4.41.86-7.03.86-4.97-.29-7.03-.86-3.81-1.38-5.24-2.43-2.52-2.31-3.28-3.8-1.14-3.14-1.14-4.97ZM704.43,565.57c.58,0,1.09-.12,1.55-.35s.83-.64,1.12-1.23.52-1.38.68-2.38.23-2.27.23-3.8-.08-2.82-.23-3.82-.38-1.79-.68-2.38-.67-1-1.12-1.23-.97-.35-1.55-.35-1.11.12-1.56.35-.82.64-1.11,1.23-.52,1.38-.68,2.38-.23,2.27-.23,3.82.08,2.8.23,3.8.38,1.79.68,2.38.67,1,1.11,1.23.96.35,1.56.35Z" fill="#f0f"/>
    <path d="M730.96,546.19h11.23l1.12,3.38c1.66-1.27,3.34-2.22,5.05-2.86s3.51-.96,5.4-.96c1.08,0,2.08.18,3.01.54s1.74.91,2.43,1.66,1.23,1.71,1.62,2.89.59,2.59.59,4.23v14.34h-12.73v-15.14c0-.81-.18-1.41-.54-1.78s-.88-.56-1.57-.56c-.45,0-.95.09-1.5.28s-1.01.48-1.38.89v16.31h-12.73v-23.23Z" fill="#f0f"/>
  </g>
  <g id="_x32_0Text">
    <path d="M688.53,721.83c.33-.2.53-.4.61-.62.08-.21.03-.53-.15-.95l.49-.3,3.97,6.63-.49.3c-.29-.35-.54-.52-.77-.49-.23.03-.55.16-.96.41l-18.29,10.94c-.27.16-.46.33-.54.49-.09.17-.02.44.21.82l-.49.29c-.78-1.17-1.28-2.39-1.5-3.63-.22-1.25-.25-2.5-.07-3.76.18-1.26.51-2.52,1.01-3.79.49-1.26,1.06-2.5,1.7-3.7.64-1.2,1.31-2.38,1.99-3.54.69-1.16,1.32-2.28,1.9-3.37.26-.49.41-.93.44-1.32.03-.39-.1-.82-.38-1.29-.31-.52-.83-.87-1.55-1.05-.72-.18-1.61.04-2.65.66-.96.58-1.77,1.26-2.43,2.07-.66.8-1.18,1.6-1.56,2.39-.39.79-.63,1.5-.73,2.14-.1.64-.07,1.1.09,1.37.1.17.28.34.54.52l-.27.67-8.04-3.53.26-.6c.13.03.28.05.44.04.17,0,.33-.06.49-.16.22-.13.47-.53.76-1.21.29-.67.72-1.49,1.31-2.43.6-.99,1.38-2.02,2.35-3.08.97-1.06,2.23-2.06,3.8-3,1.18-.71,2.41-1.2,3.7-1.48,1.29-.28,2.52-.36,3.72-.24,1.19.12,2.3.47,3.31,1.04,1.01.57,1.83,1.38,2.45,2.42.61,1.02.92,2.02.94,3.02.02,1-.15,1.98-.5,2.95-.35.97-.83,1.94-1.43,2.89-.6.96-1.22,1.9-1.86,2.82-.64.92-1.24,1.83-1.79,2.72-.55.89-.94,1.76-1.18,2.61l11.16-6.68Z" fill="#fffdde"/>
    <path d="M698.81,692.53c1.54-.92,3.15-1.5,4.83-1.74,1.68-.24,3.33-.18,4.96.2,1.62.37,3.13,1.06,4.52,2.05,1.4.99,2.57,2.29,3.52,3.88.95,1.59,1.54,3.24,1.75,4.94.21,1.7.1,3.35-.34,4.96-.44,1.6-1.18,3.07-2.21,4.4-1.04,1.33-2.32,2.45-3.86,3.37-1.51.9-3.1,1.5-4.77,1.79-1.67.29-3.32.25-4.94-.12-1.62-.37-3.13-1.05-4.53-2.05-1.39-.99-2.57-2.29-3.52-3.88-.95-1.59-1.54-3.24-1.75-4.94-.21-1.7-.1-3.35.34-4.96.44-1.6,1.17-3.09,2.19-4.47,1.02-1.38,2.29-2.52,3.8-3.42ZM701.72,697.39c-.91.54-1.58,1.18-2.01,1.92-.43.74-.68,1.53-.74,2.37-.06.83.04,1.68.29,2.53.25.86.6,1.67,1.06,2.43.46.77,1,1.46,1.64,2.09.63.62,1.33,1.11,2.1,1.45.76.34,1.57.5,2.43.47.86-.03,1.74-.32,2.65-.86.91-.54,1.58-1.18,2.01-1.93.43-.74.68-1.53.74-2.36.06-.83-.04-1.68-.29-2.53-.25-.85-.6-1.66-1.06-2.43-.46-.77-1-1.46-1.64-2.09-.63-.62-1.33-1.11-2.1-1.45-.76-.34-1.58-.5-2.43-.47-.86.03-1.74.32-2.65.86Z" fill="#fffdde"/>
  </g>
  <g id="CouponText-3" data-name="CouponText">
    <path d="M762.35,917.35c-1.53-.64-2.92-1.46-4.17-2.46-1.25-.99-2.33-2.13-3.23-3.41-.9-1.28-1.62-2.68-2.16-4.22-.54-1.53-.87-3.16-.99-4.88s-.02-3.52.31-5.4c.33-1.88.91-3.81,1.74-5.78.53-1.27,1.12-2.45,1.77-3.54.65-1.09,1.33-2.09,2.04-2.99.71-.9,1.43-1.71,2.17-2.43.73-.72,1.45-1.34,2.15-1.88l2.84,3.39c-.73.64-1.44,1.42-2.14,2.34-.7.92-1.29,1.93-1.75,3.04-.63,1.48-.94,2.97-.94,4.46,0,1.49.29,2.9.88,4.24.59,1.33,1.47,2.56,2.64,3.67,1.17,1.11,2.61,2.03,4.34,2.76,1.71.72,3.37,1.12,4.98,1.19,1.61.07,3.1-.15,4.47-.65,1.37-.5,2.59-1.26,3.66-2.29,1.07-1.03,1.92-2.28,2.54-3.75.44-1.04.75-2.13.93-3.27s.25-2.23.2-3.27l4.41-.33c.12.88.18,1.83.17,2.85s-.08,2.09-.22,3.21c-.14,1.13-.38,2.3-.71,3.52s-.76,2.46-1.29,3.73c-1.25,2.95-2.8,5.43-4.67,7.43-1.87,2-3.91,3.51-6.11,4.53-2.2,1.02-4.5,1.55-6.88,1.59-2.38.04-4.71-.42-6.98-1.38Z" fill="#f0f"/>
    <path d="M783.79,881.43c-1.7-.72-3.09-1.71-4.16-2.99s-1.81-2.78-2.22-4.5-.47-3.65-.2-5.77c.28-2.12.92-4.39,1.95-6.81,1.02-2.42,2.19-4.47,3.52-6.14,1.33-1.68,2.75-2.97,4.27-3.88,1.52-.91,3.11-1.43,4.77-1.55s3.34.18,5.04.89c1.68.71,3.06,1.7,4.14,2.98,1.07,1.28,1.81,2.78,2.22,4.5s.47,3.65.2,5.77c-.28,2.12-.92,4.39-1.95,6.81-1.02,2.42-2.19,4.47-3.52,6.15-1.33,1.68-2.75,2.97-4.27,3.88-1.52.91-3.11,1.43-4.77,1.55-1.66.12-3.34-.17-5.02-.88ZM797.43,869.07c.22-.53.32-1.05.28-1.56-.04-.51-.27-1.01-.7-1.51-.42-.5-1.07-1.02-1.93-1.55-.86-.53-2-1.1-3.41-1.69-1.43-.6-2.63-1.02-3.61-1.27-.98-.24-1.8-.34-2.46-.3s-1.18.23-1.57.56c-.39.33-.7.76-.93,1.29-.23.55-.32,1.07-.28,1.57.04.5.28,1,.7,1.5.43.5,1.07,1.02,1.93,1.55.86.53,2,1.1,3.43,1.7,1.41.6,2.61,1.02,3.59,1.26.98.25,1.8.35,2.46.3.65-.04,1.18-.23,1.57-.55.39-.32.7-.75.93-1.3Z" fill="#f0f"/>
    <path d="M789.77,837.3l4.95-11.72,13.09,5.52c.58.24,1.08.4,1.51.46.43.06.81.04,1.13-.07.33-.11.61-.29.84-.55.24-.26.44-.59.62-1.01.22-.52.33-1.01.33-1.46s-.13-.98-.37-1.56l-15.03-6.34,4.95-11.72,21.4,9.03-4.37,10.34-3.55-.28c.73,1.85,1.04,3.65.94,5.41-.1,1.75-.49,3.42-1.16,5.01-1.1,2.61-2.65,4.32-4.65,5.15-2,.83-4.46.62-7.38-.61l-13.24-5.59Z" fill="#f0f"/>
    <path d="M806.22,798.38l4.56-10.8,3.19.28c-.22-.57-.4-1.21-.55-1.94-.15-.73-.24-1.49-.25-2.29-.02-.8.05-1.64.19-2.5.14-.86.4-1.72.75-2.57.69-1.63,1.57-3.05,2.65-4.28,1.07-1.23,2.31-2.17,3.69-2.84,1.38-.67,2.9-1.02,4.54-1.05,1.64-.03,3.37.34,5.2,1.11,1.68.71,3.08,1.65,4.2,2.8,1.12,1.16,1.93,2.49,2.44,3.99.51,1.5.7,3.15.56,4.93-.13,1.78-.61,3.65-1.43,5.59-.63,1.48-1.37,2.74-2.22,3.78-.86,1.04-1.78,1.84-2.76,2.41l12.29,5.18-4.95,11.73-32.09-13.54ZM828.14,793.82c.48-.22.91-.51,1.29-.88s.66-.77.85-1.22c.3-.72.45-1.44.44-2.17,0-.72-.2-1.43-.57-2.12-.37-.69-.94-1.34-1.7-1.96-.77-.62-1.76-1.19-2.98-1.7-1.24-.52-2.35-.85-3.33-.98-.98-.13-1.83-.11-2.56.08-.73.18-1.35.51-1.85.98-.5.47-.9,1.04-1.19,1.74-.23.55-.35,1.11-.37,1.68-.01.57.07,1.11.24,1.63l11.72,4.95Z" fill="#f0f"/>
    <path d="M833.41,763.84c-1.7-.72-3.09-1.71-4.16-2.99-1.07-1.28-1.81-2.77-2.22-4.5-.41-1.72-.47-3.65-.2-5.77.28-2.12.93-4.39,1.95-6.81,1.02-2.42,2.2-4.47,3.52-6.15,1.33-1.68,2.75-2.97,4.27-3.88,1.52-.91,3.11-1.43,4.77-1.55,1.66-.12,3.34.18,5.04.89,1.68.71,3.06,1.7,4.13,2.98,1.07,1.28,1.81,2.78,2.22,4.5.41,1.72.47,3.65.2,5.77-.28,2.12-.93,4.39-1.95,6.81-1.02,2.42-2.2,4.47-3.52,6.15-1.33,1.68-2.75,2.97-4.27,3.88-1.52.91-3.11,1.43-4.78,1.55-1.66.12-3.33-.17-5.02-.88ZM847.05,751.48c.22-.53.32-1.05.28-1.56-.04-.51-.27-1.01-.7-1.52-.42-.5-1.07-1.02-1.93-1.55-.86-.53-2-1.1-3.41-1.69-1.43-.6-2.63-1.02-3.61-1.27-.98-.24-1.8-.34-2.46-.3-.66.05-1.18.23-1.57.56-.39.33-.7.76-.92,1.29-.23.55-.33,1.07-.28,1.57.04.5.28,1,.7,1.5s1.07,1.02,1.93,1.55,2,1.1,3.43,1.7c1.41.6,2.61,1.02,3.59,1.26.98.25,1.8.34,2.46.3.65-.05,1.18-.23,1.57-.55.39-.32.7-.75.93-1.3Z" fill="#f0f"/>
    <path d="M839.5,719.51l4.36-10.34,3.55.27c-.52-2.02-.75-3.94-.67-5.76.07-1.83.48-3.61,1.21-5.35.42-.99.97-1.85,1.67-2.56.69-.72,1.52-1.25,2.48-1.59.96-.34,2.05-.46,3.29-.36,1.24.1,2.61.47,4.12,1.11l13.21,5.58-4.95,11.73-13.95-5.89c-.75-.32-1.37-.38-1.85-.2-.48.19-.86.59-1.13,1.23-.18.42-.29.91-.32,1.49-.04.58.05,1.12.28,1.62l15.03,6.34-4.95,11.72-21.4-9.03Z" fill="#f0f"/>
  </g>
  <g id="_x37_50Text">
    <path d="M984.82,855.68c.05.19.17.35.36.5.19.15.5.16.93.04l.15.55-7.68,2.13-.15-.55c.49-.14.78-.32.87-.54.09-.22.11-.43.05-.61l-5.75-20.77c-.05-.19-.17-.35-.36-.5-.19-.15-.5-.16-.93-.04l-.15-.56,5.92-1.64,18.71,4.43c.39.09.8.19,1.23.31s.72.15.88.11c.34-.09.52-.27.55-.53.03-.26.02-.53-.03-.82l.55-.15,2.83,10.22-.56.15c-.12-.33-.33-.58-.61-.75-.28-.17-.6-.31-.96-.41l-19.99-5.47,4.13,14.9Z" fill="#fffdde"/>
    <path d="M984.97,817.39c.24.03.48.01.73-.05.22-.06.45-.3.7-.72.25-.42.45-1,.59-1.73.14-.74.19-1.61.14-2.63-.05-1.02-.25-2.16-.6-3.42-.44-1.57-1.08-2.76-1.92-3.55-.85-.79-1.8-1.04-2.88-.75-.89.25-1.53.9-1.91,1.95-.38,1.05-.34,2.43.13,4.12.37,1.33.75,2.21,1.16,2.64.4.44.74.62,1.02.54.09-.03.17-.08.23-.16.06-.08.15-.19.28-.33l.59.14-2.63,9.39-.55-.2c.04-.08.05-.18.02-.3l-.08-.28c-.07-.25-.26-.33-.57-.24l-7.77,2.15c-.34.09-.53.26-.56.5-.03.24-.03.49,0,.75l-.56.15-5.66-20.45c-.05-.19-.17-.35-.36-.5-.19-.15-.53-.15-1.02-.02l-.15-.55,7.22-2,.15.55c-.46.13-.75.31-.85.54-.1.23-.13.43-.08.62l3.72,13.41,4.02-1.11c-.64-.99-1.17-1.97-1.59-2.95-.42-.98-.78-2.01-1.08-3.09-.36-1.29-.56-2.58-.6-3.87-.04-1.29.13-2.48.53-3.58.39-1.1,1.02-2.08,1.88-2.91.86-.84,2.04-1.46,3.52-1.87,1.33-.37,2.6-.39,3.82-.06,1.22.33,2.35.94,3.38,1.85,1.03.91,1.94,2.09,2.72,3.53.78,1.44,1.43,3.09,1.94,4.94.36,1.3.61,2.49.77,3.57.15,1.09.22,2.08.22,2.98s-.05,1.67-.13,2.33c-.09.66-.16,1.19-.21,1.6-.03.24-.06.47-.09.67s-.03.36,0,.45c.04.16.22.36.52.6l-.13.63-8.29-2.68.28-.62Z" fill="#fffdde"/>
    <path d="M958.03,781.27c-.48-1.73-.61-3.43-.4-5.12.21-1.69.71-3.26,1.51-4.73.79-1.46,1.85-2.74,3.18-3.82,1.33-1.08,2.88-1.87,4.67-2.37,1.79-.5,3.53-.62,5.23-.38,1.7.25,3.26.79,4.69,1.64,1.43.85,2.65,1.95,3.65,3.3,1,1.35,1.74,2.89,2.22,4.61.47,1.7.62,3.39.46,5.08-.16,1.69-.64,3.26-1.43,4.73-.79,1.46-1.85,2.74-3.18,3.82-1.33,1.08-2.88,1.87-4.67,2.37-1.79.5-3.53.62-5.22.38-1.69-.24-3.26-.79-4.69-1.64-1.43-.85-2.67-1.95-3.73-3.3-1.05-1.35-1.82-2.88-2.29-4.57ZM963.49,779.76c.28,1.02.72,1.83,1.32,2.45.6.62,1.3,1.06,2.08,1.34.79.28,1.63.41,2.52.4.89-.01,1.77-.14,2.62-.38.86-.24,1.68-.58,2.45-1.03.77-.45,1.42-.99,1.96-1.64.53-.64.9-1.39,1.1-2.22.2-.83.16-1.76-.12-2.78-.28-1.02-.72-1.83-1.32-2.45-.6-.61-1.29-1.06-2.08-1.34-.79-.28-1.63-.41-2.52-.4-.89.01-1.76.14-2.63.38-.86.24-1.67.58-2.45,1.03-.77.45-1.42.99-1.95,1.64-.53.65-.9,1.39-1.1,2.22-.2.83-.16,1.76.12,2.78Z" fill="#fffdde"/>
  </g>
  <g id="_x32_0Text-2" data-name="_x32_0Text">
    <path d="M1187.94,578.89c-.38-.04-.67,0-.86.13-.19.13-.34.41-.45.85l-.57-.06.77-7.69.57.06c.02.45.13.74.32.85.2.12.54.2,1.01.25l21.21,2.12c.32.03.56,0,.73-.07.17-.08.27-.34.32-.79l.57.06c-.08,1.41-.4,2.68-.96,3.81-.56,1.13-1.29,2.15-2.19,3.06-.89.91-1.92,1.72-3.07,2.44-1.15.72-2.34,1.37-3.57,1.96-1.23.58-2.47,1.13-3.71,1.65-1.24.52-2.42,1.04-3.53,1.58-.51.24-.89.51-1.14.8-.25.29-.41.71-.46,1.25-.06.6.14,1.2.62,1.77.47.58,1.31.93,2.52,1.05,1.12.11,2.17.04,3.18-.21,1.01-.25,1.9-.58,2.68-.99.78-.4,1.4-.83,1.86-1.28.46-.45.71-.84.74-1.16.02-.19-.02-.44-.12-.74l.62-.37,4.35,7.62-.56.33c-.09-.11-.2-.21-.33-.3-.14-.1-.3-.15-.49-.17-.25-.03-.7.15-1.33.52-.63.37-1.47.76-2.5,1.17-1.07.44-2.32.8-3.73,1.07s-3.02.32-4.84.14c-1.37-.14-2.66-.47-3.86-1.01s-2.24-1.21-3.12-2.03c-.88-.81-1.56-1.75-2.03-2.81-.47-1.06-.65-2.2-.53-3.41.12-1.18.47-2.17,1.05-2.98s1.3-1.5,2.16-2.08c.86-.57,1.82-1.06,2.87-1.47,1.06-.41,2.12-.79,3.18-1.15,1.07-.36,2.08-.73,3.05-1.12.97-.38,1.8-.85,2.5-1.39l-12.94-1.3Z" fill="#fffdde"/>
    <path d="M1162.23,596.28c-1.78-.18-3.42-.67-4.92-1.48-1.49-.81-2.78-1.85-3.86-3.11-1.08-1.27-1.88-2.71-2.41-4.34-.53-1.63-.7-3.37-.51-5.21.19-1.85.7-3.51,1.54-5.01.84-1.49,1.92-2.75,3.23-3.78,1.31-1.03,2.77-1.76,4.39-2.21,1.62-.45,3.32-.58,5.11-.4,1.75.17,3.38.64,4.9,1.41,1.52.76,2.81,1.78,3.89,3.04,1.08,1.27,1.88,2.71,2.41,4.34.53,1.63.7,3.37.51,5.21-.18,1.85-.7,3.52-1.54,5.01-.84,1.49-1.92,2.75-3.23,3.78-1.31,1.03-2.78,1.79-4.43,2.28-1.64.49-3.34.65-5.09.48ZM1162.79,590.65c1.05.11,1.97-.01,2.76-.35.79-.34,1.46-.83,2-1.46.55-.63.97-1.37,1.28-2.2.31-.83.51-1.7.6-2.58.09-.89.07-1.77-.07-2.65-.13-.88-.41-1.69-.82-2.42-.41-.73-.97-1.34-1.67-1.83-.71-.49-1.58-.78-2.64-.89-1.05-.11-1.97.01-2.76.35-.79.34-1.46.82-2,1.46-.54.63-.97,1.37-1.28,2.2-.31.83-.51,1.7-.6,2.58-.09.89-.06,1.77.07,2.65.14.88.41,1.68.82,2.41.41.73.97,1.34,1.68,1.83.71.49,1.58.78,2.64.89Z" fill="#fffdde"/>
  </g>
  <g id="_x31_00Text-2" data-name="_x31_00Text">
    <path d="M1192.58,399l-.5.29c-.08-.14-.22-.32-.42-.56-.2-.24-.41-.29-.63-.16-.05.03-.18.17-.37.42s-.4.51-.64.8c-.24.29-.46.57-.67.85-.21.27-.35.45-.41.53l.79,1.32c.18.3.39.44.63.41.24-.03.45-.09.63-.16l.29.49-8.07,4.83-.3-.49c.29-.21.51-.42.66-.62.16-.21.15-.46-.04-.76l-11.48-19.2c-.18-.3-.4-.43-.65-.39-.26.04-.52.12-.78.24l-.3-.49,8.2-4.9.29.49c-.26.19-.46.39-.62.59-.16.21-.15.46.04.76l7.83,13.1c.59-.58,1.06-1.05,1.42-1.41.36-.37.61-.67.74-.92.13-.25.18-.47.15-.68-.03-.21-.13-.45-.29-.72l.5-.29,3.97,6.63Z" fill="#f0f"/>
    <path d="M1158.7,423.06c-1.54.92-3.15,1.5-4.83,1.74-1.68.24-3.33.18-4.96-.2-1.62-.37-3.13-1.06-4.53-2.05-1.39-.99-2.57-2.29-3.52-3.88-.95-1.59-1.54-3.24-1.75-4.94s-.1-3.35.34-4.96c.44-1.61,1.18-3.07,2.21-4.4,1.03-1.33,2.32-2.45,3.86-3.37,1.51-.9,3.1-1.5,4.77-1.79,1.67-.29,3.32-.25,4.94.12,1.62.37,3.13,1.06,4.53,2.05s2.57,2.29,3.52,3.88c.95,1.59,1.54,3.24,1.75,4.94.21,1.7.1,3.35-.34,4.96-.44,1.6-1.17,3.09-2.19,4.47-1.02,1.38-2.29,2.52-3.8,3.42ZM1155.79,418.2c.91-.54,1.58-1.18,2.01-1.92.43-.74.68-1.53.74-2.37s-.03-1.68-.29-2.53c-.25-.85-.6-1.67-1.06-2.43-.46-.77-1-1.46-1.64-2.09-.63-.62-1.33-1.11-2.1-1.45-.76-.34-1.57-.5-2.43-.47s-1.74.32-2.65.86c-.91.54-1.58,1.18-2.01,1.92-.43.74-.68,1.53-.74,2.37-.06.83.04,1.68.29,2.53.25.85.6,1.67,1.06,2.43.46.77,1,1.46,1.64,2.09.63.62,1.33,1.11,2.1,1.45.76.34,1.58.5,2.43.47.86-.03,1.74-.32,2.65-.86Z" fill="#f0f"/>
    <path d="M1129.41,440.58c-1.54.92-3.15,1.5-4.83,1.74-1.68.24-3.33.18-4.96-.2-1.62-.37-3.13-1.06-4.53-2.05-1.4-.99-2.57-2.29-3.52-3.88s-1.54-3.24-1.75-4.94c-.21-1.7-.1-3.35.34-4.96.44-1.61,1.18-3.07,2.21-4.4,1.03-1.32,2.32-2.45,3.86-3.37,1.51-.9,3.1-1.5,4.77-1.79,1.67-.29,3.32-.25,4.94.12s3.13,1.06,4.53,2.05c1.39.99,2.57,2.29,3.52,3.88.95,1.59,1.54,3.24,1.75,4.94.21,1.7.1,3.35-.34,4.96-.44,1.6-1.17,3.09-2.19,4.47-1.02,1.38-2.29,2.52-3.8,3.42ZM1126.5,435.71c.91-.54,1.58-1.18,2.01-1.93.43-.74.68-1.53.74-2.37.06-.83-.04-1.68-.29-2.53-.25-.85-.6-1.67-1.06-2.43-.46-.77-1-1.46-1.64-2.09-.63-.62-1.33-1.11-2.1-1.45-.76-.34-1.58-.5-2.43-.47-.86.03-1.74.32-2.65.86s-1.58,1.18-2.01,1.92c-.43.74-.68,1.53-.74,2.37-.06.83.04,1.68.29,2.53s.6,1.67,1.06,2.43c.46.76,1,1.46,1.64,2.09.63.62,1.33,1.11,2.1,1.45.76.34,1.58.5,2.43.47.86-.03,1.74-.32,2.65-.86Z" fill="#f0f"/>
  </g>
  <g id="_x32_0Text-3" data-name="_x32_0Text">
    <path d="M1033.75,304.15c-.21.32-.31.59-.29.82.02.23.2.49.53.79l-.32.48-6.4-4.33.32-.48c.41.2.71.24.91.12.2-.12.43-.38.7-.77l11.94-17.66c.18-.27.27-.49.28-.68,0-.19-.17-.4-.54-.66l.32-.48c1.2.73,2.17,1.62,2.9,2.65.73,1.03,1.28,2.16,1.66,3.38.37,1.22.61,2.5.69,3.86.09,1.35.1,2.71.03,4.08-.07,1.36-.17,2.71-.3,4.05-.13,1.34-.23,2.62-.29,3.86-.03.56.03,1.02.17,1.38s.43.7.89,1c.5.34,1.12.44,1.86.3.73-.14,1.44-.72,2.12-1.72.63-.93,1.07-1.89,1.32-2.9.26-1.01.39-1.95.4-2.83.02-.88-.07-1.63-.25-2.25-.18-.62-.4-1.02-.66-1.2-.16-.11-.39-.19-.7-.24l-.04-.72,8.77-.21.02.65c-.13.03-.27.08-.42.15-.15.07-.27.19-.38.35-.14.21-.2.68-.18,1.42.03.73-.03,1.65-.16,2.76-.12,1.15-.4,2.42-.82,3.79-.43,1.37-1.15,2.81-2.17,4.33-.77,1.14-1.68,2.11-2.72,2.91-1.04.8-2.13,1.4-3.27,1.79-1.13.39-2.28.54-3.44.46-1.16-.09-2.24-.47-3.25-1.15-.98-.66-1.69-1.44-2.13-2.34-.44-.89-.71-1.86-.8-2.89-.1-1.03-.07-2.11.07-3.23s.31-2.24.49-3.35c.19-1.11.35-2.18.47-3.22.12-1.04.11-1.99-.03-2.86l-7.28,10.78Z" fill="#fffdde"/>
    <path d="M1036.85,335.04c-1,1.48-2.22,2.69-3.64,3.62-1.42.93-2.95,1.57-4.57,1.92-1.62.35-3.28.37-4.97.06-1.68-.31-3.29-.98-4.83-2.02-1.54-1.04-2.76-2.28-3.68-3.73-.91-1.45-1.51-2.99-1.79-4.63-.28-1.64-.24-3.28.14-4.92.37-1.64,1.06-3.2,2.07-4.69.99-1.46,2.17-2.67,3.56-3.65,1.39-.97,2.9-1.63,4.53-1.98,1.63-.35,3.28-.37,4.97-.06,1.68.31,3.29.98,4.83,2.02,1.54,1.04,2.76,2.28,3.68,3.73.91,1.45,1.51,2.99,1.79,4.63s.25,3.3-.09,4.98c-.34,1.68-1.01,3.25-1.99,4.71ZM1032.16,331.87c.59-.88.93-1.74,1-2.6.08-.86-.03-1.67-.33-2.46-.3-.78-.74-1.51-1.33-2.17-.59-.67-1.25-1.25-1.99-1.75-.74-.5-1.53-.9-2.37-1.2-.84-.3-1.68-.44-2.51-.43s-1.64.22-2.4.61c-.76.39-1.44,1.02-2.03,1.9-.59.88-.93,1.74-1,2.59-.08.86.03,1.67.33,2.46.3.78.74,1.51,1.33,2.17.59.67,1.25,1.25,1.99,1.75.74.5,1.53.9,2.37,1.2.84.3,1.68.44,2.51.42.84-.01,1.64-.22,2.4-.61.76-.39,1.44-1.02,2.03-1.9Z" fill="#fffdde"/>
  </g>
  <g id="CouponText-4" data-name="CouponText">
    <path d="M1203.76,823.99c-1.13,1.21-2.38,2.23-3.75,3.05-1.37.83-2.81,1.44-4.32,1.84-1.51.4-3.08.59-4.71.56-1.63-.03-3.27-.28-4.92-.77s-3.31-1.21-4.96-2.17c-1.65-.96-3.25-2.17-4.82-3.64-1-.94-1.9-1.91-2.7-2.89-.8-.99-1.5-1.97-2.1-2.95-.6-.98-1.11-1.94-1.52-2.88s-.75-1.83-1.01-2.67l4.17-1.49c.35.91.83,1.85,1.45,2.82.62.98,1.36,1.88,2.24,2.7,1.17,1.1,2.46,1.91,3.86,2.43,1.4.52,2.83.73,4.28.64,1.46-.09,2.91-.49,4.36-1.2,1.45-.71,2.81-1.75,4.1-3.11,1.27-1.36,2.22-2.78,2.84-4.26.62-1.48.94-2.96.95-4.42,0-1.46-.28-2.87-.88-4.23s-1.47-2.59-2.64-3.68c-.82-.77-1.73-1.44-2.74-2.01-1.01-.57-2.01-1.01-3-1.32l1.23-4.25c.87.19,1.78.47,2.73.83.95.36,1.93.8,2.94,1.33,1.01.53,2.02,1.16,3.05,1.89,1.03.73,2.04,1.57,3.05,2.51,2.33,2.19,4.12,4.51,5.34,6.96,1.23,2.45,1.94,4.88,2.13,7.3.19,2.42-.11,4.75-.9,7-.79,2.25-2.03,4.27-3.72,6.07Z" fill="#f0f"/>
    <path d="M1177.52,791.41c-1.26,1.34-2.68,2.3-4.25,2.86-1.57.56-3.23.74-4.99.52-1.76-.22-3.58-.82-5.48-1.82-1.89-1-3.8-2.39-5.71-4.19-1.91-1.8-3.43-3.61-4.54-5.44-1.11-1.83-1.83-3.61-2.16-5.35-.33-1.74-.26-3.41.21-5.01.46-1.6,1.33-3.07,2.59-4.42,1.25-1.33,2.66-2.28,4.23-2.84s3.23-.74,4.99-.52c1.76.21,3.58.82,5.48,1.82,1.89,1,3.8,2.39,5.71,4.19,1.91,1.8,3.43,3.61,4.54,5.44,1.11,1.83,1.83,3.61,2.16,5.35s.26,3.41-.21,5.01c-.46,1.6-1.32,3.07-2.57,4.4ZM1170.67,774.33c-.42-.4-.88-.66-1.37-.8s-1.04-.1-1.66.13c-.62.22-1.33.65-2.12,1.27-.8.62-1.72,1.49-2.77,2.61-1.06,1.13-1.87,2.11-2.44,2.95-.57.84-.95,1.57-1.13,2.2s-.19,1.19-.02,1.67.46.92.89,1.32c.43.41.89.68,1.38.81s1.04.09,1.65-.13c.62-.22,1.33-.65,2.12-1.27.8-.62,1.73-1.5,2.79-2.62,1.05-1.12,1.86-2.09,2.43-2.93s.95-1.57,1.13-2.2c.19-.63.2-1.18.03-1.66s-.46-.92-.9-1.32Z" fill="#f0f"/>
    <path d="M1138.22,770.47l-9.28-8.71,9.72-10.35c.43-.46.75-.88.96-1.26.21-.38.32-.75.33-1.09.01-.34-.06-.67-.22-.98s-.4-.62-.73-.93c-.41-.39-.83-.66-1.26-.81-.43-.16-.96-.22-1.59-.19l-11.17,11.89-9.28-8.71,15.9-16.93,8.18,7.69-1.49,3.23c1.99-.04,3.79.29,5.39,1,1.61.71,3.04,1.65,4.29,2.83,2.06,1.94,3.13,3.99,3.21,6.15.08,2.16-.97,4.4-3.14,6.71l-9.83,10.47Z" fill="#f0f"/>
    <path d="M1107.44,741.53l-8.54-8.02,1.37-2.89c-.61,0-1.28-.04-2.01-.15s-1.48-.3-2.24-.56c-.76-.26-1.52-.61-2.28-1.05-.76-.44-1.48-.97-2.15-1.6-1.29-1.21-2.32-2.53-3.09-3.97-.77-1.43-1.24-2.92-1.38-4.45-.15-1.53.05-3.07.59-4.62.54-1.55,1.49-3.04,2.85-4.49,1.25-1.33,2.61-2.32,4.09-2.96,1.47-.64,3-.94,4.59-.9,1.59.04,3.19.44,4.82,1.18,1.63.75,3.21,1.84,4.75,3.28,1.17,1.1,2.1,2.23,2.78,3.4.68,1.16,1.11,2.3,1.3,3.42l9.13-9.72,9.28,8.71-23.84,25.39ZM1110.77,719.39c-.04-.53-.16-1.03-.38-1.51-.21-.48-.5-.88-.85-1.22-.57-.54-1.2-.93-1.88-1.17-.68-.24-1.41-.31-2.19-.21-.78.11-1.59.41-2.43.91-.85.5-1.72,1.24-2.63,2.2-.92.98-1.61,1.91-2.08,2.78s-.74,1.68-.82,2.43c-.08.75,0,1.44.27,2.07s.67,1.21,1.21,1.72c.43.41.92.71,1.45.92.53.21,1.07.32,1.61.34l8.71-9.28Z" fill="#f0f"/>
    <path d="M1084.49,704.03c-1.26,1.34-2.68,2.3-4.25,2.86-1.57.56-3.23.74-4.99.52-1.76-.22-3.58-.82-5.48-1.82-1.89-1-3.8-2.39-5.71-4.19-1.91-1.8-3.43-3.61-4.54-5.44-1.11-1.83-1.83-3.61-2.16-5.35-.33-1.74-.26-3.41.21-5.01.46-1.6,1.33-3.07,2.59-4.42,1.25-1.33,2.66-2.28,4.23-2.84,1.57-.56,3.23-.74,4.99-.52,1.76.22,3.59.82,5.48,1.82,1.89,1,3.8,2.39,5.71,4.19s3.43,3.61,4.54,5.44c1.11,1.83,1.83,3.61,2.16,5.35.33,1.74.26,3.41-.21,5.01-.46,1.6-1.32,3.07-2.57,4.4ZM1077.64,686.95c-.42-.39-.88-.66-1.37-.8-.49-.14-1.04-.1-1.66.13-.62.22-1.33.65-2.12,1.27-.8.62-1.72,1.49-2.77,2.61-1.06,1.13-1.87,2.11-2.45,2.95-.57.84-.95,1.57-1.13,2.2s-.19,1.19-.02,1.67c.17.48.47.92.89,1.32.43.41.89.68,1.38.81.49.13,1.04.09,1.65-.13.62-.22,1.33-.65,2.12-1.27s1.73-1.5,2.79-2.62c1.05-1.12,1.86-2.09,2.43-2.93s.95-1.57,1.13-2.2c.18-.63.19-1.18.03-1.66-.16-.48-.46-.92-.89-1.32Z" fill="#f0f"/>
    <path d="M1045.03,682.93l-8.18-7.69,1.49-3.23c-2.07-.21-3.95-.67-5.64-1.37-1.69-.7-3.22-1.7-4.6-3-.79-.74-1.39-1.56-1.83-2.46s-.64-1.86-.63-2.87.28-2.09.8-3.22c.52-1.13,1.35-2.29,2.47-3.49l9.82-10.46,9.28,8.71-10.36,11.04c-.56.59-.83,1.15-.83,1.67,0,.52.26,1.01.76,1.49.33.31.76.58,1.29.82.53.24,1.06.34,1.62.3l11.17-11.89,9.28,8.71-15.9,16.93Z" fill="#f0f"/>
  </g>
</svg>
